<svg width="12" height="12" viewBox="0 0 12 12" fill="none" xmlns="http://www.w3.org/2000/svg">
<path d="M3.11265 2.40548C2.91739 2.21022 2.6008 2.21022 2.40554 2.40548C2.21028 2.60074 2.21028 2.91732 2.40554 3.11259L5.29291 5.99995L2.40557 8.88729C2.21031 9.08255 2.21031 9.39914 2.40557 9.5944C2.60083 9.78966 2.91742 9.78966 3.11268 9.5944L6.00002 6.70706L8.88735 9.5944C9.08261 9.78966 9.3992 9.78966 9.59446 9.5944C9.78972 9.39914 9.78972 9.08255 9.59446 8.88729L6.70712 5.99995L9.59449 3.11259C9.78975 2.91732 9.78975 2.60074 9.59449 2.40548C9.39923 2.21022 9.08264 2.21022 8.88738 2.40548L6.00002 5.29285L3.11265 2.40548Z" fill="#9E9E9E"/>
</svg>
