<svg width="43" height="16" viewBox="0 0 43 16" fill="none" xmlns="http://www.w3.org/2000/svg">
<g clip-path="url(#clip0)">
<path d="M11.8668 13.7233C11.5712 14.4648 11.3252 15.2254 11.1308 16L1.99238 9.22411C1.87488 9.13272 1.77825 9.01697 1.70902 8.88471C1.58532 8.64031 1.54859 8.36058 1.60497 8.0922C1.64132 7.93083 1.71089 7.77894 1.80919 7.64635C2.02688 7.34911 2.24493 7.05039 2.46336 6.75018L11.8668 13.7233Z" fill="#303030"/>
<path d="M12.6738 11.9884C12.3999 12.5017 12.1522 13.0287 11.9316 13.5673L2.558 6.61534L3.56692 5.23486L12.6738 11.9884Z" fill="#303030"/>
<path d="M23.5325 5.33686C23.4218 5.3129 23.2613 5.28113 23.066 5.24658C22.4771 5.13866 21.8814 5.07255 21.2833 5.04873C20.1609 5.03368 19.0092 5.59657 18.5515 5.82897C15.1894 7.54885 13.0404 11.3219 12.8212 11.7154C12.8177 11.7198 12.8151 11.7249 12.8135 11.7304C12.7925 11.7661 12.772 11.804 12.7526 11.8419L3.57603 5.03981L3.41 4.91219L0.182894 2.42711C0.131922 2.36018 0.0907337 2.28623 0.0605841 2.20753C-0.179609 1.58334 0.361655 0.822599 0.564214 0.538925C0.675114 0.382273 0.798774 0.23519 0.933911 0.0992023C3.80294 2.24116 6.67142 4.38162 9.53934 6.5206C10.1031 6.1201 10.7057 5.77821 11.338 5.50016C11.9588 5.22679 12.6053 5.01711 13.2679 4.87429C12.9155 4.68308 12.5862 4.45156 12.2866 4.18433C11.9274 3.86332 11.3103 3.31102 11.0093 2.40426C10.654 1.33254 10.9418 0.372287 11.0757 0C11.2298 0.244841 11.4174 0.466601 11.633 0.658748C12.3608 1.30746 13.2203 1.42896 14.1191 1.5159C15.4674 1.64302 16.8221 1.68713 18.1758 1.64798C18.4361 1.67891 18.6921 1.7393 18.939 1.828C19.5843 2.0604 19.6944 2.51851 20.4814 2.91031C20.6275 2.9822 20.5605 2.93706 20.9479 3.10537C21.3519 3.27925 21.9851 3.55401 22.3476 3.78808C22.6398 3.97868 23.1479 4.39723 23.5325 5.33686Z" fill="#303030"/>
<path d="M35.7799 14.653C35.7799 14.5315 35.7278 14.4975 35.6138 14.5003C35.3814 14.5058 35.149 14.5003 34.9165 14.5031C34.879 14.5072 34.8411 14.5002 34.8074 14.4831C34.7737 14.466 34.7457 14.4395 34.7267 14.4066C34.5053 14.0795 34.2778 13.7551 34.0426 13.4375C33.9618 13.326 33.9718 13.2881 34.0946 13.2307C34.4992 13.0429 34.8484 12.7815 35.0964 12.3986C35.8286 11.2673 35.3891 9.11492 33.3254 8.9232C32.617 8.85744 31.9069 8.91205 31.3286 8.89088C30.5975 8.89088 29.9975 8.89812 29.3976 8.88697C29.2216 8.88363 29.1762 8.94271 29.1818 9.1099C29.1928 9.39525 29.1851 9.68227 29.1851 9.96817C29.1851 10.2647 29.1851 10.278 29.4723 10.2613C29.6544 10.2513 29.681 10.317 29.6804 10.4842C29.6738 11.7523 29.6738 13.0204 29.6804 14.2885C29.6804 14.4501 29.6544 14.5371 29.4734 14.5042C29.3362 14.4797 29.2941 14.5482 29.2963 14.6808C29.3024 15.0386 29.3013 15.3964 29.2963 15.7542C29.2963 15.8702 29.3329 15.9131 29.4524 15.912C30.1239 15.9075 30.795 15.9075 31.4658 15.912C31.5765 15.912 31.6125 15.8768 31.6108 15.7665C31.6053 15.441 31.6108 15.1161 31.6108 14.7906C31.6108 14.4752 31.6407 14.4969 31.3341 14.5058C31.2051 14.5097 31.1681 14.4668 31.1719 14.3387C31.1819 14.1308 31.1819 13.9223 31.1719 13.7145C31.1664 13.5896 31.2134 13.5606 31.3286 13.5634C31.6186 13.5707 31.9091 13.5701 32.1991 13.5634C32.2433 13.5597 32.2876 13.5681 32.3273 13.5877C32.3671 13.6073 32.4008 13.6375 32.4249 13.6749C32.6291 13.9586 32.8289 14.2473 33.0487 14.5187C33.3326 14.8698 33.5207 15.2432 33.4421 15.7124C33.4421 15.7253 33.4421 15.7386 33.4421 15.7515C33.43 15.869 33.4798 15.9092 33.5982 15.9081C34.2756 15.904 34.9532 15.904 35.631 15.9081C35.7417 15.9081 35.781 15.8729 35.7799 15.7632C35.776 15.3948 35.7754 15.0236 35.7799 14.653ZM33.8771 11.5097C33.7725 11.8775 33.4754 12.106 33.0962 12.1556C32.4936 12.2337 31.8848 12.1768 31.2788 12.1902C31.1681 12.1902 31.1747 12.1211 31.1747 12.047C31.1747 11.78 31.1747 11.5136 31.1747 11.2467C31.1747 10.9797 31.1747 10.7139 31.1747 10.4469C31.1747 10.3784 31.157 10.2948 31.271 10.2981C31.8837 10.3154 32.4985 10.2457 33.1073 10.3338C33.7294 10.4218 34.0498 10.9006 33.8771 11.5097Z" fill="#303030"/>
<path d="M22.2283 14.9835C22.2283 14.5376 22.2283 14.5276 21.7811 14.5376C21.624 14.5415 21.5598 14.4852 21.4989 14.3454C21.1152 13.4306 20.7257 12.5183 20.3306 11.6084C19.9642 10.7646 19.589 9.92361 19.2165 9.08206C19.1778 8.99401 19.1462 8.91096 19.015 8.91487C18.357 8.92155 17.699 8.91988 17.0409 8.91487C16.9214 8.91487 16.8838 8.95611 16.8865 9.07314C16.8921 9.35905 16.8865 9.64551 16.8865 9.93141C16.8865 10.2719 16.8865 10.2719 17.2114 10.3137C17.2219 10.3895 17.1782 10.4508 17.1511 10.5149C16.653 11.6853 16.135 12.8445 15.6612 14.0232C15.509 14.4011 15.3413 14.6324 14.9074 14.536C14.8034 14.5126 14.758 14.5638 14.7597 14.677C14.7645 15.0407 14.7645 15.4046 14.7597 15.7687C14.7597 15.8852 14.8078 15.9097 14.9107 15.9097C15.5944 15.9064 16.2783 15.9064 16.9623 15.9097C17.0769 15.9097 17.1245 15.8763 17.1223 15.7548C17.1168 15.397 17.1223 15.0392 17.1223 14.682C17.1223 14.6379 17.1372 14.5778 17.0896 14.5577C17 14.5187 17.0011 14.4529 17.0265 14.3821C17.0592 14.2891 17.1444 14.3208 17.2103 14.3203C17.8744 14.3203 18.5385 14.3203 19.2027 14.3203C19.4157 14.3203 19.6288 14.3242 19.8413 14.3203C19.9232 14.3203 19.952 14.3576 19.9758 14.4267C19.9996 14.4958 19.9814 14.5348 19.905 14.546C19.8286 14.5571 19.8358 14.6274 19.8358 14.6836C19.8358 15.0414 19.8391 15.3987 19.833 15.7559C19.833 15.8752 19.8701 15.9136 19.9885 15.9125C20.6785 15.9084 21.3688 15.9084 22.0595 15.9125C22.184 15.9125 22.2327 15.8752 22.2294 15.7453C22.2233 15.4934 22.2283 15.2371 22.2283 14.9835ZM17.6276 12.9353C17.9132 12.2666 18.1926 11.6073 18.4926 10.9023C18.792 11.6045 19.0721 12.2616 19.3587 12.9353H17.6276Z" fill="#303030"/>
<path d="M42.6181 12.1094C42.5976 12.5748 42.653 13.1404 42.5705 13.7044C42.4856 14.2845 42.2124 14.8199 41.7937 15.2273C41.3749 15.6347 40.8341 15.8911 40.2555 15.9565C39.738 16.0201 39.2272 16.0257 38.7197 15.8975C37.5165 15.5932 36.9011 14.6156 36.7644 13.5406C36.6421 12.5775 36.7179 11.605 36.7124 10.637C36.7124 10.4497 36.6675 10.3711 36.4794 10.4057C36.2912 10.4402 36.2508 10.35 36.258 10.1766C36.2702 9.84558 36.2657 9.51342 36.258 9.18182C36.258 9.05308 36.2868 8.99512 36.4296 8.99623C37.0878 9.00292 37.746 9.00292 38.4042 8.99623C38.5465 8.99623 38.578 9.04806 38.5758 9.17847C38.5686 9.5229 38.5658 9.86787 38.5758 10.2123C38.5808 10.3711 38.5249 10.4308 38.3755 10.4051C38.226 10.3795 38.1856 10.4486 38.1867 10.5974C38.1945 11.3776 38.1867 12.1579 38.1934 12.9381C38.1899 13.2512 38.2531 13.5613 38.3788 13.8477C38.4459 14.0068 38.5473 14.1489 38.6755 14.2639C38.8037 14.3788 38.9557 14.4638 39.1204 14.5125C39.4796 14.6289 39.8653 14.6335 40.2273 14.5259C40.8327 14.3448 41.0685 13.861 41.126 13.2864C41.2185 12.3663 41.1476 11.4412 41.167 10.5183C41.167 10.414 41.115 10.4068 41.0342 10.404C40.6706 10.3873 40.6706 10.3851 40.6706 10.0139C40.6706 9.72799 40.675 9.44153 40.6706 9.15562C40.6672 9.03692 40.7049 8.9979 40.8244 8.99846C41.5018 9.00329 42.1794 9.00329 42.8572 8.99846C42.9679 8.99846 43.0016 9.03636 43 9.14503C42.995 9.50952 42.9922 9.874 43 10.2379C43.0039 10.3812 42.9485 10.4269 42.8201 10.4051C42.6618 10.38 42.6109 10.4397 42.6148 10.6046C42.6259 11.0733 42.6181 11.5415 42.6181 12.1094Z" fill="#303030"/>
<path d="M28.6681 10.8119C28.6681 11.0399 28.6631 11.2678 28.6681 11.4952C28.6714 11.6156 28.6266 11.654 28.5104 11.6523C28.1558 11.6475 27.8009 11.6475 27.4456 11.6523C27.3349 11.6523 27.2972 11.6105 27.3017 11.503C27.3072 11.3469 27.2906 11.1898 27.3061 11.0354C27.3227 10.8682 27.2508 10.7707 27.1284 10.6782C26.9061 10.5083 26.6499 10.3889 26.3774 10.3282C26.1048 10.2675 25.8225 10.267 25.5498 10.3267C25.277 10.3864 25.0204 10.5048 24.7974 10.6739C24.5745 10.843 24.3906 11.0588 24.2583 11.3063C23.9744 11.8413 23.9157 12.3997 24.0336 12.9871C24.2661 14.1402 25.7127 15.067 27.1024 14.172C27.3113 14.0423 27.5054 13.89 27.6813 13.7178C27.7472 13.6514 27.792 13.6514 27.8546 13.7178C28.1136 13.9897 28.3742 14.2606 28.6393 14.527C28.7052 14.5933 28.6781 14.6301 28.6294 14.6847C27.9542 15.4404 27.1251 15.8651 26.1062 15.9069C25.2888 15.9409 24.5256 15.7999 23.8676 15.2738C22.9361 14.5292 22.4757 13.5751 22.453 12.3585C22.4237 10.7657 23.6385 9.28542 25.1399 8.98503C26.29 8.75486 27.3504 8.98503 28.3001 9.71289C28.5691 9.91965 28.7356 10.127 28.6692 10.4803C28.6588 10.5906 28.6585 10.7016 28.6681 10.8119Z" fill="#303030"/>
</g>
<defs>
<clipPath id="clip0">
<rect width="43" height="16" fill="white"/>
</clipPath>
</defs>
</svg>
