<svg width="38" height="32" viewBox="0 0 38 32" fill="none" xmlns="http://www.w3.org/2000/svg">
<g clip-path="url(#clip0)">
<path d="M22.7493 9.74364C23.1266 10.852 23.5129 11.9536 23.8755 13.0642C23.9634 13.3326 24.0467 13.5563 24.4837 13.5798C23.9724 12.0845 23.4735 10.625 22.9746 9.17101C23.755 9.05917 23.8665 9.11957 24.1008 9.78055C24.5332 11.0048 24.9661 12.2295 25.3993 13.4545C25.4297 13.5421 25.4674 13.627 25.5119 13.7084C25.6065 13.8739 25.7371 14.0898 25.9297 14.0048C26.1831 13.893 25.9511 13.6805 25.9027 13.5362C25.6955 12.9199 25.504 12.2925 25.2157 11.7132C24.9409 11.1629 25.0411 10.8184 25.7045 10.5086L30.6891 23.6533C29.8692 23.4677 29.1518 23.3066 28.4367 23.1433C28.3508 23.1073 28.2614 23.0807 28.1697 23.0639C27.5233 23.0639 27.4028 22.6781 27.369 22.1289C27.345 21.5235 27.1826 20.9314 26.8943 20.3974C26.6059 19.8634 26.199 19.4015 25.7045 19.0466C25.1414 18.6216 24.4803 18.4605 23.826 18.3834C23.1942 18.3084 23.0635 17.9975 23.0038 17.4618C22.8709 16.2651 22.3608 15.2798 21.1647 14.8134C20.6118 14.5975 20.0183 14.4779 19.445 14.3135C19.1387 14.2229 18.8988 13.3673 19.1151 13.1447C19.2198 13.0329 19.3606 13.0888 19.4867 13.0955C20.3205 13.1366 21.1262 13.4077 21.8134 13.8784C21.4215 12.6482 21.0814 11.579 20.7368 10.5075C20.5262 9.85436 20.31 9.20233 20.0971 8.54918C20.0126 8.29082 20.0971 8.24944 20.3663 8.25727C20.8641 8.27069 21.042 8.57266 21.1681 8.9697C21.548 10.1746 21.9294 11.3788 22.3124 12.5822C22.348 12.7074 22.3924 12.8299 22.4452 12.949C22.4742 13.0194 22.5282 13.0767 22.5969 13.1101C22.6656 13.1435 22.7443 13.1507 22.818 13.1302C22.9791 13.0732 22.8912 12.8987 22.8563 12.7947C22.6615 12.1751 22.488 11.5443 22.2369 10.9459C21.9858 10.3476 22.1547 9.99752 22.7493 9.74364Z" fill="#303030"/>
<path d="M11.458 14.0428C12.0211 13.9175 12.1067 13.4947 12.2351 13.148C12.6462 12.0296 13.0234 10.9112 13.4142 9.78496C13.6519 9.10384 13.653 9.10384 14.5168 9.10496C14.0055 10.5835 13.5032 12.043 12.9897 13.5238C13.4525 13.6222 13.5528 13.3158 13.6451 13.0082C13.9626 11.8943 14.3542 10.8026 14.8175 9.74022C15.3423 10.0232 15.4493 10.4303 15.2815 10.928C15.1137 11.4257 14.9098 11.9345 14.733 12.4468C14.6478 12.6476 14.6235 12.8688 14.6632 13.0832C15.0788 13.0306 15.1666 12.7141 15.2646 12.4032C15.6193 11.2847 16.0248 10.1853 16.312 9.05352C16.473 8.41826 16.7928 8.19793 17.4719 8.27063C16.8953 10.0925 16.3221 11.901 15.7128 13.8224C16.5417 13.4712 17.258 13.1447 18.0621 13.0742C18.4394 13.0407 18.5035 13.1469 18.4878 13.478C18.4416 14.3727 18.6669 14.2049 17.7051 14.4062C16.5214 14.6534 15.4166 15.0079 14.822 16.1957C14.5967 16.6531 14.4154 17.1486 14.4458 17.6373C14.4853 18.2748 14.1159 18.3084 13.6688 18.3643C13.1085 18.4212 12.5674 18.5984 12.083 18.8837C11.5986 19.1689 11.1824 19.5553 10.8634 20.0162C10.4418 20.6147 10.204 21.3217 10.1786 22.0517C10.1505 22.7104 9.89372 23.0292 9.23489 23.1444C8.46907 23.2786 7.72014 23.5079 6.86986 23.7193C7.33385 22.4711 7.76069 21.3113 8.19315 20.1538C9.34563 17.0759 10.5007 13.9999 11.6585 10.9257C11.7114 10.7859 11.6709 10.5365 11.8961 10.5332C12.0977 10.5332 12.2013 10.7188 12.2948 10.8855C12.5302 11.3015 12.3421 11.684 12.19 12.0587C11.9378 12.6816 11.6472 13.3024 11.458 14.0428Z" fill="#303030"/>
<path d="M19.5002 21.9768C20.9452 21.6122 22.2797 21.5842 23.5478 22.3123C23.9713 22.5573 23.9859 22.6937 23.5478 22.9632C23.0174 23.2921 22.4216 23.4509 21.809 23.5526C19.5896 23.9395 17.3144 23.876 15.1204 23.3659C14.7384 23.2759 14.3686 23.1408 14.019 22.9632C13.635 22.7698 13.6158 22.5774 13.9818 22.3403C14.9087 21.7431 15.9279 21.6156 16.9967 21.7565C17.3278 21.8001 17.6544 21.8896 18.0429 21.9712C17.9303 21.1492 17.7715 20.3518 17.8988 19.5376C17.9765 19.0418 18.1655 18.5697 18.4518 18.1563C18.7029 17.7872 18.9022 17.8487 19.1275 18.1653C19.7097 19.013 19.7964 19.9547 19.6726 20.9434C19.6286 21.2711 19.5633 21.5943 19.5002 21.9768Z" fill="#303030"/>
<path d="M22.2989 29.3091C22.0466 29.0765 22.0736 28.9881 22.2302 28.741C22.7325 27.9212 22.3068 27.0253 21.3608 26.8464C20.5792 26.6976 19.7942 26.7737 18.9709 26.7759C19.0442 27.2658 19.3674 27.608 19.3629 28.0498C19.3584 28.4916 19.3809 28.9445 19.3437 29.3919C19.2784 30.158 19.4417 30.9577 19.0137 31.6779C18.8809 31.9016 19.0915 31.9016 19.239 31.9083C19.9699 31.9173 20.7031 31.9497 21.4283 31.858C21.9914 31.7864 22.4239 31.5225 22.6108 30.97C22.8203 30.3649 22.7854 29.7498 22.2989 29.3091ZM20.4688 28.4535C20.4567 28.342 20.4567 28.2295 20.4688 28.118C20.4981 27.9134 20.3472 27.6058 20.7796 27.6259C21.1547 27.6427 21.3202 27.8183 21.3168 28.1784C21.3168 28.3842 21.2954 28.5878 21.1175 28.7298C21.0442 28.7881 20.9577 28.8278 20.8654 28.8453C20.7732 28.8629 20.678 28.8578 20.5882 28.8305C20.4057 28.7768 20.4834 28.59 20.4733 28.4535H20.4688ZM20.7447 31.1019C20.4767 31.0941 20.4767 31.0941 20.4767 30.3582C20.6231 30.1871 20.185 29.6872 20.7999 29.7106C21.2143 29.7263 21.5207 29.9164 21.5229 30.3873C21.5286 30.7709 21.1457 31.1154 20.7492 31.1019H20.7447Z" fill="#303030"/>
<path d="M12.2227 30.2218C11.9851 29.9108 11.9198 29.7353 12.2813 29.4232C12.4768 29.2565 12.6243 29.0413 12.7087 28.7996C12.7931 28.5578 12.8114 28.2981 12.7617 28.047C12.712 27.7959 12.5961 27.5624 12.4258 27.3704C12.2555 27.1783 12.037 27.0345 11.7925 26.9538C10.922 26.6552 10.0142 26.7592 9.14594 26.7827C9.61503 28.4525 9.62164 30.2171 9.16508 31.8904C9.61556 31.8904 10.1088 31.8793 10.6066 31.8904C10.958 31.9016 11.0154 31.7596 10.8229 31.5079C10.4422 31.0136 10.6427 30.479 10.5875 29.8862C11.0526 30.1849 11.1866 30.583 11.3758 30.9387C11.806 31.7708 12.3534 32.0571 13.4143 31.9128C12.9908 31.3156 12.627 30.7564 12.2227 30.2218ZM11.5864 28.3786C11.5549 28.7969 11.3071 29.0273 10.8893 29.0184C10.3149 29.0072 10.6562 28.552 10.5413 28.2959C10.6877 28.0934 10.3161 27.6528 10.8679 27.6382C10.9668 27.6294 11.0665 27.6428 11.1596 27.6772C11.2527 27.7117 11.3368 27.7665 11.4057 27.8376C11.4746 27.9086 11.5267 27.9941 11.5579 28.0877C11.5892 28.1813 11.5989 28.2808 11.5864 28.3786Z" fill="#303030"/>
<path d="M37.2019 31.8904C36.6264 31.8714 36.0509 31.8848 35.4642 31.8848C35.7953 30.9755 35.6162 30.4141 34.8504 29.9063C34.6623 30.3984 34.6623 30.3984 35.0824 31.8971C34.5508 31.8971 34.0328 31.8848 33.5158 31.8971C33.2331 31.906 33.2084 31.7729 33.2624 31.5616C33.3607 31.5103 33.4427 31.433 33.4993 31.3382C33.556 31.2434 33.5851 31.1349 33.5834 31.0247C33.6476 29.988 33.6431 28.9512 33.6487 27.9144C33.6487 27.4939 33.3109 27.2233 33.2286 26.7546H35.115C34.7869 27.3294 34.6751 28.0013 34.7997 28.6503C35.6624 27.9715 35.7502 27.6751 35.391 26.7569H37.1715C36.8516 27.4279 36.4124 27.9234 35.9766 28.4132C35.7412 28.6772 35.7513 28.8606 35.9248 29.1268C36.4473 29.9332 36.953 30.7496 37.4643 31.5627C37.5161 31.7819 37.4756 31.8993 37.2019 31.8904Z" fill="#303030"/>
<path d="M27.8713 26.7781C29.5742 26.6965 29.5719 26.6987 30.3974 28.0844C30.6497 28.5072 30.9211 28.9199 31.2713 29.4757C31.3547 28.4602 31.42 27.6237 30.8535 26.758H31.6678C32.384 26.758 32.384 26.758 32.0912 27.4089C32.0139 27.6195 31.9828 27.8441 32 28.0677C32 29.0899 32.0236 30.1132 31.9932 31.1355C31.9865 31.3838 32.1847 31.7674 31.7432 31.8826C31.3276 31.9944 31.2071 31.6589 31.0438 31.3905C30.4304 30.3928 29.8159 29.396 29.2003 28.3998C29.1585 28.3296 29.0943 28.2752 29.0178 28.2455C29.0403 29.4444 28.6676 30.6646 29.3906 31.9005C28.9164 31.9005 28.5178 31.9005 28.1202 31.9005C27.7948 31.9061 27.8173 31.7416 27.9693 31.5649C28.1946 31.3032 28.234 30.9912 28.2396 30.678C28.2576 29.7296 28.2396 28.7767 28.2689 27.8328C28.2813 27.429 27.8984 27.1975 27.8713 26.7781Z" fill="#303030"/>
<path d="M15.6205 26.7535C14.4526 26.8486 13.6552 27.8373 13.5854 29.28C13.4987 31.0617 14.9628 32.3232 16.6082 31.8848C17.6003 31.6197 18.2671 30.5662 18.2716 29.2554C18.2761 27.7366 17.1026 26.6328 15.6205 26.7535ZM16.7287 30.7094C16.3367 31.3502 15.5912 31.3804 15.1891 30.7463C14.6666 29.9265 14.67 29.053 15.0394 28.1873C15.206 27.797 15.5439 27.5085 15.9978 27.5163C16.4516 27.5241 16.6656 27.8518 16.8413 28.2298C17.017 28.6079 17.0305 28.9825 17.0485 29.5473C17.0588 29.9574 16.9476 30.3615 16.7287 30.7094Z" fill="#303030"/>
<path d="M7.98705 28.4826C7.70212 28.2299 7.4904 28.0285 7.2629 27.8462C6.64349 27.3485 6.0466 27.4906 5.7369 28.2153C5.39904 29.0127 5.44183 29.8147 5.7887 30.5953C6.01394 31.1042 6.55903 31.3379 6.91491 31.1176C7.27079 30.8973 7.31471 30.29 7.01176 29.8639C6.88562 29.686 6.74372 29.5183 6.51285 29.2219C7.08947 29.2219 7.55009 29.2286 8.00958 29.2219C8.27086 29.2163 8.25622 29.3852 8.25622 29.5574V31.1769C8.25622 31.3267 8.25622 31.4565 8.08729 31.5538C6.77413 32.3367 5.16591 32.1745 4.55551 30.4835C4.16359 29.3997 4.20751 28.3518 4.9722 27.4335C5.55333 26.7368 6.9746 26.4952 7.78771 26.89C7.85598 26.9207 7.91252 26.9724 7.94901 27.0375C7.9855 27.1025 8.00002 27.1774 7.99043 27.2512L7.98705 28.4826Z" fill="#303030"/>
<path d="M26.7946 30.7105C26.3554 29.5473 25.9432 28.3752 25.5063 27.2121C25.4353 27.0231 25.3993 26.777 25.0715 26.7916C24.7641 26.805 24.7753 27.0376 24.7145 27.211C24.2956 28.3998 23.8778 29.5898 23.4757 30.7899C23.3507 31.1634 22.8067 31.5437 23.0782 31.8334C23.2809 32.0492 23.8913 31.8882 24.317 31.8904C24.3406 31.8904 24.3654 31.8502 24.3891 31.8289C24.1143 31.2004 24.076 30.9834 24.2122 30.8559C24.2933 30.7798 25.4511 30.772 25.5299 30.8648C25.8576 31.2529 25.3824 31.5359 25.3542 31.9195H27.3667C27.1415 31.4431 26.9377 31.0919 26.7946 30.7105ZM24.8407 28.9904C24.8823 29.0284 24.9398 29.0575 24.9589 29.1022C25.0715 29.3717 25.1695 29.6435 25.2878 29.95C24.3654 30.0025 24.3564 29.9813 24.8407 28.9904Z" fill="#303030"/>
<path d="M2.24003 31.8848H4.24242C3.61512 30.8559 3.3347 29.7967 2.95292 28.7756C2.73781 28.203 2.58127 27.6102 2.27719 27.07C2.19048 26.9135 2.1229 26.7893 1.91005 26.796C1.6758 26.8039 1.65553 26.9772 1.59922 27.1316C1.4866 27.4436 1.36497 27.7556 1.26136 28.071C0.923496 29.053 0.638566 30.0529 0.247774 31.0125C-0.131757 31.9441 -0.175679 31.8994 0.823264 31.9284C1.3965 31.9463 1.35483 31.7473 1.12847 31.3692C1.04175 31.225 0.881827 31.0605 1.05751 30.8727C1.20843 30.7105 2.19611 30.6825 2.41797 30.8536C2.80538 31.1523 2.38981 31.3592 2.30535 31.6052C2.28395 31.688 2.26706 31.7752 2.24003 31.8848ZM1.43141 29.8616C1.33006 29.5854 1.58908 29.2957 1.72761 28.8975C1.83347 29.1458 1.90329 29.2968 1.96298 29.4567C2.02267 29.6167 2.06659 29.761 2.12741 29.9399C1.85825 29.931 1.50462 30.0618 1.43141 29.8616Z" fill="#303030"/>
<path d="M18.8076 5.03286C18.7331 5.04393 18.6577 5.04842 18.5823 5.04628C18.365 5.01049 17.9945 5.22299 17.9584 4.94338C17.9319 4.75612 17.9674 4.56537 18.0596 4.39993C18.1519 4.23448 18.2958 4.10333 18.4697 4.02629C18.7468 3.90326 19.0418 3.8205 19.2468 4.16497C19.3966 4.41773 19.6883 4.71746 19.5712 4.94786C19.4304 5.2297 19.0328 4.93332 18.8076 5.03286Z" fill="#303030"/>
<path d="M21.8676 2.76695C21.8957 2.37887 22.2054 2.12387 22.4577 2.11492C22.7775 2.10485 22.7955 2.53321 22.8676 2.79715C22.9329 3.02866 22.4397 3.63596 22.2674 3.55655C21.9419 3.40669 22.0128 3.01972 21.8676 2.76695Z" fill="#303030"/>
<path d="M16.866 3.81824C17.1149 4.32488 17.6397 4.5329 17.4122 5.08092C17.3356 5.26658 17.3401 5.64013 17.0744 5.52829C16.8086 5.41645 16.4358 5.22296 16.5293 4.8002C16.5912 4.5206 16.7151 4.24994 16.866 3.81824Z" fill="#303030"/>
<path d="M14.59 5.74078C14.51 5.95104 14.4931 6.3492 14.2195 6.29999C13.9458 6.25078 13.5967 5.979 13.68 5.59986C13.7408 5.3225 13.7093 4.94447 14.0246 4.79684C14.1902 4.72303 14.6238 5.45223 14.59 5.74078Z" fill="#303030"/>
<path d="M17.4314 2.63611C17.6645 2.97946 18.1724 3.12933 17.9528 3.65834C17.8706 3.8563 17.8875 4.24438 17.5778 4.1236C17.3109 4.01958 16.9697 3.78807 17.0564 3.3765C17.1135 3.10119 17.2429 2.84577 17.4314 2.63611Z" fill="#303030"/>
<path d="M15.8355 2.125C15.1688 1.74921 15.0416 1.41481 15.3456 0.848892C15.4706 0.614026 15.5709 0.589421 15.8029 0.778432C16.3536 1.23027 16.0923 1.66645 15.8355 2.125Z" fill="#303030"/>
<path d="M14.4684 3.46033C15.241 4.00723 15.241 4.00723 14.8198 4.99031C13.8816 4.24993 14.01 4.56867 14.4684 3.46033Z" fill="#303030"/>
<path d="M18.7682 0C19.0712 0.137565 19.3414 0.399273 19.346 0.643087C19.346 0.924927 19.0385 1.30071 18.7761 1.29848C18.5137 1.29624 18.213 0.921571 18.213 0.639732C18.213 0.389207 18.5171 0.165525 18.7682 0Z" fill="#303030"/>
<path d="M21.4035 1.41145C21.3663 0.976389 21.7256 0.715799 21.9418 0.713562C22.2312 0.713562 22.3101 1.11731 22.3337 1.40921C22.3417 1.49252 22.3327 1.57657 22.3073 1.65634C22.2818 1.7361 22.2404 1.80995 22.1855 1.87344C22.1306 1.93693 22.0634 1.98877 21.9878 2.02584C21.9123 2.06292 21.83 2.08447 21.7459 2.08921C21.4159 2.08585 21.4789 1.64073 21.4035 1.41145Z" fill="#303030"/>
<path d="M20.3989 1.96954C21.3821 2.02882 21.3821 2.02882 21.6693 3.00072C20.7548 3.07565 20.6748 3.01302 20.3989 1.96954Z" fill="#303030"/>
<path d="M20.1354 2.64392C20.5859 3.4872 20.5555 3.65049 20.0126 4.04865C19.7874 4.21865 19.7424 4.10121 19.6748 3.92338C19.4867 3.46372 19.3865 3.02865 19.9608 2.758C20.0213 2.7235 20.0796 2.68541 20.1354 2.64392Z" fill="#303030"/>
<path d="M16.3727 1.57585C16.5552 0.635266 16.6678 0.539083 17.3874 0.559214C17.5901 0.559214 17.6329 0.602832 17.6037 0.80862C17.5203 1.38348 17.2151 1.59375 16.3727 1.57585Z" fill="#303030"/>
<path d="M15.6892 2.81949C15.5022 3.04876 15.6194 3.51402 15.3446 3.50955C15.0698 3.50507 14.6778 3.25902 14.6857 2.88659C14.6925 2.58574 14.7623 2.1037 15.0912 2.09028C15.3322 2.08133 15.5202 2.5287 15.6892 2.81949Z" fill="#303030"/>
<path d="M18.0193 6.79211C17.9191 7.64322 17.7445 7.82888 17.0902 7.91053C16.8379 7.94072 16.7399 7.92618 16.8255 7.63763C16.9674 7.16678 17.1577 6.77981 17.7535 6.83238C17.8432 6.82708 17.9321 6.8136 18.0193 6.79211Z" fill="#303030"/>
<path d="M23.9769 8.4362C24.0479 8.06489 24.2382 7.65331 24.5626 7.71483C24.8869 7.77634 24.8869 8.28857 24.941 8.59837C24.9905 8.87574 24.5693 9.10501 24.3948 9.09942C24.0558 9.09047 24.1008 8.67107 23.9769 8.4362Z" fill="#303030"/>
<path d="M20.6839 4.11353C21.0995 4.88635 21.0589 5.22299 20.542 5.54174C20.3167 5.68154 20.2638 5.57864 20.1917 5.39187C19.9271 4.69734 19.9733 4.57096 20.6839 4.11353Z" fill="#303030"/>
<path d="M15.9245 9.11958C15.7815 9.32313 15.9099 9.77944 15.5574 9.73806C15.4731 9.72795 15.3917 9.70144 15.3178 9.66003C15.2438 9.61862 15.1788 9.56314 15.1265 9.49675C15.0742 9.43036 15.0356 9.35438 15.0129 9.27315C14.9902 9.19193 14.9839 9.10705 14.9943 9.02339C15.0326 8.74826 15.1013 8.31097 15.4009 8.35235C15.6396 8.38814 15.9493 8.72366 15.9245 9.11958Z" fill="#303030"/>
<path d="M23.4454 6.99008C23.5152 6.63666 23.7967 6.31903 24.0749 6.31903C24.3339 6.31903 24.388 6.78541 24.3936 7.04935C24.4004 7.37705 24.0997 7.7204 23.8407 7.7204C23.5163 7.71705 23.5535 7.26968 23.4454 6.99008Z" fill="#303030"/>
<path d="M23.2505 6.38836C22.8 5.63008 22.8338 5.38179 23.3462 5.01048C23.5816 4.83824 23.6526 4.94673 23.737 5.14245C23.9882 5.73297 23.9465 5.85488 23.2505 6.38836Z" fill="#303030"/>
<path d="M19.6399 1.28394C19.9462 1.83643 20.0386 2.33077 19.4428 2.73116C19.2716 2.843 19.2176 2.83741 19.1354 2.64057C18.8583 1.99972 18.8865 1.89459 19.6399 1.28394Z" fill="#303030"/>
<path d="M15.527 6.22842C15.4143 7.02584 15.3682 7.06722 14.3749 7.27972C14.233 6.57512 14.7274 6.05954 15.527 6.22842Z" fill="#303030"/>
<path d="M21.9193 6.20941C22.8022 6.20941 22.9903 6.33691 23.175 6.95987C23.2437 7.1925 23.1806 7.25289 22.9498 7.25177C22.3844 7.2473 22.1558 7.02809 21.9193 6.20941Z" fill="#303030"/>
<path d="M20.8585 3.27582C21.2819 3.43575 21.6468 3.40891 21.8991 3.63035C22.0759 3.78693 22.1007 4.06094 22.1131 4.3014C22.1209 4.43785 21.9903 4.42331 21.9092 4.40542C21.6355 4.34502 21.2808 4.46693 21.1276 4.11798C21.0274 3.88535 20.9722 3.63595 20.8585 3.27582Z" fill="#303030"/>
<path d="M22.4633 7.65555C23.4071 7.61193 23.5129 7.6947 23.728 8.60508C22.8012 8.68002 22.7494 8.63752 22.4633 7.65555Z" fill="#303030"/>
<path d="M25.0986 9.14081C25.5491 9.87672 25.5333 10.087 25.0254 10.4639C24.8463 10.5959 24.7731 10.663 24.6447 10.3722C24.3891 9.79731 24.5614 9.42936 25.0986 9.14081Z" fill="#303030"/>
<path d="M12.912 7.65106C13.1811 7.97316 13.6812 8.10514 13.5044 8.62744C13.4379 8.82428 13.4537 9.23585 13.1789 9.14526C12.9041 9.05467 12.5313 8.79967 12.6451 8.36237C12.721 8.12066 12.8101 7.88321 12.912 7.65106Z" fill="#303030"/>
<path d="M20.5803 6.33135C20.5442 5.88399 20.7852 5.54846 21.104 5.54846C21.3788 5.54846 21.4655 5.99583 21.4869 6.25977C21.5139 6.5953 21.1817 6.89839 20.9238 6.92187C20.6096 6.95207 20.6231 6.54385 20.5803 6.33135Z" fill="#303030"/>
<path d="M16.6284 6.97777C16.3874 6.72837 15.9527 6.65343 16.0281 6.22955C16.0721 5.9712 16.1149 5.67035 16.393 5.52495C16.4809 5.48022 17.0305 6.15462 16.9787 6.26311C16.8694 6.49574 16.866 6.78988 16.6284 6.97777Z" fill="#303030"/>
<path d="M14.0776 7.13773C13.9953 7.37148 13.9796 7.75286 13.6811 7.707C13.5355 7.67449 13.4056 7.59289 13.3136 7.47607C13.2216 7.35924 13.1732 7.2144 13.1766 7.06615C13.2025 6.79885 13.1946 6.32017 13.4919 6.33023C13.8433 6.34142 13.9897 6.77313 14.0776 7.13773Z" fill="#303030"/>
<path d="M16.125 2.99173C15.8998 3.05213 15.8817 2.92239 15.8998 2.7468C15.9347 2.28154 16.5 1.86549 16.9764 1.94714C17.1532 1.97733 17.1071 2.07575 17.089 2.18648C17.0203 2.70206 16.6735 2.99509 16.125 2.99173Z" fill="#303030"/>
<path d="M20.6703 7.8714C20.0746 7.85239 19.5993 7.75956 19.4687 7.10529C19.4236 6.88161 19.4394 6.81786 19.6883 6.82457C20.355 6.84134 20.5363 7.0147 20.6703 7.8714Z" fill="#303030"/>
<path d="M19.9203 0.612919C20.7796 0.572656 20.9339 0.677787 21.0972 1.33541C21.167 1.6139 21.0791 1.62396 20.8336 1.61725C20.1827 1.60271 19.9338 1.23587 19.9203 0.612919Z" fill="#303030"/>
<path d="M21.4418 4.83711C22.3101 4.78679 22.4677 4.88409 22.6536 5.52717C22.7279 5.78105 22.7256 5.89737 22.3945 5.84928C21.7886 5.76316 21.4688 5.44553 21.4418 4.83711Z" fill="#303030"/>
<path d="M16.0822 4.82595C15.8255 5.78555 15.7444 5.84482 14.8051 5.79785C15.0754 4.86621 15.1869 4.78121 16.0822 4.82595Z" fill="#303030"/>
<path d="M22.7212 4.93328C22.309 4.11125 22.3236 3.99493 22.7966 3.60125C22.9825 3.44579 23.1075 3.48941 23.1784 3.67059C23.3992 4.24993 23.5985 4.39533 22.7212 4.93328Z" fill="#303030"/>
<path d="M22.5658 9.09266C22.5241 9.45391 22.1998 9.71897 21.9712 9.72009C21.6851 9.72009 21.7144 9.26042 21.5635 9.0222C21.5094 8.9372 22.1266 8.26951 22.193 8.3176C22.4599 8.4999 22.4498 8.82312 22.5658 9.09266Z" fill="#303030"/>
<path d="M18.5666 5.46118C18.4146 6.38499 18.3875 6.40848 17.4077 6.48229C17.4798 5.61217 17.5958 5.51039 18.5666 5.46118Z" fill="#303030"/>
<path d="M15.616 4.4099C15.366 4.45911 15.2837 4.35174 15.3671 4.10793C15.3975 4.02069 15.4369 3.93681 15.4718 3.85293C15.6554 3.41451 16.0496 3.38655 16.4415 3.36978C16.6138 3.36195 16.5969 3.49392 16.5631 3.60017C16.4392 3.98938 16.3255 4.39312 15.795 4.39984C15.7398 4.40095 15.6835 4.40655 15.616 4.4099Z" fill="#303030"/>
<path d="M13.7859 8.63747C13.8985 8.07827 14.0787 7.64432 14.7297 7.6309C14.9696 7.62419 15.0675 7.6488 14.9943 7.92616C14.8175 8.58043 14.7601 8.6274 13.7859 8.63747Z" fill="#303030"/>
<path d="M15.8524 6.86035C16.0777 7.17015 16.5281 7.26634 16.4471 7.7137C16.4043 7.94521 16.4155 8.35902 16.1092 8.30198C15.9457 8.26824 15.7993 8.17854 15.6955 8.04854C15.5918 7.91854 15.5373 7.75649 15.5416 7.59067C15.5416 7.33232 15.7116 7.14666 15.8524 6.86035Z" fill="#303030"/>
<path d="M20.1321 6.3805C19.2559 6.39504 19.2559 6.39504 18.8606 5.47235C19.7323 5.29453 19.8212 5.35268 20.1321 6.3805Z" fill="#303030"/>
<path d="M12.7746 10.6417C12.4153 10.267 11.7914 10.1183 12.2216 9.47968C12.3027 9.36113 12.2858 9.00995 12.4468 9.15087C12.645 9.32087 13.0617 9.38797 12.9987 9.78165C12.9626 10.0355 12.8725 10.2827 12.7746 10.6417Z" fill="#303030"/>
<path d="M18.1499 2.86201C17.9247 2.41465 17.3762 2.24688 17.6758 1.72459C17.7636 1.57025 17.7614 1.20788 17.9877 1.32308C18.2141 1.43827 18.588 1.63176 18.49 2.02879C18.4281 2.27373 18.2997 2.50188 18.1499 2.86201Z" fill="#303030"/>
<path d="M21.6232 6.87933C21.6727 7.27972 22.2989 7.57387 21.8158 7.99774C21.6671 8.1286 21.55 8.48425 21.3382 8.25722C21.1603 8.06709 20.9137 7.7461 21.1524 7.41282C21.2998 7.22689 21.4569 7.04882 21.6232 6.87933Z" fill="#303030"/>
</g>
<defs>
<clipPath id="clip0">
<rect width="37.4857" height="32" fill="white"/>
</clipPath>
</defs>
</svg>
