<svg width="32" height="28" viewBox="0 0 32 28" fill="none" xmlns="http://www.w3.org/2000/svg">
<g clip-path="url(#clip0)">
<path d="M18.1856 22.4602C17.6663 21.5467 17.1404 20.6372 16.633 19.7177C16.5329 19.5364 16.4192 19.4838 16.2219 19.4843C13.8179 19.4903 11.4139 19.4914 9.00991 19.4878H8.65232C8.72394 19.3586 8.76601 19.2794 8.81109 19.2023C11.8852 13.9756 14.9613 8.74983 18.0394 3.52484C18.1345 3.36307 18.1486 3.24888 18.0459 3.0791C17.4704 2.13053 16.9115 1.17194 16.3461 0.217861C16.3055 0.149748 16.2569 0.0866435 16.1958 0L2.78059 22.6986H18.3108C18.2612 22.6039 18.2257 22.5308 18.1856 22.4602ZM5.60928 21.0504C5.01129 21.3919 4.40729 21.724 3.74119 22.0951L16.1412 0.951576C16.155 0.995377 16.1648 1.04029 16.1708 1.0858C16.1708 1.71985 16.1778 2.3544 16.1653 2.98895C16.1548 3.11925 16.1129 3.24506 16.0431 3.35556C13.6992 7.34884 11.3528 11.3406 9.0039 15.3309C7.92144 17.1719 6.83865 19.013 5.75552 20.854C5.71395 20.9257 5.67239 21.0128 5.60928 21.0504ZM15.5032 20.9502C15.4596 21.0158 15.3199 21.0454 15.2247 21.0459C13.6812 21.0519 12.1376 21.0499 10.594 21.0504H6.043C6.1657 20.9707 6.2228 20.9307 6.2829 20.8961C6.85434 20.5686 7.42479 20.2395 7.99924 19.9175C8.07195 19.8786 8.15319 19.8585 8.23563 19.8589C10.8139 19.8612 13.392 19.8662 15.9699 19.8739C16.0105 19.8739 16.0511 19.8829 16.1387 19.8934C15.9154 20.2716 15.7205 20.6202 15.5007 20.9522L15.5032 20.9502Z" fill="#303030"/>
<path d="M18.9849 4.76086L11.1554 17.9447C12.4155 17.9447 13.617 17.9392 14.8185 17.9502C15.0238 17.9502 15.127 17.8801 15.2246 17.7098C16.4036 15.6561 17.5871 13.6043 18.775 11.5546C18.8151 11.4855 18.8602 11.4184 18.9203 11.3227C18.9834 11.4229 19.033 11.497 19.0775 11.5731C22.0207 16.6816 24.9606 21.7931 27.8971 26.9075C28.1285 27.3127 28.3614 27.478 28.8367 27.4585C29.8689 27.4154 30.9046 27.4449 31.9999 27.4449L18.9849 4.76086ZM18.9213 7.72427C18.9177 7.87186 18.878 8.01633 18.8056 8.14497C17.239 10.8114 15.6677 13.4753 14.0918 16.1367C14.0467 16.2133 13.9916 16.3015 13.919 16.3425C13.339 16.6671 12.7531 16.9816 12.1691 17.2996C12.1596 17.2876 12.1501 17.2761 12.14 17.2646L18.9012 5.79908C18.9128 5.90826 18.9243 5.96536 18.9243 6.02295C18.9273 6.58989 18.9343 7.15733 18.9213 7.72427ZM28.9935 26.0086C28.7756 26.2705 28.5733 26.5444 28.3344 26.8525C27.9147 26.1137 27.519 25.4186 27.1244 24.7229C24.5267 20.146 21.9311 15.5678 19.3375 10.9882C19.242 10.8072 19.1896 10.6067 19.1842 10.4022C19.1642 9.84428 19.1772 9.28486 19.1772 8.67785C19.2195 8.72747 19.2591 8.7793 19.2959 8.83311C22.5329 14.4481 25.7698 20.0627 29.0065 25.677C29.0776 25.8002 29.0921 25.8929 28.9935 26.0086Z" fill="#303030"/>
<path d="M18.9905 14.3117C18.3203 15.3594 17.6783 16.3651 17.0347 17.3703L21.0008 24.2522H20.6342C14.4746 24.2522 8.31444 24.2503 2.15357 24.2467C1.92168 24.2467 1.79998 24.3213 1.68729 24.5186C1.16894 25.4311 0.631045 26.3341 0.100166 27.2411C0.0641062 27.3027 0.0370614 27.3693 0 27.447H26.544L18.9905 14.3117ZM18.8056 15.2167V17.1785H17.5856L18.8056 15.2167ZM20.9752 23.4488C19.943 21.5717 18.8622 19.7217 17.8015 17.8601C17.7614 17.79 17.7279 17.7153 17.6703 17.6007C18.0749 17.6007 18.4335 17.5891 18.7906 17.6092C18.8718 17.6137 18.9739 17.7093 19.021 17.791C20.2113 19.8277 21.3979 21.8667 22.5809 23.9081C22.848 24.3692 23.1163 24.8303 23.3857 25.2914C23.4077 25.3403 23.4268 25.3905 23.4428 25.4416C23.0136 25.1847 22.652 24.9348 22.2619 24.7405C21.6794 24.4535 21.2898 24.0213 20.9752 23.4488ZM0.91201 26.9046L0.87545 26.868L2.13153 24.7981L2.716 25.8468L0.91201 26.9046ZM22.7542 25.7927C16.2865 25.7927 9.81876 25.7946 3.35105 25.7982C3.1377 25.7982 3.017 25.7306 2.92084 25.5443C2.77059 25.2573 2.5988 24.9839 2.40298 24.6483H2.76107C8.79473 24.6376 14.8284 24.6285 20.8621 24.6208C20.9929 24.6229 21.1213 24.6573 21.2357 24.7209C21.8206 25.0535 22.3976 25.3991 23.0412 25.7777C22.8959 25.7832 22.8253 25.7927 22.7542 25.7927Z" fill="#303030"/>
</g>
<defs>
<clipPath id="clip0">
<rect width="32" height="27.4605" fill="white"/>
</clipPath>
</defs>
</svg>
