<svg width="37" height="32" viewBox="0 0 37 32" fill="none" xmlns="http://www.w3.org/2000/svg">
<g clip-path="url(#clip0)">
<path d="M3.96163 22.276C6.68634 22.6098 9.2314 22.1783 11.7858 21.5064C11.6802 21.1625 11.5602 21.0507 11.1992 21.0891C9.44257 21.2961 7.68342 21.5181 5.92002 21.6132C4.47251 21.6917 3.2268 21.1642 2.31743 19.9956C1.6388 19.1301 1.36122 18.1017 0.988275 16.9574C3.98206 18.9197 7.25002 18.7353 10.5248 18.8229C10.5018 18.58 10.4899 18.4598 10.4797 18.3513C9.41277 18.3062 8.36375 18.3012 7.3241 18.2077C5.81188 18.0725 4.3201 17.843 2.94156 17.1368C1.06831 16.177 0.20577 14.6328 0.113811 12.6162C0.104444 12.4084 0.103593 12.1989 0.104444 11.991C0.105964 11.9667 0.11553 11.9436 0.131692 11.9251C0.911643 12.4526 1.65753 13.0302 2.47069 13.4926C4.5849 14.6904 6.88559 15.3581 9.30293 15.6461C9.49962 15.6703 9.69801 15.7296 9.8913 15.7137C10.0071 15.7054 10.1152 15.5877 10.2268 15.5184C10.1255 15.4174 10.0386 15.2496 9.9211 15.2254C9.13178 15.066 8.3033 15.0209 7.54804 14.7797C6.16439 14.3398 4.77649 13.8724 3.46522 13.2631C1.93256 12.5511 0.768595 11.4184 0.238977 9.77996C-0.135671 8.62392 -0.016465 7.45871 0.214285 6.25593C2.99094 9.59466 6.5731 11.5077 10.73 12.516C10.7675 12.452 10.8007 12.3856 10.8296 12.3174C10.8526 12.2398 10.8645 12.158 10.8833 12.067C10.2191 11.8299 9.56433 11.6071 8.91721 11.3625C6.70337 10.5278 4.72199 9.33006 3.11696 7.60061C1.58942 5.95211 1.16623 3.06662 2.16416 1.23533C2.39917 0.804633 2.74572 0.43153 3.06417 0C5.57176 4.8278 9.43065 8.2141 14.038 10.9126C12.7608 12.607 12.4202 14.435 13.1235 16.404C13.5841 17.6902 14.6638 18.8897 15.6617 19.292C15.2973 16.9858 16.205 15.2855 18.2851 14.0652C17.5188 13.8774 16.8572 13.6479 16.7525 12.8132C16.6861 12.2974 16.7721 11.8266 17.122 11.3834C17.8551 12.3166 18.9144 12.8023 19.828 13.4701C20.3678 13.8657 20.8498 14.344 21.3215 14.8198C21.5046 15.0034 21.5872 15.2822 21.7379 15.5585C21.3351 15.5585 21.0226 15.5251 20.7161 15.5643C19.524 15.7162 18.8165 16.9323 19.2405 18.1126C19.3398 18.3843 19.4843 18.6381 19.6679 18.8638C20.2767 19.615 20.82 19.6851 21.6263 19.1609C24.3689 17.3747 25.0475 13.8624 23.159 11.2106C23.1036 11.1321 23.0517 11.0512 22.964 10.921C25.1923 9.53957 27.3874 8.13731 29.2044 6.25593C31.0215 4.37456 32.7985 2.50404 33.8501 0.00751213C33.9816 0.111712 34.107 0.223184 34.2256 0.341385C35.5428 1.84381 35.6058 3.56158 35.1086 5.37034C34.6471 7.04972 33.4729 8.18906 32.1037 9.18817C30.4476 10.3968 28.6169 11.2557 26.6594 11.8733C26.4891 11.9284 26.3188 11.996 26.123 12.0653C26.1655 12.2114 26.2038 12.3399 26.2405 12.4643C29.1619 11.9635 33.9386 9.84757 36.7732 6.22338C36.8209 6.46293 36.8677 6.65408 36.8958 6.84856C37.3028 9.66895 36.5552 11.5603 33.7675 13.1479C31.7435 14.2998 29.5101 14.96 27.1703 15.202C26.8646 15.2338 26.7164 15.3373 26.8757 15.7454C30.5847 15.3473 34.034 14.3081 36.9009 11.7932C37.2287 13.7823 36.1346 15.9741 34.3567 16.9766C33.1647 17.6518 31.8679 17.984 30.52 18.1067C29.2939 18.2194 28.0584 18.2361 26.8288 18.3112C26.7147 18.3179 26.5393 18.4256 26.5112 18.5207C26.4363 18.7711 26.6602 18.7853 26.8263 18.7787C28.2125 18.7252 29.6004 18.6793 30.9849 18.5934C31.5918 18.5461 32.195 18.4608 32.7909 18.3379C33.9472 18.1159 34.9894 17.6251 36.0265 16.8973C35.5079 18.5808 35.0583 20.1809 33.4184 21.0924C32.6973 21.4934 31.8716 21.6771 31.0445 21.6207C29.4914 21.5248 27.9443 21.3353 26.3937 21.1825C26.2107 21.165 26.0276 21.1416 25.8462 21.1124C25.4418 21.0465 25.4426 21.0448 25.2068 21.4914C27.7501 22.1741 30.2935 22.5956 32.9228 22.281C32.4162 23.5464 30.7303 24.6815 29.3594 24.7249C27.9596 24.7692 26.6764 24.3602 25.4188 23.8285C24.9888 23.6473 24.5571 23.4671 24.1458 23.2517C23.8623 23.1031 23.6699 23.1382 23.4749 23.4587C25.2987 24.6798 27.3065 25.3993 29.5748 25.6881C28.4483 26.8909 27.149 27.3433 25.5652 27.0579C24.0471 26.7849 22.9257 25.9002 21.9039 24.8251C21.6817 24.9745 21.4535 25.0755 21.668 25.3785C22.6898 26.8392 24.145 27.6572 25.8275 28.1179C24.5018 29.2397 22.8567 29.5903 21.5769 28.3641C20.9928 27.8049 20.493 27.1614 19.9378 26.5362C19.6543 26.6405 19.5973 26.85 19.7676 27.1614C20.3883 28.3366 21.1836 29.3716 22.379 30.2564C21.7208 30.6345 21.1461 31.0418 20.5109 31.3147C18.3822 32.2329 18.6206 32.2387 16.3608 31.2521C15.8738 31.0393 15.4344 30.7204 14.978 30.4425C14.8815 30.3691 14.7923 30.2869 14.7115 30.1971C15.8184 29.3816 16.6137 28.3541 17.2353 27.1822C17.3902 26.8901 17.4056 26.6589 17.0088 26.5145C16.7763 26.8275 16.572 27.1822 16.291 27.4618C15.8139 27.9515 15.2998 28.4051 14.7532 28.819C14.2091 29.2172 13.5424 29.2405 12.9191 29.0252C12.2959 28.8098 11.6956 28.4952 11.1123 28.1905C12.7982 27.683 14.2202 26.8976 15.2556 25.5129C15.4693 25.2257 15.4838 25.0212 15.1704 24.8635C14.5872 25.3342 14.0456 25.8501 13.4275 26.2541C12.1136 27.1121 10.6806 27.431 9.142 26.8926C8.49147 26.6656 7.94993 26.2641 7.43905 25.6948C9.62326 25.4385 11.7137 24.6756 13.5373 23.4696C13.3585 23.1549 13.172 23.1081 12.8612 23.2559C11.5474 23.8819 10.2217 24.477 8.74862 24.6748C7.33772 24.8635 6.06051 24.6415 5.07025 23.5322C4.71433 23.1365 4.36778 22.7375 3.96163 22.276Z" fill="#303030"/>
</g>
<defs>
<clipPath id="clip0">
<rect width="37" height="32" fill="white"/>
</clipPath>
</defs>
</svg>
