<svg width="22" height="22" viewBox="0 0 22 22" fill="none" xmlns="http://www.w3.org/2000/svg">
<path d="M4.91975 6.875H0V22H4.91975V6.875Z" fill="black"/>
<path d="M18.3205 7.05238C18.2683 7.03588 18.2188 7.018 18.1637 7.00287C18.0977 6.98775 18.0317 6.97538 17.9644 6.96438C17.7031 6.91213 17.4171 6.875 17.0816 6.875C14.2134 6.875 12.3942 8.96088 11.7948 9.76663V6.875H6.875V22H11.7948V13.75C11.7948 13.75 15.5128 8.57175 17.0816 12.375C17.0816 15.7699 17.0816 22 17.0816 22H22V11.7934C22 9.50812 20.4339 7.60375 18.3205 7.05238Z" fill="black"/>
<path d="M2.40625 4.8125C3.73519 4.8125 4.8125 3.73519 4.8125 2.40625C4.8125 1.07731 3.73519 0 2.40625 0C1.07731 0 0 1.07731 0 2.40625C0 3.73519 1.07731 4.8125 2.40625 4.8125Z" fill="black"/>
</svg>
