<svg width="126" height="86" viewBox="0 0 126 86" fill="none" xmlns="http://www.w3.org/2000/svg">
<path d="M0 86L7.7654 64.4433V55.9243L10.7902 45.1514L7.61427 37.934V33.7245L3.78269 42.8843L0.857884 53.0675L0 53.0186L1.31127 42.5439L7.46314 27.6618L27.0278 9.27102L50.7263 8.61913L73.8202 2.75661L76.9984 0L102.41 4.76121L110.58 17.3384L114.665 31.9202L115.119 38.7861L126 46.2038V47.1049L115.774 44.148L116.832 75.6677L111.789 83.4859L111.085 83.3858L107.858 78.876L109.622 72.0612L103.673 56.0755L101.908 40.5415L90.4112 32.6722L90.0578 40.5415L89.251 40.6394L85.1661 37.9851L82.8458 50.3109L92.6803 68.3012L93.1826 77.2718L96.9653 81.4324L97.0164 82.5337L94.6961 86H82.5435L80.3766 82.8852L82.6458 76.2195L80.3255 69.3046L76.5428 66.7482L72.7623 81.2321L75.9383 86H59.5007L62.87 77.8726L64.039 58.029L62.87 57.3771L62.3233 54.5715L61.2653 54.0709L49.1638 59.5819L35.5999 58.9323L33.7331 62.9393L37.5669 77.6723L42.6075 84.8898V86H24.6564L25.8165 80.5291L19.918 66.3477L18.0511 67.7516L14.624 80.4289L15.8842 86H0Z" fill="#303030"/>
<path d="M13.3505 71.5317L6.13852 76.9225L3.92047 83.5371H12.3637L12.426 82.6805L11.5014 81.1476L14.1506 71.8988L13.3505 71.5317Z" fill="white"/>
<path d="M12.7349 50.0306L10.6391 56.2179V65.222L8.54327 70.1834V71.0422L18.589 63.6913V62.4654L12.7349 50.0306Z" fill="white"/>
<path d="M13.1661 42.2524L32.0884 58.3004L27.4034 75.2072H26.6033L13.1661 43.4761V42.2524Z" fill="white"/>
<path d="M10.4546 29.3883V36.6169L30.7327 52.9096L24.7542 33.1861L10.4546 29.3883Z" fill="white"/>
<path d="M29.0681 11.9319L12.5505 26.3268V26.9387L24.2608 29.8176L29.5614 15.178V11.9319H29.0681Z" fill="white"/>
<path d="M33.822 11.6516H46.0746L29.3214 26.6851L33.822 11.6516Z" fill="white"/>
<path d="M50.7262 11.9319L30.7327 29.0145L31.1372 29.3882L59.7651 24.7672V23.7527L50.7262 11.9319Z" fill="white"/>
<path d="M60.9764 27.7752L59.274 37.133L54.6223 45.9279H52.9198L30.7327 33.1483V32.4341L60.9764 27.7752Z" fill="white"/>
<path d="M28.4146 34.877L52.0131 48.4821V50.0239L48.1548 56.4894L35.1088 55.8108L28.4146 34.877Z" fill="white"/>
<path d="M59.3118 43.2581L53.1466 53.8195V54.3468L60.6342 51.1519L59.3118 43.2581Z" fill="white"/>
<path d="M31.595 70.5127L28.5813 81.8328V83.0854H36.9602V81.8662L34.5421 78.6424L32.7707 70.5127H31.595Z" fill="white"/>
<path d="M66.8105 60.8145L65.9193 74.5442L73.8825 65.5157V64.9105L67.4661 60.5831L66.8105 60.8145Z" fill="white"/>
<path d="M71.211 73.6142L64.2079 82.013V83.6839H69.8997V82.5114L69.3885 81.8017L71.5688 74.1637L71.211 73.6142Z" fill="white"/>
<path d="M83.6281 69.6806L87.8064 69.8297V70.3636L85.0305 73.3605H84.3726L83.6281 69.6806Z" fill="white"/>
<path d="M90.2778 73.6142V78.3776L93.2759 82.2555L92.8248 83.1143H83.9948L83.6281 82.2155L85.1438 78.3643L89.1688 73.8878L90.2778 73.6142Z" fill="white"/>
<path d="M67.8884 56.8654L80.2966 52.538L87.8064 66.2543L87.5264 66.7838L81.4879 66.5814L67.8884 56.8654Z" fill="white"/>
<path d="M61.8943 39.923L81.6101 37.8005L79.9277 48.8024L67.0283 54.0064H65.3036L61.8943 39.923Z" fill="white"/>
<path d="M65.3436 25.1855L79.6387 34.3297L79.2298 34.877L62.0588 36.8505L65.3436 25.1855Z" fill="white"/>
<path d="M67.6861 6.92157L54.1156 10.2121V11.0954L61.8943 21.9327H62.6366L62.6766 20.0861L59.4473 14.426L67.6861 6.92157Z" fill="white"/>
<path d="M77.3962 3.33508L64.0412 14.426L63.5745 15.7587L67.3016 22.9362L87.0263 35.9005L88.3442 12.8264L77.3962 3.33508Z" fill="white"/>
<path d="M82.648 3.71774L97.2009 6.4877L96.9431 7.3376L92.5492 9.89397L89.7644 10.5125L82.7769 4.50535L82.648 3.71774Z" fill="white"/>
<path d="M101.392 8.52347L105.622 14.6952L105.12 15.1958L94.9139 12.4615V11.7273L101.392 8.52347Z" fill="white"/>
<path d="M91.3891 14.5284L105.22 18.4998V19.0337L91.3891 27.3058V14.5284Z" fill="white"/>
<path d="M106.998 21.5679L108.778 20.2329L111.967 32.6277V36.5301L111.06 36.2631L110.254 35.2285L106.998 21.5679Z" fill="white"/>
<path d="M104.146 23.6859L107.233 35.9004L104.313 37.7315H102.635L92.3292 30.425L103.239 23.4857L104.146 23.6859Z" fill="white"/>
<path d="M109.636 38.6682C109.636 38.6682 110.418 38.9174 110.489 38.9685L111.876 40.0476L111.769 40.7351L109.849 40.1344L109.031 39.4669L109.102 38.6704L109.636 38.6682Z" fill="white"/>
<path d="M105.295 41.298C105.384 41.358 111.963 43.4539 111.963 43.4539V44.2014L106.375 51.8082L105.984 51.2987L105.295 41.298Z" fill="white"/>
<path d="M113.056 48.1328V61.7156L107.889 56.298V55.4081L113.056 48.1328Z" fill="white"/>
<path d="M109.476 62.2807L113.83 66.9685V74.6487L111.829 78.362H111.056L112.643 73.6119C112.643 73.6119 112.643 72.0545 112.601 71.901C112.558 71.7475 109.476 62.9637 109.476 62.9637V62.2807Z" fill="white"/>
</svg>
