<svg width="120" height="20" viewBox="0 0 120 20" fill="none" xmlns="http://www.w3.org/2000/svg">
<path d="M0 20L1.84891 14.9868V13.0056L2.5691 10.5003L1.81292 8.82186V7.84291L0.90064 9.97309L0.204258 12.3413L0 12.3299L0.312208 9.89393L1.77694 6.43297L6.43519 2.15605L12.0777 2.00445L17.5762 0.641072L18.333 0L24.3834 1.10726L26.3286 4.03218L27.3013 7.42329L27.4092 9.02002L30 10.7451V10.9546L27.5653 10.267L27.8172 17.5971L26.6165 19.4153L26.4488 19.392L25.6804 18.3432L26.1006 16.7584L24.684 13.0408L24.2638 9.42826L21.5265 7.59818L21.4423 9.42826L21.2502 9.45103L20.2776 8.83376L19.7252 11.7002L22.0667 15.884L22.1863 17.9702L23.087 18.9378L23.0991 19.1939L22.5467 20H19.6532L19.1373 19.2756L19.6776 17.7255L19.1251 16.1173L18.2245 15.5228L17.3244 18.8912L18.0805 20H14.1668L14.969 18.1099L15.2474 13.4951L14.969 13.3435L14.8389 12.6911L14.587 12.5746L11.7057 13.8563L8.47618 13.7052L8.03168 14.637L8.94449 18.0633L10.1446 19.7418V20H5.87057L6.14679 18.7277L4.74238 15.4297L4.29789 15.7562L3.48191 18.7044L3.78195 20H0Z" fill="#2979FF"/>
<path d="M3.1787 16.6353L1.46155 17.889L0.933445 19.4272H2.94375L2.95856 19.228L2.73843 18.8715L3.3692 16.7207L3.1787 16.6353Z" fill="#2979FF"/>
<path d="M3.03212 11.635L2.53312 13.074V15.1679L2.03411 16.3217V16.5215L4.42594 14.8119V14.5268L3.03212 11.635Z" fill="#2979FF"/>
<path d="M3.13478 9.82614L7.6401 13.5582L6.52462 17.49H6.33412L3.13478 10.1107V9.82614Z" fill="#2979FF"/>
<path d="M2.4892 6.83447V8.51554L7.31731 12.3045L5.89386 7.71769L2.4892 6.83447Z" fill="#2979FF"/>
<path d="M6.92097 2.77487L2.9882 6.12252V6.26481L5.77638 6.93434L7.03844 3.52977V2.77487H6.92097Z" fill="#2979FF"/>
<path d="M8.05285 2.70969H10.9701L6.98129 6.20583L8.05285 2.70969Z" fill="#2979FF"/>
<path d="M12.0777 2.77487L7.3173 6.74755L7.4136 6.83448L14.2298 5.75981V5.52388L12.0777 2.77487Z" fill="#2979FF"/>
<path d="M14.5182 6.45935L14.1128 8.63558L13.0053 10.6809H12.6L7.3173 7.7089V7.54281L14.5182 6.45935Z" fill="#2979FF"/>
<path d="M6.76539 8.11093L12.3841 11.2749V11.6335L11.4654 13.1371L8.35924 12.9793L6.76539 8.11093Z" fill="#2979FF"/>
<path d="M14.1218 10.06L12.6539 12.5162V12.6388L14.4367 11.8958L14.1218 10.06Z" fill="#2979FF"/>
<path d="M7.52263 16.3983L6.80508 19.0309V19.3222H8.80004V19.0387L8.22431 18.2889L7.80256 16.3983H7.52263Z" fill="#2979FF"/>
<path d="M15.9073 14.1429L15.6951 17.3358L17.5911 15.2362V15.0954L16.0634 14.0891L15.9073 14.1429Z" fill="#2979FF"/>
<path d="M16.955 17.1196L15.2876 19.0728V19.4614H16.6428V19.1887L16.5211 19.0236L17.0402 17.2474L16.955 17.1196Z" fill="#2979FF"/>
<path d="M19.9114 16.2048L20.9063 16.2395V16.3636L20.2454 17.0606H20.0887L19.9114 16.2048Z" fill="#2979FF"/>
<path d="M21.4947 17.1196V18.2273L22.2086 19.1292L22.1011 19.3289H19.9988L19.9114 19.1199L20.2723 18.2242L21.2307 17.1832L21.4947 17.1196Z" fill="#2979FF"/>
<path d="M16.1639 13.2245L19.1182 12.2181L20.9063 15.408L20.8396 15.5311L19.4019 15.484L16.1639 13.2245Z" fill="#2979FF"/>
<path d="M14.7367 9.28441L19.431 8.7908L19.0304 11.3494L15.9591 12.5596H15.5485L14.7367 9.28441Z" fill="#2979FF"/>
<path d="M15.558 5.85709L18.9616 7.98365L18.8642 8.11093L14.7759 8.56987L15.558 5.85709Z" fill="#2979FF"/>
<path d="M16.1157 1.60965L12.8847 2.3749V2.58031L14.7367 5.10062H14.9135L14.923 4.67117L14.1541 3.35488L16.1157 1.60965Z" fill="#2979FF"/>
<path d="M18.4277 0.775604L15.2479 3.3549L15.1368 3.66483L16.0242 5.334L20.7206 8.34895L21.0343 2.98288L18.4277 0.775604Z" fill="#2979FF"/>
<path d="M19.6781 0.864594L23.1431 1.50877L23.0817 1.70642L22.0355 2.30093L21.3725 2.44477L19.7088 1.04776L19.6781 0.864594Z" fill="#2979FF"/>
<path d="M24.1411 1.98221L25.1481 3.41751L25.0285 3.53392L22.5986 2.89803V2.72728L24.1411 1.98221Z" fill="#2979FF"/>
<path d="M21.7593 3.37869L25.0523 4.30227V4.42645L21.7593 6.35019V3.37869Z" fill="#2979FF"/>
<path d="M25.4756 5.01577L25.8995 4.70532L26.6589 7.58782V8.49536L26.443 8.43327L26.2509 8.19267L25.4756 5.01577Z" fill="#2979FF"/>
<path d="M24.7967 5.50836L25.5317 8.34895L24.8364 8.77477H24.4369L21.9831 7.0756L24.5808 5.46179L24.7967 5.50836Z" fill="#2979FF"/>
<path d="M26.1038 8.99261C26.1038 8.99261 26.29 9.05056 26.307 9.06246L26.6372 9.31341L26.6118 9.47329L26.1546 9.33359L25.9598 9.17836L25.9768 8.99313L26.1038 8.99261Z" fill="#2979FF"/>
<path d="M25.0703 9.60419C25.0915 9.61816 26.6578 10.1056 26.6578 10.1056V10.2794L25.3275 12.0484L25.2343 11.93L25.0703 9.60419Z" fill="#2979FF"/>
<path d="M26.9182 11.1937V14.3525L25.6878 13.0926V12.8856L26.9182 11.1937Z" fill="#2979FF"/>
<path d="M26.0657 14.4839L27.1023 15.5741V17.3602L26.626 18.2237H26.4419L26.8197 17.1191C26.8197 17.1191 26.8197 16.7569 26.8097 16.7212C26.7996 16.6855 26.0657 14.6427 26.0657 14.6427V14.4839Z" fill="#2979FF"/>
<path d="M40.5208 17.7917C40.3819 17.7917 40.2569 17.7431 40.1458 17.6458C40.0486 17.5347 40 17.4097 40 17.2708V3.72917C40 3.57639 40.0486 3.45139 40.1458 3.35417C40.2569 3.25694 40.3819 3.20833 40.5208 3.20833H46.3542C48.1319 3.20833 49.5278 3.61806 50.5417 4.4375C51.5694 5.25694 52.0833 6.45139 52.0833 8.02083C52.0833 9.57639 51.5764 10.75 50.5625 11.5417C49.5486 12.3194 48.1458 12.7083 46.3542 12.7083H43.875V17.2708C43.875 17.4236 43.8194 17.5486 43.7083 17.6458C43.6111 17.7431 43.4861 17.7917 43.3333 17.7917H40.5208ZM46.25 9.83333C46.8611 9.83333 47.3403 9.68056 47.6875 9.375C48.0347 9.05556 48.2083 8.59028 48.2083 7.97917C48.2083 7.40972 48.0417 6.95833 47.7083 6.625C47.3889 6.27778 46.9028 6.10417 46.25 6.10417H43.8125V9.83333H46.25Z" fill="#303030"/>
<path d="M54.5996 17.7917C54.4607 17.7917 54.3357 17.7431 54.2246 17.6458C54.1274 17.5347 54.0788 17.4097 54.0788 17.2708V3.72917C54.0788 3.57639 54.1274 3.45139 54.2246 3.35417C54.3357 3.25694 54.4607 3.20833 54.5996 3.20833H57.3496C57.5024 3.20833 57.6274 3.25694 57.7246 3.35417C57.8218 3.45139 57.8704 3.57639 57.8704 3.72917V14.6458H64.1829C64.3357 14.6458 64.4607 14.7014 64.5579 14.8125C64.6552 14.9097 64.7038 15.0347 64.7038 15.1875V17.2708C64.7038 17.4097 64.6552 17.5347 64.5579 17.6458C64.4607 17.7431 64.3357 17.7917 64.1829 17.7917H54.5996Z" fill="#303030"/>
<path d="M65.6763 17.7917C65.5652 17.7917 65.461 17.75 65.3638 17.6667C65.2804 17.5694 65.2388 17.4653 65.2388 17.3542C65.2388 17.2708 65.2457 17.2083 65.2596 17.1667L70.1554 3.79167C70.1971 3.625 70.2874 3.48611 70.4263 3.375C70.5652 3.26389 70.7457 3.20833 70.9679 3.20833H74.0513C74.2735 3.20833 74.454 3.26389 74.5929 3.375C74.7318 3.48611 74.8221 3.625 74.8638 3.79167L79.7388 17.1667L79.7804 17.3542C79.7804 17.4653 79.7318 17.5694 79.6346 17.6667C79.5513 17.75 79.4471 17.7917 79.3221 17.7917H76.7596C76.4263 17.7917 76.204 17.6458 76.0929 17.3542L75.2804 15.2292H69.7179L68.9263 17.3542C68.8152 17.6458 68.586 17.7917 68.2388 17.7917H65.6763ZM74.4471 12.2292L72.5096 6.72917L70.5721 12.2292H74.4471Z" fill="#303030"/>
<path d="M83.6665 17.7917C83.5276 17.7917 83.4026 17.7431 83.2915 17.6458C83.1943 17.5347 83.1457 17.4097 83.1457 17.2708V6.47917H79.4373C79.2984 6.47917 79.1734 6.43056 79.0623 6.33333C78.9651 6.22222 78.9165 6.09722 78.9165 5.95833V3.72917C78.9165 3.57639 78.9651 3.45139 79.0623 3.35417C79.1734 3.25694 79.2984 3.20833 79.4373 3.20833H90.6457C90.7984 3.20833 90.9234 3.25694 91.0207 3.35417C91.1179 3.45139 91.1665 3.57639 91.1665 3.72917V5.95833C91.1665 6.11111 91.1179 6.23611 91.0207 6.33333C90.9234 6.43056 90.7984 6.47917 90.6457 6.47917H86.9373V17.2708C86.9373 17.4097 86.8887 17.5347 86.7915 17.6458C86.6943 17.7431 86.5693 17.7917 86.4165 17.7917H83.6665Z" fill="#303030"/>
<path d="M98.7944 18C96.8361 18 95.2944 17.5208 94.1694 16.5625C93.0444 15.6042 92.4472 14.1944 92.3778 12.3333C92.3639 11.9306 92.3569 11.3333 92.3569 10.5417C92.3569 9.73611 92.3639 9.13194 92.3778 8.72917C92.4472 6.89583 93.0514 5.48611 94.1903 4.5C95.343 3.5 96.8778 3 98.7944 3C100.711 3 102.246 3.5 103.399 4.5C104.551 5.48611 105.156 6.89583 105.211 8.72917C105.239 9.53472 105.253 10.1389 105.253 10.5417C105.253 10.9306 105.239 11.5278 105.211 12.3333C105.142 14.1944 104.544 15.6042 103.419 16.5625C102.294 17.5208 100.753 18 98.7944 18ZM98.7944 15C99.5583 15 100.162 14.7708 100.607 14.3125C101.065 13.8542 101.308 13.1528 101.336 12.2083C101.364 11.4028 101.378 10.8333 101.378 10.5C101.378 10.1389 101.364 9.56944 101.336 8.79167C101.308 7.84722 101.065 7.14583 100.607 6.6875C100.149 6.22917 99.5444 6 98.7944 6C98.0444 6 97.4403 6.22917 96.9819 6.6875C96.5375 7.14583 96.2944 7.84722 96.2528 8.79167C96.2389 9.18056 96.2319 9.75 96.2319 10.5C96.2319 11.2361 96.2389 11.8056 96.2528 12.2083C96.2944 13.1528 96.5375 13.8542 96.9819 14.3125C97.4264 14.7708 98.0305 15 98.7944 15Z" fill="#303030"/>
<path d="M108.188 17.7917C108.05 17.7917 107.925 17.7431 107.813 17.6458C107.716 17.5347 107.668 17.4097 107.668 17.2708V3.72917C107.668 3.57639 107.716 3.45139 107.813 3.35417C107.925 3.25694 108.05 3.20833 108.188 3.20833H110.397C110.744 3.20833 110.98 3.34028 111.105 3.60417L116.188 11.6042V3.72917C116.188 3.57639 116.237 3.45139 116.334 3.35417C116.445 3.25694 116.57 3.20833 116.709 3.20833H119.209C119.362 3.20833 119.487 3.25694 119.584 3.35417C119.682 3.45139 119.73 3.57639 119.73 3.72917V17.25C119.73 17.4028 119.682 17.5347 119.584 17.6458C119.487 17.7431 119.362 17.7917 119.209 17.7917H116.98C116.675 17.7917 116.445 17.6597 116.293 17.3958L111.209 9.6875V17.2708C111.209 17.4097 111.161 17.5347 111.063 17.6458C110.966 17.7431 110.841 17.7917 110.688 17.7917H108.188Z" fill="#303030"/>
</svg>
