<svg width="420" height="446" viewBox="0 0 420 446" fill="none" xmlns="http://www.w3.org/2000/svg">
<path d="M179.877 43.1868C183.615 41.2785 187.022 38.794 190.013 35.8654C198.994 40.5416 209.659 41.0612 219.454 39.0396C223.287 38.3783 226.751 35.8465 230.773 36.4417C234.426 36.6778 237.776 40.1638 237.085 43.9331C236.233 50.1303 230.319 54.8066 224.139 54.8538C221.394 64.1213 212.953 71.4049 203.271 72.3969C197.46 72.8787 192.038 69.5911 188.47 65.2172C183.416 59.0388 179.527 51.3584 179.877 43.1868ZM222.908 48.9872C224.262 46.9939 225.066 44.396 227.3 43.1679C229.183 42.2515 231.236 41.7981 233.186 41.014C228.558 38.2082 220.817 43.7536 222.908 48.9872ZM196.864 50.0831C199.06 51.9725 200.375 49.0534 200.063 47.1451C198.142 46.4177 195.104 47.8914 196.864 50.0831ZM187.741 50.461C187.987 54.3437 188.65 58.2642 190.079 61.8918L191.366 62.1847C191.281 57.6029 189.322 52.9928 189.265 48.2598C188.536 48.8455 187.287 49.2329 187.741 50.461Z" fill="white"/>
<path d="M282.17 65.4439C297.057 69.7895 308.565 83.9505 309.132 99.5097C309.189 112.131 309.142 124.743 309.161 137.364C309.066 143.655 309.738 150.136 307.571 156.192C305.442 163.551 300.738 169.909 294.975 174.868C290.489 155.842 284.527 137.071 276.057 119.414C269.366 105.612 260.811 92.3016 248.64 82.6752C258.587 81.7588 268.391 78.254 276.227 71.9717C285.359 73.6438 293.867 79.9166 297.303 88.6362C298.363 90.7807 297.407 94.0588 299.848 95.3247C301.968 93.6525 300.681 90.7429 300.255 88.5606C296.953 79.1514 288.293 72.0946 278.754 69.6194C279.908 68.2402 281.044 66.8515 282.17 65.4439Z" fill="white"/>
<path d="M197.583 85.9533C206.432 79.227 217.959 75.571 229.06 77.262C224.29 84.5551 217.249 91.7348 208.013 92.2166C203.565 92.5 199.741 89.6187 197.583 85.9533Z" fill="white"/>
<path d="M231.852 134.756C221.934 116.968 220.798 93.8698 231.511 76.1567C233.924 76.8747 236.319 77.6777 238.694 78.5374C231.606 89.7132 229.476 103.732 232.609 116.552C233.063 118.744 233.896 120.841 234.255 123.052C233.877 127.019 232.826 130.893 231.852 134.756Z" fill="white"/>
<path d="M61.7885 93.5108C67.7791 90.9507 75.1229 95.9954 75.1513 102.429C75.5393 108.532 69.3027 113.86 63.3122 112.452C57.9936 111.526 54.2176 105.716 55.6844 100.502C56.3185 97.3085 58.8169 94.7106 61.7885 93.5108Z" fill="white"/>
<path d="M235.344 132.461C246.965 138.233 258.814 143.542 270.473 149.248C269.224 161.727 266.583 174.906 258.483 184.882C249.927 194.565 236.707 198.637 224.148 199.459C206.565 200.479 189.095 196.842 172.315 191.892C166.107 190.163 163.05 184.013 158.035 180.565C154.949 178.789 151.817 180.999 148.987 182.142C146.707 183.257 144.407 181.897 142.372 180.933C143.319 177.013 145.041 172.752 148.978 170.986C150.738 169.88 153.719 170.23 154.249 167.755C147.255 167.613 141.331 173.64 140.83 180.47C137.385 181.198 133.741 180.026 131.934 176.89C129.729 176.54 125.612 177.513 125.451 174.292C126.113 167.679 130.05 160.046 137.12 158.591C145.864 157.344 154.542 159.649 163.088 161.198C175.183 163.343 187.259 165.667 199.514 166.706C207.435 167.254 215.707 164.873 221.565 159.375C229.136 152.309 232.807 142.248 235.344 132.461ZM139.798 163.598C134.962 165.535 131.479 170.003 130.666 175.133C131.252 175.605 131.848 176.077 132.445 176.55C132.804 173.791 133.543 170.957 135.539 168.907C138.123 165.827 142.136 164.769 145.789 163.56C144.227 161.293 141.729 162.918 139.798 163.598Z" fill="white"/>
<path d="M182.101 136.712C184.098 138.167 184.807 140.585 185.574 142.796C187.628 149.172 188.091 155.908 188.252 162.568C174.918 160.924 161.839 157.75 148.543 155.851C142.183 155.2 134.744 154.567 129.643 159.215C125.262 163.636 122.631 169.767 122.404 175.983C121.079 175.199 119.091 174.878 118.647 173.187C117.558 170.891 119.233 168.69 119.99 166.593C121.154 163.258 124.325 161.397 126.454 158.761C121.079 158.818 118.278 164.741 117.151 169.285C115.779 169.228 114.369 169.304 113.063 168.841C112.013 165.034 114.52 161.435 116.489 158.383C120.104 152.866 126.908 150.344 133.315 150.495C145.959 150.939 157.713 156.569 170.281 157.552C173.839 157.807 178.202 157.382 180.312 154.075C183.672 148.898 181.77 142.465 182.101 136.712Z" fill="white"/>
<path d="M62.6403 144.402C63.9747 142.928 65.5835 144.213 66.6434 145.299C69.1135 147.935 70.287 151.931 69.0472 155.407C66.8706 156.966 64.7223 154.652 63.6529 152.913C62.2333 150.429 61.1166 147.075 62.6403 144.402Z" fill="white"/>
<path d="M271.457 162.37C271.845 159.951 272.252 157.542 272.697 155.134C277.836 155.965 283.098 156.003 288.236 155.124C288.994 157.439 289.675 159.772 290.309 162.124C284.072 163.126 277.713 163.305 271.457 162.37Z" fill="white"/>
<path d="M96.7949 169.89C95.9526 167.896 94.0504 165.601 96.3501 163.815C97.4857 165.261 98.4983 166.81 99.2744 168.492C103.287 176.966 107.385 185.402 111.426 193.866C112.107 195.283 112.552 196.785 112.987 198.297C112.372 198.231 111.142 198.098 110.517 198.032C105.625 188.821 101.442 179.223 96.7949 169.89Z" fill="white"/>
<path d="M110.621 173.961C111.047 173.952 111.899 173.942 112.325 173.933C114.994 175.662 117.615 177.551 119.867 179.8C120.113 181.198 119.555 181.783 118.192 181.557C115.514 179.988 113.091 177.986 110.773 175.926C110.735 175.435 110.659 174.453 110.621 173.961Z" fill="white"/>
<path d="M123.388 184.995L123.587 184.268L124.789 184.136C127.618 185.893 130.249 187.981 132.691 190.248C132.577 190.654 132.36 191.476 132.246 191.892L131.195 192.109C128.309 190.456 125.716 188.292 123.246 186.082C123.284 185.808 123.35 185.26 123.388 184.995Z" fill="white"/>
<path d="M115.24 185.581L116.091 184.75C118.978 186.696 121.817 188.746 124.334 191.155C124.221 192.685 123.549 193.205 122.309 192.714C119.47 190.909 116.801 188.812 114.397 186.469L115.24 185.581Z" fill="white"/>
<path d="M283.031 196.256C286.315 195.009 289.533 193.592 292.732 192.128C299.129 212.93 298.571 234.96 300.852 256.405C302.006 266.872 303.142 277.632 307.694 287.278C310.079 292.502 314.583 296.281 319.23 299.455C330.369 307.126 342.587 313.049 354.804 318.784C366.047 323.866 377.375 328.797 388.959 333.086C387.549 337.413 385.836 341.617 384.322 345.906C365.366 339.104 347.243 330.12 329.962 319.823C315.596 311.056 301.542 300.145 293.953 284.737C286.391 269.196 287.271 251.417 287.29 234.601C287.489 221.716 286.959 208.632 283.031 196.256Z" fill="white"/>
<path d="M259.561 201.745C266.555 200.574 273.53 199.175 280.306 197.069C286.675 216.293 283.571 236.746 284.707 256.575C285.388 267.93 287.432 279.541 293.281 289.47C301.599 303.829 315.18 314.164 329.167 322.619C346.41 332.803 364.438 341.74 383.3 348.513C378.71 361.456 373.883 374.313 369.161 387.208C348.975 381.776 329.224 374.691 310.306 365.811C296.063 358.962 282.18 351.083 270.095 340.842C263.016 334.692 256.438 327.768 251.867 319.53C248.536 313.739 246.785 307.239 245.082 300.834C242.385 290.868 240.322 280.741 238.533 270.576C235.429 256.755 236.366 242.499 235.457 228.461C230.867 227.29 226.391 225.655 221.725 224.805C221.782 225.429 221.886 226.685 221.943 227.308C225.464 228.707 229.192 229.453 232.779 230.672C233.091 239.231 233.252 247.799 233.754 256.358C233.896 258.455 233.404 260.524 232.893 262.546C221.924 304.396 205.192 344.527 195.227 386.66C193.164 394.662 191.612 402.786 190.06 410.901C169.798 404.175 149.517 397.505 129.265 390.76C131.442 370.052 138.066 350.157 145.041 330.64C152.243 310.98 160.334 291.661 168.218 272.267C176.915 250.416 186.331 228.622 191.035 205.476C213.918 205.864 236.896 205.155 259.561 201.745Z" fill="white"/>
<path d="M91.3344 10.8876C92.1956 7.42054 93.9369 4.23691 95.5363 1.07217C96.0662 1.03438 97.1356 0.958808 97.6656 0.921021C97.5615 4.96433 94.8833 8.43137 93.3975 12.1157C92.8864 11.8039 91.8549 11.1899 91.3344 10.8876Z" fill="#303030"/>
<path d="M180.776 30.7357C184.562 24.1511 191.877 19.7394 199.495 19.5505C206.915 19.1915 214.268 22.4979 219.369 27.7977C220.486 28.8841 221.508 30.1405 222.956 30.8113C230.877 34.7601 240.189 34.9679 248.65 32.7479C256.486 31.1419 264.095 26.9947 272.29 28.1189C279.814 29.6304 283.58 37.3769 285.587 44.037C287.64 50.3382 286.562 57.1306 283.751 63.0066C299.451 67.9379 311.366 83.0153 311.934 99.5191C312.028 114.974 311.943 130.42 311.972 145.875C312 158.327 305.527 170.277 295.703 177.787C296.461 181.424 297.18 185.062 297.842 188.718C296.962 189.332 296.092 189.946 295.221 190.56C302.319 213.431 301.268 237.681 304.164 261.223C305.375 270.037 306.521 279.116 310.751 287.08C313.164 291.737 317.555 294.883 321.767 297.811C343.278 311.764 367.221 321.41 390.927 330.951C391.968 331.31 392.517 332.104 392.565 333.332C401.678 335.977 410.905 338.225 420 340.937C410.697 367.19 401.612 393.519 392.215 419.734C388.315 417.722 384.322 415.247 382.344 411.166C379.798 406.187 379.827 400.462 379.24 395.04C381.331 392.366 385.533 390.514 385.401 386.773C383.044 388.436 381.057 390.533 379.06 392.593C378.492 390.269 377.858 387.964 377.186 385.678C379.41 383.647 382.164 382.097 383.811 379.499C380.659 379.556 378.587 382.154 376.268 383.892C375.842 383.146 374.981 381.644 374.555 380.888C373.23 384.053 372.132 387.302 370.968 390.524C352.514 385.933 334.486 379.698 317.035 372.159C300.019 364.639 283.382 355.769 269.063 343.79C258.038 334.522 248.29 322.874 244.41 308.77C240.189 294.732 237.36 280.344 234.852 265.918C224.726 303.942 209.934 340.559 200.092 378.659C196.978 390.514 194.319 402.493 192.237 414.576C188.972 413.508 185.735 412.375 182.479 411.317C177.132 422.266 171.965 433.3 166.609 444.258C142.382 430.437 118.088 416.72 93.8707 402.89C96.3975 399.574 99.3407 396.268 103.42 394.898C109.24 392.952 115.42 394.152 121.372 394.614C123.085 398.639 123.965 402.966 125.517 407.047C125.877 407.415 126.606 408.152 126.965 408.52C127.06 403.665 124.997 399.149 123.341 394.69C124.401 394.652 125.451 394.624 126.511 394.605C128.309 398.233 129.502 402.182 131.603 405.658L133.221 406.376C132.464 401.841 129.303 398.11 128.792 393.538C127.959 392.933 127.145 392.338 126.322 391.752C128.811 367.445 137.006 344.215 145.476 321.438C153.502 300.362 162.322 279.607 170.697 258.663C177.464 241.205 184.599 223.709 188.196 205.259C185.915 205.203 183.653 205.136 181.391 205.07C182.035 202.709 182.669 200.337 183.284 197.976C180.852 197.314 178.457 196.351 175.921 196.19C159.644 199.6 143.006 201.074 126.587 203.71C121.789 204.825 117.085 202.888 112.287 202.992C110.981 202.982 109.95 202.028 108.88 201.424C97.6562 193.668 86.3376 186.072 75.0852 178.373C71.7445 176.087 68.3849 173.82 65.0347 171.533C62.4133 169.757 59.5268 168.085 57.8612 165.298C48.8991 145.422 39.2934 125.82 30.1609 106.009C28.9022 104.743 30.0568 101.871 31.959 102.863C37.7319 106.378 43.1735 110.449 48.8139 114.171C50.9905 115.636 53.1577 117.119 55.3344 118.583C64.1546 124.629 73.0032 130.666 81.8707 136.646C84.3596 138.299 86.6404 140.443 87.8991 143.202C89.9054 147.973 92.0631 152.696 94.3628 157.325C94.6088 157.845 95.101 158.875 95.3375 159.394C101.536 158.544 107.744 157.769 113.915 156.768C116.186 154.283 118.524 151.742 121.571 150.202C126.331 147.774 131.868 147.529 137.101 148.02C148.391 149.05 158.962 153.811 170.262 154.746C173.129 154.954 176.83 154.85 178.353 151.94C180.17 147.916 179.385 143.325 179.205 139.064C177.729 125.291 176.356 110.166 183.861 97.7809C190.694 85.1409 203.735 76.4118 217.912 74.3524C216.823 73.3888 215.744 72.4063 214.685 71.4144C209.243 74.5319 202.599 76.4307 196.457 74.2957C188.678 71.6222 183.672 64.4331 180.18 57.3856C176.054 49.1006 175.987 38.7656 180.776 30.7357ZM179.877 43.1868C179.527 51.3584 183.416 59.0388 188.47 65.2172C192.038 69.5911 197.461 72.8787 203.271 72.3969C212.953 71.4049 221.394 64.1213 224.139 54.8538C230.319 54.8066 236.233 50.1303 237.085 43.9331C237.776 40.1638 234.426 36.6778 230.773 36.4417C226.751 35.8465 223.287 38.3783 219.454 39.0396C209.659 41.0612 198.994 40.5417 190.013 35.8654C187.022 38.794 183.615 41.2785 179.877 43.1868ZM282.17 65.4439C281.044 66.8515 279.909 68.2402 278.754 69.6195C288.293 72.0946 296.953 79.1515 300.256 88.5607C300.681 90.7429 301.968 93.6526 299.849 95.3247C297.407 94.0588 298.363 90.7807 297.303 88.6362C293.868 79.9167 285.36 73.6439 276.227 71.9718C268.391 78.254 258.587 81.7588 248.64 82.6752C260.811 92.3017 269.366 105.612 276.057 119.414C284.527 137.071 290.489 155.842 294.975 174.868C300.738 169.909 305.442 163.551 307.571 156.192C309.738 150.136 309.066 143.655 309.161 137.364C309.142 124.743 309.189 112.131 309.133 99.5097C308.565 83.9505 297.057 69.7895 282.17 65.4439ZM197.584 85.9533C199.741 89.6187 203.565 92.5001 208.013 92.2166C217.249 91.7348 224.29 84.5551 229.06 77.2621C217.959 75.5711 206.432 79.227 197.584 85.9533ZM231.852 134.756C232.827 130.893 233.877 127.019 234.256 123.052C233.896 120.841 233.063 118.744 232.609 116.552C229.476 103.733 231.606 89.7132 238.694 78.5374C236.319 77.6777 233.924 76.8747 231.511 76.1568C220.798 93.8699 221.934 116.968 231.852 134.756ZM235.344 132.461C232.808 142.248 229.136 152.309 221.565 159.375C215.707 164.873 207.435 167.254 199.514 166.706C187.259 165.667 175.183 163.343 163.088 161.198C154.543 159.649 145.864 157.344 137.12 158.591C130.05 160.046 126.114 167.679 125.451 174.292C125.612 177.513 129.729 176.54 131.934 176.89C133.741 180.026 137.385 181.198 140.83 180.47C141.331 173.64 147.256 167.613 154.249 167.755C153.719 170.23 150.738 169.88 148.978 170.986C145.041 172.752 143.319 177.013 142.372 180.933C144.407 181.897 146.707 183.257 148.987 182.142C151.817 180.999 154.95 178.789 158.035 180.565C163.05 184.013 166.107 190.163 172.315 191.892C189.095 196.842 206.565 200.479 224.148 199.459C236.707 198.637 249.927 194.565 258.483 184.882C266.584 174.906 269.224 161.728 270.473 149.248C258.814 143.542 246.965 138.233 235.344 132.461ZM182.101 136.712C181.77 142.465 183.672 148.899 180.312 154.075C178.202 157.382 173.839 157.807 170.281 157.552C157.713 156.569 145.959 150.939 133.315 150.495C126.909 150.344 120.104 152.866 116.489 158.383C114.521 161.435 112.013 165.034 113.063 168.841C114.369 169.304 115.779 169.228 117.151 169.285C118.278 164.741 121.079 158.818 126.454 158.761C124.325 161.397 121.155 163.258 119.991 166.593C119.233 168.69 117.558 170.891 118.647 173.187C119.091 174.878 121.079 175.199 122.404 175.983C122.631 169.767 125.262 163.636 129.644 159.215C134.744 154.567 142.183 155.2 148.543 155.851C161.839 157.75 174.918 160.925 188.252 162.568C188.091 155.908 187.628 149.172 185.574 142.796C184.808 140.585 184.098 138.167 182.101 136.712ZM62.6404 144.402C61.1167 147.075 62.2334 150.429 63.653 152.913C64.7224 154.652 66.8707 156.966 69.0473 155.407C70.2871 151.931 69.1136 147.935 66.6435 145.299C65.5836 144.213 63.9748 142.928 62.6404 144.402ZM271.457 162.37C277.713 163.305 284.073 163.126 290.309 162.124C289.675 159.772 288.994 157.439 288.237 155.124C283.098 156.003 277.836 155.965 272.697 155.134C272.252 157.543 271.845 159.951 271.457 162.37ZM96.795 169.89C101.442 179.223 105.625 188.821 110.517 198.032C111.142 198.098 112.372 198.231 112.987 198.297C112.552 196.785 112.107 195.283 111.426 193.866C107.385 185.402 103.287 176.966 99.2745 168.492C98.4984 166.81 97.4858 165.261 96.3502 163.815C94.0505 165.601 95.9527 167.896 96.795 169.89ZM110.621 173.961C110.659 174.453 110.735 175.435 110.773 175.926C113.091 177.986 115.514 179.989 118.192 181.557C119.555 181.783 120.114 181.198 119.868 179.8C117.615 177.551 114.994 175.662 112.325 173.933C111.899 173.942 111.047 173.952 110.621 173.961ZM123.388 184.995C123.35 185.26 123.284 185.808 123.246 186.082C125.716 188.292 128.309 190.456 131.196 192.109L132.246 191.892C132.36 191.476 132.577 190.654 132.691 190.248C130.249 187.981 127.618 185.893 124.789 184.136L123.587 184.268L123.388 184.995ZM115.24 185.581L114.397 186.469C116.801 188.812 119.47 190.909 122.309 192.714C123.549 193.205 124.221 192.685 124.334 191.155C121.817 188.746 118.978 186.696 116.091 184.75L115.24 185.581ZM283.032 196.256C286.959 208.632 287.489 221.716 287.29 234.602C287.271 251.417 286.391 269.196 293.953 284.737C301.543 300.145 315.596 311.056 329.962 319.823C347.243 330.12 365.366 339.104 384.322 345.906C385.836 341.617 387.549 337.413 388.959 333.086C377.375 328.797 366.047 323.866 354.804 318.784C342.587 313.049 330.369 307.126 319.23 299.455C314.584 296.281 310.079 292.502 307.694 287.278C303.142 277.633 302.006 266.872 300.852 256.405C298.571 234.961 299.129 212.93 292.732 192.128C289.533 193.592 286.315 195.009 283.032 196.256ZM259.562 201.745C236.896 205.155 213.918 205.864 191.035 205.476C186.331 228.622 176.915 250.416 168.218 272.267C160.334 291.661 152.243 310.98 145.041 330.64C138.066 350.157 131.442 370.052 129.265 390.76C149.517 397.505 169.798 404.175 190.06 410.901C191.612 402.786 193.164 394.662 195.227 386.66C205.192 344.527 221.924 304.396 232.893 262.546C233.404 260.524 233.896 258.455 233.754 256.358C233.252 247.799 233.092 239.231 232.779 230.672C229.192 229.453 225.464 228.707 221.943 227.308C221.886 226.685 221.782 225.429 221.726 224.805C226.391 225.655 230.868 227.29 235.457 228.461C236.366 242.499 235.429 256.755 238.533 270.576C240.322 280.741 242.385 290.868 245.082 300.834C246.786 307.239 248.536 313.739 251.868 319.53C256.438 327.768 263.016 334.692 270.095 340.842C282.18 351.083 296.063 358.962 310.306 365.811C329.224 374.691 348.975 381.776 369.161 387.208C373.883 374.313 378.71 361.456 383.3 348.513C364.438 341.74 346.41 332.803 329.167 322.619C315.18 314.164 301.599 303.829 293.281 289.47C287.432 279.541 285.388 267.93 284.707 256.575C283.571 236.746 286.675 216.293 280.306 197.069C273.53 199.175 266.555 200.574 259.562 201.745Z" fill="#303030"/>
<path d="M222.909 48.9873C220.817 43.7536 228.558 38.2083 233.186 41.014C231.237 41.7981 229.183 42.2516 227.3 43.1679C225.066 44.396 224.262 46.9939 222.909 48.9873Z" fill="#303030"/>
<path d="M0.132492 42.2327C0.66246 40.2771 2.54575 42.6011 3.37856 43.1207C7.38171 46.975 11.5647 50.6688 15.3785 54.7216C16.4763 55.9213 13.9779 57.8202 13.1357 56.1953C8.74448 52.0292 4.18297 47.9953 0 43.6214C0.0283912 43.2813 0.1041 42.5822 0.132492 42.2327Z" fill="#303030"/>
<path d="M196.864 50.0831C195.104 47.8914 198.142 46.4177 200.063 47.1451C200.375 49.0534 199.06 51.9725 196.864 50.0831Z" fill="#303030"/>
<path d="M187.741 50.461C187.287 49.2329 188.536 48.8456 189.265 48.2598C189.322 52.9928 191.281 57.6029 191.366 62.1847L190.079 61.8918C188.65 58.2642 187.987 54.3437 187.741 50.461Z" fill="#303030"/>
<path d="M68.8675 57.8485C72.3123 55.8269 76.2397 54.7499 79.9116 53.2101C81.5299 56.9416 82.9495 60.7488 84.4353 64.537C80.6688 66.0013 76.8927 67.4467 73.1546 68.9771C71.7161 65.2739 69.9369 61.684 68.8675 57.8485Z" fill="#303030"/>
<path d="M165.653 57.2345C166.183 57.3667 167.252 57.6313 167.782 57.7635C167.574 60.352 164.479 60.1064 162.672 60.7771C157.23 61.8068 151.987 63.7151 146.498 64.4425C144.388 62.0808 147.587 61.6273 149.338 61.1361C154.779 59.8796 160.145 58.2264 165.653 57.2345Z" fill="#303030"/>
<path d="M169.457 64.8582C170.839 63.7529 171.909 64.008 172.675 65.6328C168.407 69.2983 163.088 71.5372 158.338 74.513C157.088 75.9017 154.372 74.8909 155.659 73.0298C160.088 70.054 164.849 67.56 169.457 64.8582Z" fill="#303030"/>
<path d="M95.5931 80.5213C96.0852 80.4835 97.0694 80.4174 97.5615 80.3796C97.8928 83.6577 95.1766 86.5107 93.6057 89.2408C92.9905 89.3542 91.7603 89.5715 91.1451 89.6754C91.8928 86.3217 93.7192 83.3459 95.5931 80.5213Z" fill="#303030"/>
<path d="M108.568 85.3203C108.653 83.431 106.618 80.0962 109.808 80.1056C112.893 85.6226 111.672 93.3692 107.073 97.7431C101.991 102.901 94.4574 103.808 87.9842 106.321C83.7634 107.955 79.1829 110.345 77.5552 114.871C75.899 118.999 77.3659 123.373 77.858 127.567C74.4132 128.21 74.6593 124.365 74.1672 122.107C73.4195 117.194 74.7634 111.725 78.7192 108.475C84.8328 103.062 93.3312 102.287 100.524 98.9807C105.7 96.6756 109.628 91.1397 108.568 85.3203Z" fill="#303030"/>
<path d="M52.6183 103.402C52.1167 97.2991 56.6972 91.801 62.489 90.3367C68.1293 89.2597 74.3375 92.0561 76.7129 97.3841C79.8076 103.336 76.8833 111.271 70.8927 114.115C66.5016 116.297 60.7949 115.636 57.0473 112.471C54.5205 110.119 52.6751 106.926 52.6183 103.402ZM61.7886 93.5109C58.817 94.7106 56.3186 97.3086 55.6845 100.502C54.2177 105.716 57.9937 111.526 63.3123 112.452C69.3028 113.86 75.5394 108.532 75.1514 102.429C75.123 95.9954 67.7792 90.9507 61.7886 93.5109Z" fill="#303030"/>
<path d="M119.338 89.7604C121.429 88.0789 121.893 90.7996 122.347 92.056C123.502 97.1669 122.394 102.92 118.599 106.708C111.142 114.521 98.4511 112.896 90.9369 120.624C86.6404 124.979 88.2587 131.488 89.0915 136.844C85.8928 137.392 85.8738 133.953 85.4763 131.771C84.4732 126.292 86.2334 120.142 90.9464 116.864C98.6593 110.6 110.205 111.621 117.114 104.205C120.842 100.247 119.82 94.6256 119.338 89.7604Z" fill="#303030"/>
<path d="M139.798 163.598C141.729 162.918 144.227 161.293 145.789 163.56C142.136 164.769 138.123 165.827 135.539 168.907C133.543 170.957 132.804 173.791 132.445 176.55C131.849 176.077 131.252 175.605 130.666 175.133C131.479 170.003 134.962 165.535 139.798 163.598Z" fill="#303030"/>
<path d="M341.849 416.853C341.915 414.453 344.65 415.37 344.886 417.117C348.047 424.675 351.35 432.185 354.265 439.847C353.659 440.073 352.439 440.508 351.823 440.735C348.416 432.809 345.019 424.873 341.849 416.853Z" fill="#303030"/>
<path d="M333.133 429.464C333.748 429.53 334.987 429.653 335.603 429.71C338.886 434.537 342.265 439.346 345.18 444.409L344.707 445.553L343.297 445.921C340.997 443.276 339.331 440.168 337.344 437.315C335.782 434.792 333.615 432.497 333.133 429.464Z" fill="#303030"/>
<path d="M14.2144 92.5378C25.8359 74.0029 37.2302 55.3262 48.9084 36.8195C47.2239 50.3098 44.2333 63.6017 42.4542 77.0826C50.0157 77.6872 57.5299 78.7547 65.0914 79.3876C64.4289 83.0909 63.5015 86.7185 62.4889 90.3367C56.6971 91.801 52.1166 97.2991 52.6182 103.402C52.675 106.926 54.5204 110.119 57.0472 112.471C56.4699 114.512 55.9116 116.552 55.3343 118.583C53.1576 117.119 50.9904 115.636 48.8138 114.171C48.2743 109.174 47.5362 104.205 46.6939 99.2546C35.8674 97.0157 24.9557 95.1358 14.2144 92.5378Z" fill="#FFCE3D"/>
<path d="M130.476 111.857C132.643 109.316 134.574 106.548 137.072 104.309C139.571 105.792 141.643 107.861 143.896 109.684C155.697 119.443 167.413 129.287 179.205 139.064C179.385 143.325 180.17 147.916 178.353 151.94C176.83 154.85 173.129 154.954 170.262 154.746C158.962 153.811 148.391 149.05 137.101 148.02C131.867 147.529 126.331 147.774 121.571 150.202C118.524 151.742 116.186 154.283 113.915 156.768C107.744 157.769 101.536 158.544 95.3374 159.394C95.1009 158.875 94.6087 157.845 94.3627 157.325C94.2302 156.91 93.9652 156.059 93.8327 155.634C106.098 141.086 118.221 126.415 130.476 111.857Z" fill="#FFCE3D"/>
<path d="M33.2933 228.13C47.2239 211.541 60.9084 194.745 75.0851 178.373C86.3374 186.072 97.656 193.668 108.88 201.424C109.949 202.028 110.981 202.983 112.287 202.992C117.085 202.888 121.789 204.825 126.587 203.71C143.006 201.074 159.643 199.6 175.921 196.19C178.457 196.351 180.852 197.314 183.284 197.976C182.669 200.337 182.035 202.709 181.391 205.07C183.653 205.136 185.915 205.203 188.195 205.259C184.599 223.709 177.464 241.205 170.697 258.663C162.322 279.607 153.501 300.362 145.476 321.438C130.637 309.601 116.262 297.178 101.602 285.115C78.8516 266.098 55.9778 247.232 33.2933 228.13Z" fill="#FFCE3D"/>
</svg>
