<svg width="297" height="423" viewBox="0 0 297 423" fill="none" xmlns="http://www.w3.org/2000/svg">
<path d="M193.455 12.0465C195.604 7.21794 200.644 3.69045 205.994 3.78683C229.799 3.73864 253.615 3.80611 277.42 3.75792C281.42 3.54588 285.497 4.93374 288.302 7.83476C293.737 12.9621 293.708 22.5326 288.205 27.6022C284.678 31.4092 279.203 31.8621 274.326 31.6983C274.095 29.7996 273.835 27.9009 273.604 26.0023C278.461 22.6579 279.464 15.2849 275.917 10.6683C271.715 6.32161 263.58 6.99626 260.139 11.9984C257.181 16.0559 258.154 21.9543 261.759 25.2891C261.566 27.4094 261.392 29.5298 261.229 31.6501C243.157 31.6501 225.086 31.6597 207.025 31.6501C203.314 31.6887 199.526 30.561 196.809 27.9684C192.452 24.094 190.891 17.3474 193.455 12.0465ZM236.401 16.4125C235.225 17.4149 235.36 18.2823 236.787 19.0051C241.664 19.1979 246.56 19.0726 251.446 19.0726C253.316 19.4967 252.978 17.4149 252.94 16.3065C247.427 16.3547 241.895 16.1138 236.401 16.4125Z" fill="white"/>
<path d="M264.409 26.9082C266.558 27.2744 268.765 27.3805 270.953 27.2648C271.416 31.8717 271.946 36.4787 271.782 41.1145C275.811 39.852 280.678 41.0085 281.96 45.4709C284.128 45.3456 286.605 44.7866 288.494 46.2323C290.586 47.5912 291.068 50.2513 291.289 52.5644C291.993 62.0578 292.137 71.58 292.398 81.0927C283.126 79.0302 273.864 76.9966 264.602 74.934C264.554 73.4498 264.525 71.9656 264.486 70.491C257.74 68.1104 254.781 61.0072 253.325 54.5691C251.995 47.9671 250.501 41.2398 251.224 34.474C256.901 34.4162 257.624 41.3073 258.626 45.4901C263.628 47.4659 267.628 50.9838 271.136 54.9643C271.493 57.5569 272.621 60.4964 275.589 60.9109C277.613 61.0265 281.401 62.0096 281.796 59.0893C278.953 58.858 274.24 60.2169 273.372 56.3328C272.842 51.5235 273.845 46.7142 273.845 41.8952L272.283 42.6855C271.464 45.9817 271.541 49.4224 271.339 52.7957C269.459 49.8851 266.568 47.9864 264.062 45.7118C263.551 39.4568 264.12 33.1632 264.409 26.9082ZM282.008 45.9046C281.883 50.6368 280.341 55.9666 283.02 60.2651C284.639 63.1179 289.882 63.5227 290.827 59.9085C288.832 59.841 286.191 61.8457 284.851 59.4363C282.287 55.4172 284.196 50.3477 283.878 45.9046H282.008Z" fill="white"/>
<path d="M258.019 34.397C259.07 34.4355 260.13 34.4741 261.19 34.5126C261.171 37.2402 261.123 39.9677 261.094 42.6952C260.303 39.8424 259.195 37.1052 258.019 34.397Z" fill="white"/>
<path d="M152.705 51.2538C154.729 48.96 157.582 47.1384 160.743 47.2155C164.261 47.1288 167.635 49.8756 167.904 53.4609C168.049 59.0509 164.396 64.4481 159.134 66.3757C156.281 74.6644 149.13 81.4302 140.523 83.3578C133.536 84.8324 126.5 80.9868 122.356 75.5029C118.712 70.3947 115.831 64.5156 114.674 58.328C116.862 55.2343 120.206 52.9404 122.741 50.0491C130.769 51.8899 139.01 53.2103 147.27 52.9501C149.12 52.738 151.395 52.8248 152.705 51.2538ZM160.252 51.1285C156.435 52.285 152.985 56.439 153.823 60.5351C155.857 61.5086 155.356 58.4051 156.127 57.4124C156.859 54.4054 160.021 53.3356 162.517 52.1983C162.642 50.7044 161.293 50.8008 160.252 51.1285ZM131.3 60.0147C131.001 61.8652 133.921 62.5013 134.692 60.9592C135.569 59.9376 134.297 58.8003 134.046 57.7979C132.957 58.1353 130.924 58.4051 131.3 60.0147ZM122.886 63.0217C123.608 66.5492 124.987 69.9225 126.673 73.0934C127.165 74.0668 127.946 74.7318 129.006 75.0981C128.215 70.3658 125.112 66.3275 124.36 61.5086C123.666 61.8073 122.529 61.9615 122.886 63.0217Z" fill="white"/>
<path d="M126.423 107.848C127.753 107.134 129.015 109.178 127.994 110.19C124.601 116.763 122.519 124.136 123.464 131.586C124.187 139.364 127.714 146.534 131.377 153.31C134.557 158.794 133.314 165.396 134.075 171.429C133.478 171.458 132.273 171.516 131.666 171.545C130.182 166.051 131.82 159.883 128.938 154.756C124.514 146.708 120.332 138.005 120.418 128.608C120.332 121.37 122.346 113.746 126.423 107.848Z" fill="white"/>
<path d="M88.8154 157.29C89.6828 157.281 91.4081 157.261 92.2658 157.261C96.9981 159.873 100.371 164.162 103.802 168.21C100.593 173.771 100.024 180.913 95.0994 185.443C93.9428 186.715 91.7068 186.156 91.2828 184.489C90.2901 179.805 92.3718 175.188 93.8753 170.841C93.2296 170.649 91.9381 170.244 91.2924 170.051C90.4442 165.801 89.5865 161.55 88.8154 157.29Z" fill="white"/>
<path d="M64.2002 166.042C70.4552 161.223 78.4739 159.632 86.0301 158.004C86.8782 162.37 87.7553 166.726 88.613 171.092C90.5021 176.817 85.3651 183.872 90.7527 188.556C88.1986 191.717 84.4495 188.739 83.1773 185.963C82.0882 184.701 82.2809 182.089 80.3148 181.858C79.5727 179.872 78.9751 177.829 78.4161 175.795C78.0499 175.872 77.2981 176.046 76.9319 176.123C76.6524 178.716 78.2812 181.096 78.9269 183.563C76.8066 183.988 74.6477 183.901 72.5562 183.351C71.2358 181.096 69.7516 178.889 69.154 176.296C65.8097 177.231 69.0191 180.73 69.8191 182.6C67.2361 182.378 64.0556 182.05 62.7448 179.429C60.557 175.304 59.9498 169.097 64.2002 166.042Z" fill="white"/>
<path d="M105.084 169.396C105.277 169.559 105.653 169.897 105.846 170.061C106.087 172.181 106.819 174.195 107.725 176.113C106.385 176.113 105.055 176.123 103.725 176.142C104.265 174.359 104.872 172.586 105.576 170.86C105.46 170.494 105.21 169.762 105.084 169.396Z" fill="white"/>
<path d="M148.339 218.212C150.402 216.525 151.395 219.629 150.151 221.016C144.764 233.488 139.694 246.104 134.943 258.836C133.979 261.303 133.362 263.934 131.964 266.209C128.9 266.411 130.307 263.375 130.856 261.669C136.33 247.049 141.949 232.457 148.339 218.212Z" fill="white"/>
<path d="M197.387 279.548C200.23 279.606 203.083 279.625 205.926 279.538C206.215 285.157 206.128 290.814 205.772 296.433C203.401 290.593 199.517 285.465 197.387 279.548Z" fill="white"/>
<path d="M191.421 383.878C206.62 378.539 221.646 372.717 236.912 367.552C240.96 375.57 244.671 383.763 248.805 391.743C223.872 400.745 199.006 409.93 174.121 419.057C173.099 415.934 172.656 412.329 174.612 409.457C177.619 404.831 182.429 401.737 185.6 397.227C186.814 395.309 188.799 393.468 188.501 391.001C192.356 390.21 196.23 391.916 200.163 391.531C200.105 391.107 199.999 390.258 199.941 389.834C196.693 389.381 193.387 389.43 190.168 388.736C190.775 387.155 191.151 385.536 191.421 383.878Z" fill="white"/>
<path d="M36.2405 379.667C38.2934 378.288 39.9029 376.409 41.1366 374.289C57.1259 377.064 73.1442 379.676 89.1239 382.539C87.4758 393.227 85.6831 403.896 83.5339 414.498C57.7813 408.147 32.0191 401.805 6.22795 395.617C7.13392 393.362 7.91458 390.866 9.88072 389.285C12.4155 387.04 15.9045 386.587 19.1139 385.999C24.54 385.083 29.9566 383.589 34.6599 380.65C36.8091 384.033 40.4908 385.999 43.4979 388.533C43.6328 388.1 43.9026 387.252 44.0376 386.828C41.6377 384.216 38.2452 382.654 36.2405 379.667Z" fill="white"/>
<path d="M243.63 374.645C246.839 376.351 249.345 379.03 251.003 382.249C249.894 382.616 248.796 382.982 247.697 383.358C246.396 380.428 244.921 377.575 243.63 374.645Z" fill="white"/>
<path d="M180.973 397.834C179.316 392.379 182.766 386.105 188.501 385.103C186.92 389.758 184.915 394.673 180.973 397.834Z" fill="white"/>
<path d="M198.678 2.67846C202.1 0.78942 206.109 0.876164 209.906 0.933991C232.729 0.943629 255.552 0.933991 278.374 0.933991C285.275 0.721957 291.925 5.40599 294.19 11.902C296.956 19.0148 294.036 27.766 287.54 31.785C283.781 34.3969 279.03 34.5993 274.616 34.4547C274.606 35.5438 274.596 36.6329 274.596 37.7316C278.153 37.7798 281.786 39.0424 283.675 42.2422C288.581 41.7989 293.342 45.2107 293.882 50.2128C294.826 60.6892 295.125 71.2138 295.135 81.7288C294.45 81.565 293.082 81.2469 292.398 81.0927C292.137 71.5801 291.993 62.0578 291.289 52.5644C291.068 50.2513 290.586 47.5913 288.494 46.2323C286.605 44.7866 284.128 45.3456 281.96 45.4709C280.678 41.0085 275.811 39.852 271.782 41.1146C271.946 36.4787 271.416 31.8718 270.953 27.2648C271.618 26.9468 272.939 26.3203 273.604 26.0023C273.835 27.9009 274.095 29.7996 274.326 31.6983C279.203 31.8621 284.678 31.4092 288.205 27.6022C293.708 22.5326 293.737 12.9621 288.301 7.83475C285.497 4.93373 281.42 3.54587 277.42 3.75791C253.615 3.8061 229.799 3.73863 205.993 3.78682C200.644 3.69044 195.604 7.21793 193.455 12.0465C190.891 17.3474 192.452 24.094 196.809 27.9684C199.526 30.561 203.314 31.6887 207.025 31.6501C225.086 31.6597 243.157 31.6501 261.228 31.6501C261.392 29.5298 261.566 27.4094 261.759 25.2891C262.414 25.6939 263.744 26.5034 264.409 26.9082C264.12 33.1633 263.551 39.4568 264.062 45.7119C266.568 47.9864 269.459 49.8851 271.339 52.7957C271.541 49.4225 271.464 45.9817 272.283 42.6855L273.845 41.8952C273.845 46.7142 272.842 51.5235 273.372 56.3329C274.24 60.217 278.953 58.858 281.796 59.0893C281.401 62.0096 277.613 61.0265 275.589 60.9109C272.621 60.4965 271.493 57.5569 271.136 54.9643C267.628 50.9838 263.628 47.466 258.626 45.4902C257.624 41.3073 256.901 34.4162 251.224 34.474C250.501 41.2398 251.995 47.9671 253.325 54.5691C254.781 61.0073 257.74 68.1104 264.486 70.491C264.525 71.9656 264.554 73.4498 264.602 74.9341C263.898 74.7702 262.51 74.4618 261.816 74.3076C261.778 73.8161 261.701 72.8523 261.672 72.3704C254.887 68.9778 251.918 61.3831 250.367 54.4149C249.104 47.8515 247.668 41.1531 248.41 34.4258C234.329 34.4837 220.248 34.474 206.167 34.4355C198.245 34.5993 190.997 28.431 189.638 20.6725C188.231 13.5404 192.173 5.86861 198.678 2.67846ZM258.019 34.3969C259.195 37.1052 260.303 39.8424 261.094 42.6952C261.122 39.9676 261.171 37.2401 261.19 34.5126C260.13 34.474 259.07 34.4355 258.019 34.3969Z" fill="#303030"/>
<path d="M115.58 39.158C119.811 32.9801 127.386 29.5008 134.808 29.7803C144.793 29.8092 154.055 35.9486 159.163 44.3432C163.615 44.1119 168.675 46.0973 170.092 50.685C172.29 57.74 167.76 65.6816 161.206 68.6019C159.818 73.0161 158.883 77.5845 156.879 81.7866C155.018 81.7191 153.129 81.5649 151.289 81.9312C148.243 83.0395 145.621 85.1888 142.383 85.8153C139.656 86.4899 136.668 86.1622 134.133 87.5019C121.449 94.1906 112.371 106.373 107.677 119.75C98.5883 120.444 89.1527 117.939 82.0303 112.127C76.6909 107.732 73.8573 100.783 73.8862 93.9497C74.1657 86.4417 77.5005 79.088 83.1483 74.1052C91.196 66.7321 102.337 64.207 112.91 63.2721C112.602 62.1349 112.293 61.0072 111.995 59.8796C108.246 59.8796 105.267 56.2172 106.222 52.5451C107.609 47.0418 112.611 43.7167 115.58 39.158ZM152.705 51.2536C151.395 52.8246 149.12 52.7379 147.27 52.9499C139.01 53.2101 130.769 51.8897 122.741 50.0489C120.206 52.9403 116.862 55.2341 114.674 58.3279C115.831 64.5154 118.712 70.3946 122.355 75.5027C126.5 80.9867 133.535 84.8322 140.523 83.3576C149.13 81.43 156.281 74.6642 159.134 66.3755C164.396 64.448 168.049 59.0507 167.904 53.4607C167.634 49.8754 164.261 47.1286 160.743 47.2153C157.582 47.1382 154.729 48.9598 152.705 51.2536Z" fill="#303030"/>
<path d="M282.008 45.9045H283.878C284.196 50.3476 282.287 55.4172 284.851 59.4362C286.191 61.8457 288.832 59.841 290.827 59.9085C289.882 63.5227 284.639 63.1179 283.02 60.2651C280.341 55.9666 281.883 50.6368 282.008 45.9045Z" fill="#303030"/>
<path d="M160.252 51.1283C161.293 50.8006 162.642 50.7042 162.517 52.1981C160.02 53.3354 156.859 54.4052 156.127 57.4122C155.356 58.4049 155.857 61.5084 153.823 60.5349C152.985 56.4388 156.435 52.2848 160.252 51.1283Z" fill="#303030"/>
<path d="M131.299 60.0146C130.924 58.405 132.957 58.1352 134.046 57.7979C134.297 58.8002 135.569 59.9375 134.692 60.9591C133.921 62.5012 131.001 61.8651 131.299 60.0146Z" fill="#303030"/>
<path d="M122.885 63.0217C122.529 61.9615 123.666 61.8073 124.36 61.5085C125.112 66.3275 128.215 70.3658 129.006 75.098C127.945 74.7318 127.165 74.0668 126.673 73.0934C124.987 69.9225 123.608 66.5492 122.885 63.0217Z" fill="#303030"/>
<path d="M194.929 91.3089C205.714 91.2318 216.499 91.2993 227.284 91.28C236.893 90.9138 246.367 94.4991 253.701 100.638C253.508 101.756 253.316 102.874 253.123 104.002C246.887 98.2771 238.743 94.4027 230.204 94.1907C220.152 94.0557 210.099 94.2099 200.047 94.1328C198.341 93.1787 196.654 92.2149 194.929 91.3089Z" fill="#303030"/>
<path d="M194.833 137.002C194.38 135.778 193.358 134.265 194.332 133.032C196.095 132.116 196.76 134.304 197.348 135.451C202.418 146.91 210.408 157.126 220.46 164.644C220.267 165.964 219.111 167.69 217.771 166.138C207.738 158.659 200.114 148.269 194.833 137.002Z" fill="#303030"/>
<path d="M85.4036 155.17C85.5385 153.705 83.9482 150.698 86.5601 150.765C88.3528 151.189 87.7938 153.406 88.3239 154.707C89.625 155.584 90.9357 156.432 92.2658 157.261C91.408 157.261 89.6828 157.281 88.8154 157.29C89.5864 161.55 90.4442 165.8 91.2923 170.051C91.9381 170.244 93.2295 170.648 93.8753 170.841C92.3718 175.188 90.29 179.804 91.2827 184.488C91.7068 186.156 93.9428 186.715 95.0993 185.443C100.024 180.913 100.593 173.771 103.802 168.21C104.12 168.509 104.766 169.097 105.084 169.395C105.21 169.762 105.46 170.494 105.576 170.86C104.872 172.586 104.265 174.359 103.725 176.142C105.055 176.123 106.385 176.113 107.725 176.113C108.043 176.807 108.66 178.204 108.978 178.898C106.819 178.889 104.66 178.898 102.511 178.956C100.815 182.84 98.7424 186.936 94.8391 189.028C97.0462 194.734 94.5596 200.786 91.1574 205.432C85.3265 213.258 76.4595 218.51 67.0529 220.814C58.5908 232.909 44.5291 241.208 29.6577 241.593C21.1571 241.564 12.6178 238.76 5.87129 233.594C5.19663 232.023 6.99893 230.731 8.25186 231.946C15.0948 236.533 23.3256 239.232 31.6142 238.644C43.7484 237.613 55.3043 231.232 62.764 221.623C57.4439 221.864 51.825 221.093 47.4011 217.913C41.7437 213.875 38.1006 206.492 39.7101 199.543C41.8497 190.194 53.1743 184.334 62.0316 188.074C69.0094 191.139 73.2501 199.148 72.4213 206.656C72.1514 210.386 70.6382 213.855 69.2311 217.277C76.5656 214.867 83.4278 210.569 88.2564 204.487C91.1285 200.757 93.6536 196.054 92.5164 191.196C90.7044 192.141 88.7479 193.346 86.6276 192.7C83.3603 191.833 81.5484 188.787 79.8907 186.108C77.3752 186.84 74.6958 187.081 72.2285 186.059C69.1443 184.845 65.453 185.674 62.7158 183.554C61.0678 182.474 60.1618 180.681 59.2944 178.985C41.3967 178.812 23.4991 178.956 5.60142 178.908C4.51234 178.937 2.5751 178.763 2.99917 177.202C3.47143 175.593 5.31229 176.229 6.53631 176.075C23.8653 176.113 41.1943 176.065 58.533 176.094C57.9643 172.017 58.186 167.285 61.6653 164.48C68.2769 158.832 77.1246 156.953 85.4036 155.17ZM64.2001 166.041C59.9498 169.097 60.5569 175.303 62.7448 179.428C64.0555 182.05 67.236 182.378 69.819 182.599C69.0191 180.73 65.8096 177.231 69.154 176.296C69.7515 178.889 71.2358 181.096 72.5562 183.351C74.6476 183.901 76.8065 183.987 78.9269 183.563C78.2811 181.096 76.6523 178.715 76.9318 176.123C77.298 176.046 78.0498 175.872 78.4161 175.795C78.9751 177.829 79.5726 179.872 80.3147 181.857C82.2809 182.089 82.0881 184.7 83.1772 185.963C84.4494 188.739 88.1985 191.717 90.7526 188.556C85.365 183.872 90.502 176.817 88.613 171.092C87.7552 166.726 86.8782 162.369 86.03 158.003C78.4739 159.632 70.4551 161.222 64.2001 166.041ZM42.0617 202.81C42.2449 209.412 46.9385 215.59 53.1839 217.681C57.068 219.118 61.2701 218.886 65.2988 218.356C68.1709 213.393 70.5129 207.648 69.4238 201.808C68.2769 196.391 64.3158 191.023 58.6005 190.021C50.8323 188.479 42.2641 194.734 42.0617 202.81Z" fill="#303030"/>
<path d="M259.735 171.15C260.978 170.764 262.221 170.34 263.445 169.868C257.595 183.476 243.302 192.681 228.517 192.632C228.382 191.939 228.122 190.541 227.997 189.847C240.979 189.963 253.557 182.57 259.735 171.15Z" fill="#303030"/>
<path d="M105.826 194.724C110.154 193.153 114.211 190.714 118.789 189.915C118.799 190.512 118.809 191.698 118.809 192.295C114.896 194.165 110.848 195.784 106.8 197.355C104.757 198.618 104.092 195.109 105.826 194.724Z" fill="#303030"/>
<path d="M92.3043 218.173C104.429 211.359 117.026 205.191 128.071 196.671C159.712 196.97 190.949 202.772 222.455 205.056C223.313 213.865 223.091 222.77 221.53 231.493C228.903 231.502 236.276 231.454 243.649 231.512C252.063 231.676 260.053 236.832 263.927 244.253C268.968 253.535 266.944 266.045 259.07 273.148C254.684 277.225 248.738 279.615 242.743 279.586C231.447 279.596 220.152 279.557 208.856 279.596C208.894 286.468 208.837 293.33 208.875 300.192C208.817 302.563 210.417 304.491 211.381 306.553C221.79 326.388 231.968 346.406 240.064 367.32C240.806 369.055 241.403 371.233 243.543 371.657C248.227 373.392 252.015 377.189 253.749 381.864C257.614 382.307 261.971 383.271 264.168 386.856C267.271 392.022 266.857 399.463 262.375 403.742C257.797 408.416 249.48 408.503 244.854 403.858C242.974 402.21 241.953 399.877 241.162 397.574C218.205 405.747 195.43 414.45 172.444 422.555C171.094 418.874 169.649 414.845 170.873 410.913C172.126 406.498 175.904 403.607 178.94 400.427C177.407 396.436 177.253 391.81 179.614 388.109C178.506 388.379 177.388 388.639 176.28 388.9C173.33 383.743 170.593 378.481 167.875 373.199C159.712 373.373 151.539 373.18 143.376 373.296C137.709 373.305 132.07 376.891 130.037 382.23C139.347 383.02 142.701 395.357 137.439 402.132C133.217 408.378 123.232 409.072 118.163 403.501C113.411 398.875 113.431 390.442 118.211 385.844C120.457 383.348 123.763 382.404 126.953 381.854C129.468 375.156 136.273 370.433 143.434 370.443C151.144 370.366 158.854 370.453 166.565 370.414C154.479 344.941 144.022 318.735 131.81 293.33C129.892 289.012 129.372 284.222 129.275 279.538C127.704 279.663 125.931 279.287 124.611 280.367C118.683 284.26 112.592 287.933 106.212 291.055C105.287 291.614 104.101 291.903 103.475 292.829C101.672 302.881 102.694 313.126 102.299 323.284C101.759 343.621 101.036 364.014 98.1738 384.187C96.1017 383.724 94.0102 383.377 91.9092 383.107C90.078 394.769 88.0829 406.402 85.7698 417.977C58.1764 411.125 30.5444 404.426 2.92209 397.689C3.77023 394.123 4.63764 390.278 7.423 387.666C10.7385 384.293 15.6731 383.724 20.0969 382.924C26.8049 381.739 33.7153 379.242 38.2451 373.913C37.4355 373.778 35.8067 373.517 34.9971 373.383C35.1128 347.649 36.8284 321.964 38.2644 296.289C38.4186 286.352 38.2066 276.319 40.0281 266.517C42.1774 256.898 48.7023 248.995 55.8247 242.499C66.7734 232.717 79.5437 225.296 92.3043 218.173ZM148.339 218.212C141.949 232.457 136.33 247.048 130.856 261.669C130.307 263.375 128.9 266.411 131.964 266.209C133.362 263.934 133.979 261.303 134.943 258.836C139.694 246.104 144.764 233.488 150.151 221.016C151.395 219.628 150.402 216.525 148.339 218.212ZM220.855 234.288C218.956 241.892 215.709 249.121 211.516 255.732C206.909 263.346 200.635 269.726 195.228 276.714C211.073 276.781 226.908 276.733 242.753 276.743C251.533 276.897 259.889 270.835 262.684 262.556C264.852 256.416 264.023 249.265 260.38 243.858C256.689 238.278 250.318 234.5 243.581 234.307C236.006 234.201 228.431 234.288 220.855 234.288ZM197.387 279.548C199.517 285.465 203.401 290.593 205.772 296.433C206.128 290.814 206.215 285.157 205.926 279.538C203.083 279.625 200.23 279.605 197.387 279.548ZM191.421 383.878C191.151 385.536 190.775 387.155 190.168 388.736C193.387 389.43 196.693 389.381 199.941 389.834C199.999 390.259 200.105 391.107 200.162 391.531C196.23 391.916 192.356 390.21 188.501 391.001C188.799 393.468 186.814 395.309 185.6 397.227C182.429 401.737 177.619 404.831 174.612 409.457C172.656 412.329 173.099 415.934 174.121 419.057C199.006 409.93 223.872 400.745 248.805 391.743C244.67 383.763 240.96 375.57 236.912 367.552C221.645 372.717 206.62 378.539 191.421 383.878ZM36.2404 379.666C38.2451 382.654 41.6377 384.216 44.0375 386.827C43.9026 387.251 43.6327 388.1 43.4978 388.533C40.4908 385.999 36.8091 384.032 34.6598 380.649C29.9565 383.589 24.54 385.083 19.1138 385.999C15.9044 386.586 12.4154 387.039 9.88067 389.285C7.91453 390.866 7.13386 393.362 6.22789 395.617C32.019 401.805 57.7812 408.147 83.5338 414.498C85.6831 403.896 87.4757 393.227 89.1238 382.539C73.1441 379.676 57.1258 377.064 41.1365 374.288C39.9028 376.409 38.2933 378.288 36.2404 379.666ZM243.63 374.645C244.921 377.575 246.396 380.428 247.697 383.358C248.796 382.982 249.894 382.616 251.003 382.249C249.345 379.03 246.839 376.351 243.63 374.645ZM123.579 385.623C119.609 387.136 116.929 391.444 117.527 395.704C117.806 401.969 125.353 406.47 131.02 403.713C137.391 401.265 139.087 391.993 134.432 387.203C131.54 384.688 127.088 384.283 123.579 385.623ZM249.191 385.806C250.174 388.369 251.629 390.74 252.439 393.381C249.567 394.412 246.714 395.502 243.822 396.494C244.94 402.335 251.803 406.354 257.306 403.703C263.513 401.39 265.113 392.726 261.277 387.724C258.241 384.466 253.142 384.322 249.191 385.806ZM180.973 397.834C184.915 394.673 186.92 389.757 188.501 385.102C182.766 386.105 179.316 392.379 180.973 397.834Z" fill="#303030"/>
<path d="M99.4364 203.234C101.701 201.808 105.055 202.849 107.744 202.579C109.45 202.097 110.79 204.15 109.248 205.287C106.472 205.518 103.677 205.432 100.901 205.374C99.7737 205.653 98.6846 204.208 99.4364 203.234Z" fill="#303030"/>
<path d="M260.139 11.9984C263.58 6.99627 271.715 6.32162 275.917 10.6683C279.464 15.2849 278.461 22.6579 273.604 26.0023C272.939 26.3203 271.618 26.9468 270.953 27.2649C268.765 27.3805 266.558 27.2745 264.409 26.9083C263.744 26.5035 262.414 25.6939 261.759 25.2891C258.154 21.9544 257.181 16.0559 260.139 11.9984Z" fill="#FE3C6B"/>
<path d="M236.401 16.4125C241.895 16.1137 247.427 16.3547 252.94 16.3065C252.978 17.4149 253.316 19.4967 251.446 19.0726C246.56 19.0726 241.663 19.1979 236.787 19.0051C235.36 18.2823 235.225 17.4149 236.401 16.4125Z" fill="#FE3C6B"/>
<path d="M257.017 73.4111C258.617 73.6714 260.226 73.9412 261.816 74.3075C262.51 74.4617 263.898 74.7701 264.602 74.9339C273.864 76.9964 283.126 79.03 292.398 81.0926C293.082 81.2468 294.451 81.5648 295.135 81.7287C295.588 81.825 296.494 82.0274 296.937 82.1238C297.342 102.238 295.935 122.883 288.514 141.773C283.858 153.676 275.57 164.875 263.445 169.868C262.221 170.34 260.978 170.764 259.735 171.149C247.909 174.494 235.312 172.682 223.689 169.405C225.269 176.19 226.821 182.975 227.997 189.847C228.122 190.541 228.382 191.938 228.517 192.632C229.365 196.854 229.847 201.143 230.031 205.451C227.505 205.345 224.971 205.258 222.455 205.056C190.949 202.772 159.712 196.97 128.071 196.671C128.331 190.657 130.567 184.951 130.798 178.937C123.522 178.879 116.245 178.947 108.978 178.898C108.66 178.204 108.043 176.807 107.725 176.113C106.819 174.195 106.087 172.181 105.846 170.06C105.653 169.897 105.277 169.559 105.084 169.395C104.766 169.097 104.12 168.509 103.802 168.21C100.371 164.162 96.9981 159.873 92.2658 157.261C90.9358 156.432 89.625 155.584 88.3239 154.707C92.5935 153.898 96.9017 153.348 101.229 152.943C102.222 141.706 103.774 130.391 107.677 119.75C112.371 106.373 121.45 94.1905 134.133 87.5018C136.668 86.1621 139.656 86.4898 142.383 85.8152C145.621 85.1887 148.243 83.0394 151.289 81.9311C153.129 81.5648 155.018 81.719 156.879 81.7865C162.816 82.6057 168.839 82.8274 174.718 84.0707C181.773 85.4586 188.51 88.1283 194.929 91.3088C196.654 92.2147 198.341 93.1785 200.047 94.1327C210.552 100.349 219.679 108.503 229.472 115.731C234.204 118.921 240.594 123.114 246.27 119.731C250.935 115.972 251.995 109.553 253.123 104.002C253.316 102.874 253.509 101.756 253.701 100.638C255.176 91.6076 256.072 82.4997 257.017 73.4111ZM126.423 107.847C122.346 113.746 120.331 121.37 120.418 128.608C120.331 138.005 124.514 146.708 128.938 154.755C131.82 159.883 130.181 166.051 131.666 171.545C132.273 171.516 133.478 171.458 134.075 171.429C133.314 165.396 134.557 158.794 131.377 153.31C127.714 146.534 124.187 139.364 123.464 131.586C122.519 124.136 124.601 116.763 127.994 110.189C129.015 109.178 127.753 107.134 126.423 107.847ZM194.833 137.002C200.114 148.269 207.738 158.659 217.771 166.138C219.111 167.689 220.267 165.964 220.46 164.644C210.408 157.126 202.418 146.91 197.348 135.451C196.76 134.304 196.095 132.116 194.332 133.031C193.358 134.265 194.38 135.778 194.833 137.002Z" fill="#FE3C6B"/>
<path d="M0.0114774 191.091C2.34386 191.071 4.67623 191.033 7.00862 190.946C7.37486 198.223 7.3845 205.548 7.00862 212.824C4.67623 212.757 2.3535 212.718 0.0307574 212.699C-0.0367082 205.499 0.0307533 198.29 0.0114774 191.091Z" fill="#FE3C6B"/>
<path d="M11.6541 191.196C14.0636 190.994 16.4827 190.984 18.8922 191.216C18.844 198.338 18.8729 205.47 18.8922 212.602C16.4827 212.795 14.0539 212.805 11.6541 212.554C11.7312 205.432 11.7023 198.309 11.6541 191.196Z" fill="#FE3C6B"/>
</svg>
