<svg width="333" height="421" viewBox="0 0 333 421" fill="none" xmlns="http://www.w3.org/2000/svg">
<path d="M213.12 22.2402C225.596 14.0138 245.126 22.0483 247.921 36.7822C249.298 43.6975 245.887 50.1091 243.621 56.4008C230.008 50.7087 216.363 45.0965 202.583 39.8122C204.584 33.2726 207.011 26.0775 213.12 22.2402Z" fill="white"/>
<path d="M171.738 56.3368C172.298 51.5801 177.087 47.8626 181.819 48.3023C184.502 48.5102 186.808 50.8366 186.936 53.5228C187.408 58.6632 183.925 63.8517 178.897 65.1788C178.736 71.1347 176.494 77.1306 171.97 81.1439C167.694 85.4929 160.952 87.4916 155.13 85.2691C145.57 81.6875 140.213 71.3506 139.083 61.7012C144.264 58.8631 149.117 55.3935 154.594 53.115C157.148 52.0118 160.199 51.4841 162.858 52.5154C165.436 53.6986 166.013 56.6966 167.686 58.7112C169.456 59.6786 171.562 58.2076 171.738 56.3368ZM175.309 60.2382C177.559 60.478 176.654 57.576 177.503 56.3208C178.256 54.1863 180.546 53.5787 182.156 52.3156C182.388 51.1804 181.075 51.2203 180.362 51.5561C176.871 52.7873 174.829 56.6406 175.309 60.2382ZM154.442 65.2987C154.354 66.2501 154.314 67.2094 154.338 68.1768C155.379 68.3207 157.244 68.6005 157.316 67.0575C157.661 65.3627 155.691 65.0269 154.442 65.2987ZM147.307 69.4079C147.7 73.1574 150.086 76.7069 152.296 79.7848C152.656 79.6569 153.369 79.3931 153.729 79.2572C151.527 76.0114 149.725 72.5178 148.356 68.8483L147.307 69.4079Z" fill="white"/>
<path d="M16.017 52.4755C52.9714 52.4355 89.9177 52.4755 126.864 52.4595C126.768 56.049 127.208 60.2861 130.267 62.6525C132.109 64.1555 134.575 63.5079 136.697 63.1722C137.778 69.8556 140.677 76.2592 145.145 81.3597C148.941 85.6528 154.434 88.355 160.159 88.7387C143.672 97.8445 127.849 109.133 116.959 124.754C110.201 134.204 105.22 144.844 101.873 155.949C87.7397 155.965 73.6146 155.941 59.4814 155.965C59.4894 179.653 59.4494 203.34 59.5054 227.028C59.4254 228.14 59.6576 229.443 58.7768 230.314C55.2855 234.415 51.0496 237.877 47.7905 242.178C48.4231 243.481 49.2239 243.657 50.1848 242.706C53.3957 239.724 56.1983 236.326 59.4173 233.344C59.5695 257.424 59.4414 281.511 59.4814 305.591C73.1421 305.591 86.8028 305.559 100.464 305.607C94.7783 320.9 88.9809 336.154 83.3596 351.471C80.4209 361.76 79.5481 372.625 80.3568 383.282C80.8933 390.045 82.1906 397.016 86.1623 402.684C78.1548 402.748 70.1393 402.676 62.1319 402.732C56.2464 394.41 50.3769 386.072 44.5395 377.717C44.051 376.75 43.0341 376.414 42.0332 376.71C41.6168 377.965 42.4656 379.005 43.1222 379.988C48.4792 387.535 53.8041 395.106 59.1051 402.692C52.595 402.748 46.0929 402.708 39.5829 402.708C39.1585 402.708 38.3017 402.708 37.8693 402.708C30.5905 402.708 23.3037 402.74 16.025 402.684C16.0089 285.948 16.017 169.212 16.017 52.4755ZM46.4533 78.09C46.4533 84.3177 46.4453 90.5455 46.4533 96.7812C70.5877 96.7732 94.7142 96.7812 118.841 96.7732C118.865 90.5455 118.841 84.3177 118.857 78.09C94.7222 78.082 70.5877 78.082 46.4533 78.09ZM128.362 80.0167C123.109 80.9041 120.522 87.9473 124.07 91.9525C127.224 96.4614 135.112 95.4701 136.962 90.2497C139.54 84.9653 134.039 78.3858 128.362 80.0167ZM44.1391 137.633C44.0671 151.968 44.011 166.31 44.1632 180.644C43.7868 182.219 46.7896 182.107 46.3892 180.596C46.5414 167.069 46.3892 153.534 46.4613 140.008C58.8168 139.944 71.1803 140.136 83.5278 139.92C84.3766 138.481 83.4317 137.322 81.8783 137.641C69.2986 137.625 56.7188 137.649 44.1391 137.633ZM41.9771 285.38C41.7369 298.316 41.9371 311.267 41.881 324.21C55.9741 324.21 70.0593 324.226 84.1524 324.21C85.6658 324.362 86.4825 323.522 85.89 322.011C84.0082 321.636 82.0945 321.796 80.1967 321.78C68.2256 321.788 56.2624 321.78 44.2913 321.78C44.2673 309.868 44.3073 297.956 44.2753 286.036C44.6596 284.469 42.1373 283.694 41.9771 285.38Z" fill="white"/>
<path d="M189.442 52.4435C191.316 52.4595 193.198 52.4755 195.08 52.4835C191.877 61.0536 188.69 69.6238 185.455 78.1779C181.835 78.7775 178.504 80.3285 175.061 81.5196C178.744 77.6103 180.562 72.4218 181.315 67.1934C186.664 64.3553 190.035 58.5353 189.442 52.4435Z" fill="white"/>
<path d="M197.041 54.2583C210.774 59.6866 224.299 65.6186 237.96 71.2147C233.451 84.1019 228.423 96.8133 223.738 109.645C217.052 127.232 210.678 144.956 203.872 162.496C200.877 161.873 197.786 161.561 194.919 160.442C193.598 155.133 192.005 149.673 188.321 145.46C184.646 141.039 179.305 138.465 173.988 136.57C172.106 135.907 169.536 135.563 168.183 137.378C167.19 139.04 167.702 141.175 168.599 142.766C170.361 145.924 173.043 148.426 175.83 150.673C175.878 150.88 175.974 151.288 176.03 151.496C171.834 149.154 168.239 145.588 163.426 144.501C174.372 114.337 185.831 84.3418 197.041 54.2583Z" fill="white"/>
<path d="M48.8075 80.4643C71.3485 80.4563 93.8894 80.4483 116.43 80.4643C116.494 84.9892 116.342 89.5061 116.526 94.0311C115.638 94.2229 114.741 94.3428 113.844 94.3828C92.1678 94.3588 70.4917 94.3828 48.8235 94.3668C48.7835 89.73 48.8155 85.1011 48.8075 80.4643Z" fill="white"/>
<path d="M224.523 135.427C234.628 128.368 245.302 122.108 256.329 116.592C262.63 128.599 266.306 142.326 264.809 155.941C263.247 168.844 257.538 181.651 247.4 190.078C238.136 197.856 225.956 201.566 213.961 201.71C198.531 202.013 182.9 197.257 170.633 187.823C164.315 183.002 157.813 178.342 152.224 172.665C150.558 170.835 148.604 168.828 148.5 166.214C148.412 164.639 149.501 163.424 150.302 162.185C151.167 164.687 153.417 167.765 156.356 167.189C156.884 165.566 154.602 165.638 153.817 164.751C151.207 162.113 149.902 157.748 151.751 154.342C152.728 152.575 154.938 152.335 156.732 152C157.765 154.198 159.07 157.987 162.073 157.46C160.367 155.165 158.95 152.679 157.284 150.385C157.933 148.018 160.127 146.076 162.706 146.835C168.655 148.394 172.979 153.215 178.432 155.853C178.408 153.782 178.352 151.72 178.32 149.649C175.029 146.515 170.056 143.549 170.128 138.457C174.396 138.617 178.248 140.895 181.859 142.982C188.57 147.131 191.508 155.021 192.725 162.448C199.748 164.511 207.387 166.038 214.554 163.696C218.942 162.296 223.202 159.283 224.707 154.758C227.045 148.522 225.892 141.735 224.523 135.427Z" fill="white"/>
<path d="M103.114 160.626C106.245 148.442 111.49 136.802 118.713 126.489C127.008 134.595 135.792 142.174 144.368 149.977C135.873 168.141 135.248 189.782 142.975 208.321C149.926 209.456 157.084 210.759 163.202 214.421C166.861 216.619 170.08 220.313 169.952 224.814C165.596 225.222 161.729 222.695 158.526 220.041C156.916 221.001 155.307 221.96 153.697 222.919C156.892 226.749 160.439 230.354 162.914 234.711C164.179 236.854 164.795 239.772 163.322 241.962C162.121 243.753 159.799 243.921 157.877 244.289C155.106 239.06 151.903 234.072 148.428 229.299C147.611 228.435 146.923 226.765 145.377 227.556C149.325 233.632 153.649 239.484 156.964 245.959C154.898 248.286 152.224 249.965 149.149 250.588C147.139 245.832 144.416 241.339 140.725 237.693C138.891 235.926 137.122 233.84 134.551 233.192C134.775 234.903 136.305 235.822 137.482 236.886C141.814 240.555 145.121 245.336 147.347 250.54C145.497 250.748 143.544 251.06 141.814 250.197C136.841 247.982 132.742 244.305 128.361 241.163C124.75 238.381 120.682 236.174 117.431 232.944C110.689 226.405 105.981 217.971 103.146 209.073C98.0453 193.419 98.83 176.375 103.114 160.626Z" fill="white"/>
<path d="M146.362 151.6C148.564 146.987 151.023 142.286 154.914 138.865C155.146 141.886 155.403 144.908 155.555 147.93C155.443 148.37 155.211 149.241 155.09 149.673C151.823 150.305 148.949 152.647 148.532 156.085C147.227 155.925 145.93 155.757 144.633 155.589C145.177 154.246 145.762 152.919 146.362 151.6Z" fill="white"/>
<path d="M151.583 175.719C158.181 181.484 165.1 186.872 172.226 191.972C177.583 195.682 183.557 198.456 189.731 200.535C182.356 220.337 174.973 240.132 167.534 259.91C161.633 257.608 155.827 255.049 149.886 252.867C153.761 252.171 157.14 249.869 159.374 246.647C163.234 246.135 166.869 243.137 166.645 238.98C166.173 232.665 161.088 228.116 157.365 223.439C158.253 222.759 159.102 223.751 159.871 224.094C162.85 225.933 166.269 227.804 169.896 227.156C171.682 226.677 172.675 224.694 172.33 222.959C171.714 219.002 169.192 215.532 165.94 213.27C159.735 209.025 152.168 207.306 144.825 206.259C144 204.148 143.279 201.998 142.615 199.839C145.562 191.781 148.636 183.778 151.583 175.719Z" fill="white"/>
<path d="M254.087 186.984C256.297 186.72 258.507 186.424 260.709 186.08C263.728 203.972 267.011 221.816 270.422 239.628C273.641 255.185 276.419 270.878 281.096 286.076C288.567 307.006 301.09 325.713 314.511 343.277C300.682 354.581 286.845 365.878 273.056 377.238C266.73 372.417 262.15 365.766 257.578 359.37C238.656 331.357 225.9 299.675 216.347 267.393C212.904 306.566 208.876 345.683 204.761 384.793C185.927 382.059 167.07 379.548 148.228 376.846C151.863 348.497 155.795 320.189 159.19 291.808C159.414 289.65 159.743 287.491 160.568 285.476C171.161 257.416 181.507 229.259 192.149 201.222C202.783 204.332 214.161 204.987 225.068 202.997C236.126 200.95 246.616 195.45 254.087 186.984ZM250.219 193.683C249.787 194.97 250.475 196.233 250.804 197.465C251.676 199.991 252.325 202.589 253.23 205.107C253.63 205.171 254.431 205.307 254.831 205.371L255.28 204.556C254.823 201.278 253.526 198.112 252.565 194.93C252.445 193.667 251.316 193.14 250.219 193.683ZM193.79 211.839C198.138 212.974 202.615 213.462 206.995 214.421C208.148 226.069 209.749 237.677 211.647 249.229C212.536 253.53 213.12 257.951 214.666 262.092C215.002 263.484 216.412 262.708 217.228 262.324C214.682 254.681 213.689 246.647 212.472 238.716C211.079 229.874 210.198 220.969 209.077 212.095C204.737 211.567 200.437 210.807 196.169 209.904C194.767 209.209 192.469 210.008 193.79 211.839ZM255.392 213.31C256.008 216.931 256.833 220.529 257.738 224.094C258.298 225.669 260.501 224.35 259.884 223.095C259.099 219.498 258.619 215.788 257.241 212.35C256.777 212.59 255.856 213.07 255.392 213.31ZM259.652 232.393C259.572 235.71 260.709 238.908 261.133 242.178C261.085 243.785 262.214 244.688 263.768 244.041C263.143 240.004 262.823 235.774 261.277 231.977C260.869 232.081 260.06 232.289 259.652 232.393ZM263.471 251.931L263.095 252.547C263.503 255.913 264.176 259.254 264.793 262.588C264.841 264.043 266.714 264.411 267.267 262.988C266.714 259.222 266.034 255.481 265.225 251.771C264.785 251.811 263.912 251.891 263.471 251.931ZM266.85 272.461C267.315 276.043 268.156 279.584 269.141 283.062C270.374 283.894 271.783 282.862 271.174 281.471C270.31 278.066 269.709 274.596 268.804 271.206C267.931 271.294 266.634 271.134 266.85 272.461ZM271.407 290.673C271.703 294.51 273.264 298.14 274.562 301.737C275.026 303.424 277.404 302.121 276.74 300.874C275.482 297.524 274.706 293.983 273.296 290.705C272.824 290.697 271.879 290.681 271.407 290.673ZM278.173 309.684C278.589 313.385 280.807 316.759 282.305 320.165C282.729 321.868 285.412 320.173 284.323 319.014C283.082 316.176 281.872 313.329 280.607 310.507C280.303 309.316 279.15 309.004 278.173 309.684ZM286.709 327.648L286.301 328.527C287.902 331.877 289.608 335.195 291.61 338.328C292.018 338.288 292.851 338.208 293.267 338.169L293.619 337.297C291.922 334.027 290.184 330.766 288.342 327.576C287.934 327.592 287.117 327.632 286.709 327.648ZM296.622 344.828C296.126 347.026 298.432 348.569 299.577 350.192C300.658 351.527 302.62 349.657 301.258 348.521C299.873 347.194 298.984 343.805 296.622 344.828Z" fill="white"/>
<path d="M74.8236 205.659C75.1038 205.651 75.6563 205.643 75.9285 205.635C77.738 207.306 79.3312 209.216 80.9485 211.071C82.2136 211.983 81.0366 213.933 79.6515 213.142C77.73 211.183 75.8725 209.144 74.1751 206.986C74.3432 206.658 74.6635 205.987 74.8236 205.659Z" fill="white"/>
<path d="M128.714 243.857C128.425 245.432 124.766 243.833 126.552 242.73C127.408 242.826 128.129 243.201 128.714 243.857Z" fill="white"/>
<path d="M86.5065 276.435C85.3696 275.323 88.2199 273.82 88.5402 275.347C89.6931 277.73 91.2544 280.088 91.3584 282.814C90.854 282.798 89.8292 282.766 89.3248 282.75C88.388 280.64 87.3392 278.585 86.5065 276.435Z" fill="white"/>
<path d="M134.223 356.004C140.565 339.232 146.683 322.371 153.137 305.655C153.609 305.623 154.562 305.551 155.042 305.519L154.906 306.678C151.967 330.814 148.556 354.893 145.465 379.013C147.403 379.205 149.325 379.42 151.263 379.644C150.454 382.322 148.789 384.617 147.259 386.919C150.734 389.39 154.29 391.756 157.797 394.186C158.67 394.858 159.855 395.417 159.895 396.721C158.582 397.064 157.645 395.969 156.628 395.393C153.169 392.971 149.669 390.613 146.194 388.214C144.977 389.597 143.752 390.98 142.543 392.388C145.642 394.962 148.66 397.648 151.767 400.214C152.416 400.662 153.833 402.181 152.152 402.485C148.3 399.759 144.961 396.385 141.278 393.451C137.45 396.952 133.246 400.094 128.554 402.349C127.465 402.884 126.208 402.653 125.046 402.732C116.791 402.693 108.527 402.74 100.263 402.7C110.441 396.377 118.28 386.951 124.846 377.078C129.242 370.674 131.484 363.183 134.223 356.004Z" fill="white"/>
<path d="M214.386 315.496C214.322 344.564 214.378 373.64 214.362 402.716C208.228 402.732 202.102 402.66 195.976 402.748C196.297 397.208 196.761 391.676 197.009 386.136C200.341 386.551 203.648 387.087 206.987 387.455C209.485 363.471 211.791 339.472 214.386 315.496Z" fill="white"/>
<path d="M84.0323 391.844C81.8142 381.571 82.0384 370.858 83.752 360.521C96.0435 366.741 108.543 372.545 121.083 378.245C116.078 385.568 110.137 392.356 103.13 397.832C99.5347 400.39 95.2988 403.412 90.6544 402.509C86.4025 400.79 85.1213 395.849 84.0323 391.844Z" fill="white"/>
<path d="M234.38 1.998C238.88 -2.33504 247.336 0.838792 247.737 7.11451C247.889 12.9345 244.245 17.9791 242.86 23.5033C249.835 29.2434 252.469 39.3485 249.378 47.8067C244.59 61.0057 239.561 74.1248 234.668 87.2998C225.38 112.411 215.771 137.41 206.658 162.584C212.071 162.448 218.157 160.802 221.352 156.085C225.228 149.425 223.226 141.471 221.889 134.388C233.043 126.241 245.15 119.558 257.378 113.186C263.607 124.49 267.779 137.21 267.507 150.217C267.611 159.083 265.225 167.821 261.549 175.831C259.5 179.813 257.073 183.626 254.087 186.984C246.616 195.45 236.126 200.95 225.068 202.997C214.161 204.987 202.783 204.332 192.149 201.222C181.507 229.259 171.161 257.416 160.567 285.477C159.743 287.491 159.414 289.65 159.19 291.808C155.795 320.189 151.863 348.497 148.228 376.846C167.07 379.548 185.927 382.059 204.761 384.793C208.876 345.683 212.904 306.566 216.347 267.393C225.9 299.675 238.656 331.357 257.578 359.37C262.15 365.766 266.73 372.417 273.056 377.238C286.845 365.878 300.682 354.581 314.511 343.277C301.09 325.713 288.567 307.006 281.096 286.076C276.419 270.879 273.641 255.185 270.422 239.628C267.011 221.816 263.728 203.972 260.709 186.08C261.501 185.96 262.302 185.841 263.103 185.729C267.627 212.111 272.384 238.461 278.061 264.619C280.359 274.604 282.537 284.701 286.813 294.071C294.845 311.922 305.847 328.295 317.906 343.661C316.937 344.42 315.976 345.196 315.015 345.963C321.077 353.27 326.962 360.721 333 368.044C313.862 385.712 294.74 403.404 275.539 421C272.432 417.163 270.422 411.654 272.76 406.946C275.963 401.102 277.524 394.474 277.949 387.863C282.649 387.207 287.446 387.759 292.122 387.007L292.25 385.704C287.542 385.688 282.825 385.928 278.125 386.176C278.101 384.305 278.101 382.426 278.093 380.564C283.226 379.844 288.374 379.189 293.491 378.357C293.467 377.989 293.427 377.262 293.411 376.902C288.35 377.294 283.322 378.181 278.341 379.109C278.125 378.501 277.709 377.27 277.5 376.654C276.075 377.877 274.618 379.061 273.176 380.26C268.02 376.99 264.216 372.113 260.485 367.397C250.251 353.91 242.059 339.008 234.797 323.754C228.07 309.748 222.785 295.11 217.693 280.456C217.348 283.95 216.82 287.443 216.772 290.961C216.796 329.023 216.772 367.093 216.796 405.155C209.789 405.203 202.775 405.123 195.768 405.195C195.528 408.872 195.28 412.55 195.064 416.227C169.055 416.235 143.047 416.243 117.031 416.227C117.095 412.046 118.785 407.913 121.98 405.163C112.403 405.307 102.802 404.899 93.2408 405.363C91.7194 409.2 90.4382 413.165 88.5645 416.843C86.6187 419.721 81.606 418.282 81.5019 414.804C81.8783 411.415 83.784 408.393 84.825 405.179C77.8265 405.155 70.836 405.171 63.8375 405.163C63.2689 404.347 62.7004 403.532 62.1319 402.733C70.1393 402.677 78.1548 402.749 86.1622 402.685C82.1906 397.016 80.8933 390.045 80.3568 383.282C79.5481 372.625 80.4209 361.76 83.3596 351.471C88.9809 336.154 94.7783 320.9 100.464 305.607C108.415 284.181 116.551 262.828 124.406 241.363C114.821 235.463 107.342 226.493 103.026 216.132C94.7863 197.145 96.0034 175.424 101.873 155.949C105.22 144.844 110.201 134.204 116.959 124.754C117.535 125.33 118.12 125.913 118.713 126.489C111.49 136.802 106.245 148.442 103.114 160.626C98.83 176.375 98.0453 193.419 103.146 209.073C105.981 217.971 110.689 226.405 117.431 232.944C120.682 236.174 124.75 238.381 128.362 241.163C132.742 244.305 136.841 247.982 141.814 250.197C143.544 251.06 145.497 250.748 147.347 250.54C145.121 245.336 141.814 240.555 137.482 236.886C136.305 235.822 134.775 234.903 134.551 233.192C137.122 233.84 138.891 235.926 140.725 237.693C144.416 241.339 147.139 245.832 149.149 250.588C152.224 249.965 154.898 248.286 156.964 245.959C153.649 239.484 149.325 233.632 145.377 227.556C146.923 226.765 147.611 228.435 148.428 229.299C151.903 234.072 155.106 239.06 157.877 244.289C159.799 243.921 162.121 243.753 163.322 241.962C164.795 239.772 164.179 236.854 162.914 234.711C160.439 230.354 156.892 226.749 153.697 222.919C155.307 221.96 156.916 221.001 158.526 220.041C161.729 222.695 165.596 225.222 169.952 224.814C170.08 220.313 166.861 216.62 163.202 214.421C157.084 210.76 149.926 209.456 142.975 208.321C135.248 189.782 135.873 168.141 144.368 149.977C144.865 150.377 145.866 151.192 146.362 151.6C145.762 152.919 145.177 154.246 144.633 155.589C139.916 168.189 138.523 182.131 141.534 195.29C144.513 188.183 147.075 180.9 149.725 173.665C148.028 171.474 145.986 169.156 146.09 166.206C145.986 163.999 147.411 162.193 148.524 160.434C148.524 158.987 148.5 157.54 148.532 156.085C148.949 152.647 151.823 150.305 155.09 149.673C155.211 149.242 155.443 148.37 155.555 147.93C156.74 146.012 158.646 144.797 160.776 144.133C169.079 122.18 177.255 100.179 185.455 78.178C188.69 69.6238 191.877 61.0537 195.08 52.4835C193.198 52.4755 191.316 52.4596 189.442 52.4436C190.035 58.5354 186.664 64.3554 181.315 67.1935C180.562 72.4219 178.744 77.6104 175.061 81.5197C171.257 85.7488 165.908 88.5549 160.159 88.7388C154.434 88.3551 148.941 85.6529 145.145 81.3598C140.677 76.2593 137.778 69.8557 136.697 63.1722C134.575 63.508 132.109 64.1556 130.267 62.6526C127.208 60.2862 126.768 56.0491 126.864 52.4596C89.9177 52.4755 52.9713 52.4356 16.0169 52.4755C16.0169 169.212 16.0089 285.948 16.025 402.685C23.3037 402.741 30.5905 402.708 37.8693 402.708C37.9494 403.308 38.1095 404.499 38.1896 405.099C29.9899 405.243 21.7903 405.171 13.5987 405.131C13.6147 286.772 13.5987 168.42 13.6067 50.0692C51.6181 50.0452 89.6295 50.0772 127.633 50.0532C129.467 45.7361 133.478 43.026 137.546 41.0513C141.99 33.1767 152.312 32.8969 160.183 34.4558C167.774 28.5239 179.954 37.142 177.527 46.2478C181.611 45.0886 186.287 46.2798 188.554 50.0452C191.036 50.0772 193.518 50.0692 196.008 50.0452C198.347 43.7455 200.685 37.4458 203.071 31.1621C205.185 25.8377 209.125 21.113 214.394 18.6906C218.469 16.62 223.146 16.3162 227.63 16.604C229.936 11.7833 230.545 5.93132 234.38 1.998ZM213.12 22.2402C207.011 26.0776 204.584 33.2727 202.583 39.8122C216.363 45.0966 230.008 50.7088 243.621 56.4009C245.887 50.1092 249.298 43.6975 247.921 36.7823C245.126 22.0483 225.596 14.0138 213.12 22.2402ZM171.738 56.3369C171.562 58.2076 169.456 59.6786 167.686 58.7113C166.013 56.6967 165.436 53.6987 162.858 52.5155C160.199 51.4842 157.148 52.0119 154.594 53.1151C149.117 55.3936 144.264 58.8632 139.084 61.7013C140.213 71.3507 145.57 81.6876 155.13 85.2692C160.952 87.4917 167.694 85.493 171.97 81.144C176.494 77.1307 178.736 71.1348 178.897 65.1789C183.925 63.8518 187.408 58.6633 186.936 53.5228C186.808 50.8367 184.502 48.5103 181.819 48.3024C177.087 47.8627 172.298 51.5802 171.738 56.3369ZM197.041 54.2583C185.831 84.3418 174.372 114.337 163.426 144.501C168.239 145.588 171.834 149.154 176.03 151.496C175.974 151.288 175.878 150.88 175.83 150.673C173.043 148.426 170.361 145.924 168.599 142.766C167.702 141.175 167.19 139.04 168.183 137.378C169.536 135.563 172.106 135.907 173.988 136.57C179.305 138.465 184.646 141.039 188.321 145.46C192.005 149.673 193.598 155.133 194.919 160.442C197.786 161.561 200.877 161.873 203.872 162.496C210.678 144.956 217.052 127.233 223.738 109.645C228.423 96.8133 233.451 84.102 237.96 71.2148C224.299 65.6186 210.774 59.6866 197.041 54.2583ZM224.523 135.427C225.892 141.735 227.045 148.522 224.707 154.758C223.202 159.283 218.942 162.297 214.554 163.696C207.387 166.038 199.748 164.511 192.725 162.448C191.508 155.022 188.57 147.131 181.859 142.982C178.248 140.895 174.396 138.617 170.128 138.457C170.056 143.549 175.029 146.515 178.32 149.649C178.352 151.72 178.408 153.782 178.432 155.853C172.979 153.215 168.655 148.394 162.705 146.835C160.127 146.076 157.933 148.018 157.284 150.385C158.95 152.679 160.367 155.165 162.073 157.46C159.07 157.988 157.765 154.198 156.732 152C154.938 152.335 152.728 152.575 151.751 154.342C149.902 157.748 151.207 162.113 153.817 164.751C154.602 165.638 156.884 165.566 156.356 167.189C153.417 167.765 151.167 164.687 150.302 162.185C149.501 163.424 148.412 164.639 148.5 166.214C148.604 168.828 150.558 170.835 152.224 172.666C157.813 178.342 164.315 183.002 170.633 187.823C182.9 197.257 198.531 202.013 213.961 201.71C225.956 201.566 238.136 197.856 247.4 190.078C257.538 181.651 263.247 168.844 264.809 155.941C266.306 142.326 262.631 128.6 256.329 116.592C245.302 122.108 234.628 128.368 224.523 135.427ZM151.583 175.719C148.636 183.778 145.562 191.78 142.615 199.839C143.279 201.997 144 204.148 144.825 206.259C152.168 207.306 159.735 209.025 165.94 213.27C169.192 215.532 171.714 219.002 172.33 222.959C172.675 224.694 171.682 226.677 169.896 227.156C166.269 227.804 162.85 225.933 159.871 224.094C159.102 223.751 158.253 222.759 157.365 223.439C161.088 228.116 166.173 232.665 166.645 238.98C166.869 243.137 163.234 246.135 159.374 246.647C157.14 249.869 153.761 252.171 149.886 252.867C155.827 255.049 161.632 257.608 167.534 259.91C174.973 240.131 182.356 220.337 189.731 200.535C183.557 198.456 177.583 195.682 172.226 191.972C165.1 186.872 158.181 181.483 151.583 175.719ZM128.714 243.857C128.129 243.201 127.409 242.826 126.552 242.73C124.766 243.833 128.426 245.432 128.714 243.857ZM155.907 298.116C154.922 300.602 154.001 303.12 153.137 305.655C146.683 322.371 140.565 339.232 134.223 356.004C131.484 363.184 129.242 370.674 124.846 377.078C118.28 386.951 110.441 396.377 100.263 402.701C108.527 402.74 116.791 402.693 125.046 402.733C126.208 402.653 127.465 402.884 128.554 402.349C133.246 400.094 137.45 396.952 141.278 393.451C144.961 396.385 148.3 399.759 152.152 402.485C153.833 402.181 152.416 400.662 151.767 400.214C148.66 397.648 145.642 394.962 142.543 392.388C143.752 390.981 144.977 389.597 146.194 388.214C149.669 390.613 153.169 392.971 156.628 395.393C157.645 395.969 158.582 397.064 159.895 396.721C159.855 395.417 158.67 394.858 157.797 394.186C154.29 391.756 150.734 389.39 147.259 386.919C148.789 384.617 150.454 382.322 151.263 379.644C149.325 379.42 147.403 379.205 145.465 379.013C148.556 354.893 151.967 330.814 154.906 306.678C155.259 303.824 155.579 300.97 155.907 298.116ZM214.386 315.496C211.791 339.472 209.485 363.471 206.987 387.455C203.648 387.087 200.341 386.552 197.009 386.136C196.761 391.676 196.297 397.208 195.976 402.748C202.102 402.661 208.228 402.732 214.362 402.717C214.378 373.64 214.322 344.564 214.386 315.496ZM84.0323 391.844C85.1213 395.849 86.4025 400.79 90.6544 402.509C95.2987 403.412 99.5347 400.39 103.13 397.832C110.137 392.356 116.078 385.568 121.083 378.245C108.543 372.545 96.0434 366.741 83.752 360.521C82.0384 370.858 81.8142 381.571 84.0323 391.844Z" fill="#303030"/>
<path d="M175.309 60.2383C174.829 56.6407 176.87 52.7873 180.361 51.5562C181.074 51.2204 182.387 51.1804 182.155 52.3157C180.545 53.5788 178.256 54.1864 177.503 56.3209C176.654 57.5761 177.559 60.4781 175.309 60.2383Z" fill="#303030"/>
<path d="M154.442 65.2989C155.691 65.0271 157.66 65.3628 157.316 67.0577C157.244 68.6006 155.379 68.3208 154.338 68.1769C154.314 67.2096 154.354 66.2502 154.442 65.2989Z" fill="#303030"/>
<path d="M147.307 69.408L148.356 68.8484C149.725 72.5179 151.527 76.0115 153.728 79.2573C153.368 79.3932 152.655 79.657 152.295 79.7849C150.085 76.707 147.699 73.1575 147.307 69.408Z" fill="#303030"/>
<path d="M46.4533 78.09C70.5878 78.082 94.7222 78.082 118.857 78.09C118.841 84.3177 118.865 90.5455 118.841 96.7732C94.7142 96.7812 70.5878 96.7732 46.4533 96.7812C46.4453 90.5455 46.4533 84.3177 46.4533 78.09ZM48.8075 80.4644C48.8155 85.1012 48.7835 89.73 48.8235 94.3669C70.4917 94.3829 92.1678 94.3589 113.844 94.3829C114.741 94.3429 115.638 94.223 116.527 94.0311C116.342 89.5062 116.494 84.9893 116.43 80.4644C93.8895 80.4484 71.3485 80.4564 48.8075 80.4644Z" fill="#303030"/>
<path d="M128.362 80.0166C134.039 78.3857 139.54 84.9652 136.962 90.2496C135.112 95.4701 127.224 96.4614 124.07 91.9525C120.522 87.9472 123.109 80.904 128.362 80.0166Z" fill="#303030"/>
<path d="M152.904 119.686C154.153 119.19 154.874 119.518 155.082 120.669C155.651 123.603 156.275 126.537 156.651 129.503C157.388 131.078 154.329 131.502 154.362 129.975C153.929 126.553 152.616 123.147 152.904 119.686Z" fill="#303030"/>
<path d="M44.1391 137.633C56.7188 137.649 69.2985 137.625 81.8783 137.641C83.4317 137.322 84.3766 138.481 83.5278 139.92C71.1803 140.136 58.8168 139.944 46.4613 140.008C46.3892 153.535 46.5414 167.069 46.3892 180.596C46.7896 182.107 43.7868 182.219 44.1631 180.644C44.011 166.31 44.0671 151.968 44.1391 137.633Z" fill="#303030"/>
<path d="M250.219 193.683C251.316 193.14 252.445 193.667 252.565 194.93C253.526 198.112 254.823 201.278 255.279 204.556L254.831 205.371C254.43 205.307 253.63 205.171 253.229 205.107C252.325 202.589 251.676 199.991 250.803 197.465C250.475 196.233 249.787 194.97 250.219 193.683Z" fill="#303030"/>
<path d="M193.79 211.839C192.469 210.008 194.767 209.209 196.169 209.904C200.437 210.808 204.737 211.567 209.077 212.095C210.198 220.969 211.079 229.874 212.472 238.716C213.689 246.647 214.682 254.682 217.228 262.324C216.412 262.708 215.002 263.484 214.666 262.093C213.12 257.951 212.536 253.53 211.647 249.229C209.749 237.677 208.148 226.069 206.995 214.421C202.615 213.462 198.138 212.974 193.79 211.839Z" fill="#303030"/>
<path d="M255.392 213.31C255.856 213.07 256.777 212.59 257.241 212.35C258.618 215.788 259.099 219.497 259.883 223.095C260.5 224.35 258.298 225.669 257.738 224.094C256.833 220.529 256.008 216.931 255.392 213.31Z" fill="#303030"/>
<path d="M259.652 232.393C260.06 232.289 260.869 232.081 261.277 231.977C262.822 235.774 263.143 240.004 263.767 244.041C262.214 244.688 261.085 243.785 261.133 242.178C260.709 238.908 259.572 235.71 259.652 232.393Z" fill="#303030"/>
<path d="M263.471 251.931C263.912 251.891 264.784 251.811 265.225 251.771C266.033 255.481 266.714 259.222 267.266 262.988C266.714 264.411 264.84 264.043 264.792 262.588C264.176 259.254 263.503 255.913 263.095 252.547L263.471 251.931Z" fill="#303030"/>
<path d="M266.85 272.461C266.634 271.134 267.931 271.294 268.804 271.206C269.709 274.596 270.309 278.066 271.174 281.471C271.782 282.862 270.373 283.894 269.14 283.062C268.155 279.585 267.315 276.043 266.85 272.461Z" fill="#303030"/>
<path d="M41.9771 285.381C42.1373 283.694 44.6596 284.469 44.2752 286.036C44.3073 297.956 44.2672 309.868 44.2913 321.78C56.2624 321.78 68.2255 321.788 80.1967 321.78C82.0945 321.796 84.0082 321.636 85.89 322.012C86.4825 323.523 85.6658 324.362 84.1524 324.21C70.0593 324.226 55.9741 324.21 41.881 324.21C41.9371 311.267 41.7369 298.316 41.9771 285.381Z" fill="#303030"/>
<path d="M271.407 290.673C271.879 290.681 272.824 290.697 273.296 290.705C274.705 293.983 275.482 297.524 276.739 300.874C277.404 302.121 275.026 303.424 274.561 301.737C273.264 298.14 271.703 294.51 271.407 290.673Z" fill="#303030"/>
<path d="M278.173 309.684C279.15 309.004 280.303 309.316 280.607 310.507C281.872 313.329 283.081 316.176 284.322 319.014C285.411 320.173 282.729 321.868 282.304 320.165C280.807 316.759 278.589 313.385 278.173 309.684Z" fill="#303030"/>
<path d="M286.709 327.648C287.117 327.632 287.934 327.592 288.342 327.576C290.184 330.766 291.921 334.027 293.618 337.297L293.266 338.169C292.85 338.209 292.017 338.289 291.609 338.328C289.607 335.195 287.902 331.877 286.301 328.527L286.709 327.648Z" fill="#303030"/>
<path d="M296.622 344.828C298.984 343.805 299.873 347.194 301.258 348.522C302.619 349.657 300.657 351.527 299.576 350.192C298.432 348.569 296.126 347.027 296.622 344.828Z" fill="#303030"/>
<path d="M39.5829 402.709C46.0929 402.709 52.595 402.748 59.1051 402.693C59.6816 403.516 60.2661 404.331 60.8587 405.155C54.9892 405.227 49.1118 405.059 43.2503 405.243C42.0252 404.403 40.8 403.564 39.5829 402.709Z" fill="#303030"/>
<path d="M175.061 81.5197C178.504 80.3285 181.835 78.7776 185.455 78.178C177.255 100.179 169.079 122.18 160.776 144.133C158.646 144.797 156.74 146.012 155.555 147.93C155.403 144.908 155.146 141.887 154.914 138.865C151.023 142.286 148.564 146.987 146.362 151.6C145.866 151.192 144.865 150.377 144.368 149.977C135.792 142.174 127.008 134.595 118.712 126.489C118.12 125.913 117.535 125.33 116.959 124.754C127.849 109.133 143.672 97.8446 160.159 88.7388C165.908 88.5549 171.257 85.7488 175.061 81.5197ZM152.904 119.686C152.616 123.147 153.929 126.553 154.362 129.975C154.33 131.502 157.389 131.078 156.652 129.503C156.275 126.537 155.651 123.603 155.082 120.669C154.874 119.518 154.153 119.19 152.904 119.686Z" fill="#2979FF"/>
<path d="M206.658 162.584C215.771 137.41 225.38 112.411 234.668 87.2998C243.909 94.2471 251.772 103.073 257.378 113.186C245.15 119.558 233.043 126.241 221.889 134.388C223.226 141.471 225.228 149.425 221.352 156.085C218.157 160.802 212.071 162.449 206.658 162.584Z" fill="#2979FF"/>
<path d="M0.0420391 103.153C3.20498 102.905 6.37594 102.881 9.53888 103.153C9.49884 131.598 9.52287 160.034 9.52287 188.479C6.36794 188.543 3.20498 188.543 0.0420391 188.463C-0.014013 160.026 -0.014013 131.59 0.0420391 103.153Z" fill="#2979FF"/>
<path d="M141.534 195.29C138.523 182.131 139.916 168.189 144.633 155.589C145.93 155.757 147.227 155.925 148.532 156.085C148.5 157.54 148.524 158.987 148.524 160.434C147.411 162.193 145.986 163.999 146.09 166.206C145.986 169.156 148.028 171.474 149.725 173.665C147.075 180.9 144.513 188.183 141.534 195.29Z" fill="#2979FF"/>
<path d="M59.4814 155.965C73.6145 155.941 87.7397 155.965 101.873 155.949C96.0034 175.424 94.7863 197.145 103.026 216.132C107.342 226.493 114.821 235.463 124.406 241.363C116.55 262.828 108.415 284.181 100.464 305.607C86.8028 305.559 73.1421 305.591 59.4814 305.591C59.4413 281.511 59.5695 257.424 59.4173 233.344C56.1983 236.326 53.3957 239.724 50.1847 242.706C49.2238 243.657 48.4231 243.481 47.7905 242.178C51.0495 237.877 55.2855 234.415 58.7767 230.314C59.6575 229.443 59.4253 228.14 59.5054 227.028C59.4494 203.341 59.4894 179.653 59.4814 155.965ZM74.8237 205.659C74.6635 205.987 74.3432 206.658 74.1751 206.986C75.8726 209.145 77.7304 211.183 79.6522 213.142C81.0375 213.933 82.2145 211.983 80.9494 211.071C79.3319 209.217 77.7384 207.306 75.9287 205.635C75.6564 205.643 75.1039 205.651 74.8237 205.659ZM86.5065 276.435C87.3393 278.585 88.3883 280.64 89.3252 282.75C89.8296 282.766 90.8546 282.798 91.3591 282.814C91.255 280.088 89.6935 277.73 88.5404 275.347C88.2201 273.82 85.3695 275.323 86.5065 276.435Z" fill="#2979FF"/>
<path d="M254.087 186.984C257.073 183.626 259.5 179.813 261.549 175.831C262.799 178.965 263.583 182.259 264.312 185.553L263.103 185.729C262.302 185.841 261.501 185.961 260.709 186.08C258.507 186.424 256.297 186.72 254.087 186.984Z" fill="#2979FF"/>
<path d="M155.907 298.116C155.578 300.97 155.258 303.824 154.906 306.678L155.042 305.519C154.562 305.551 153.609 305.623 153.137 305.655C154.001 303.12 154.922 300.602 155.907 298.116Z" fill="#2979FF"/>
<path d="M42.0331 376.71C43.0341 376.414 44.051 376.75 44.5395 377.718C50.3769 386.072 56.2464 394.41 62.1319 402.732C62.7004 403.532 63.2689 404.347 63.8374 405.163C66.576 409.272 69.6588 413.165 72.2773 417.354C73.054 419.017 70.3715 419.289 69.875 417.994C66.8642 413.717 63.8855 409.416 60.8587 405.155C60.2661 404.331 59.6816 403.516 59.105 402.692C53.8041 395.106 48.4791 387.535 43.1222 379.988C42.4655 379.005 41.6167 377.965 42.0331 376.71Z" fill="#2979FF"/>
<path d="M37.8693 402.708C38.3017 402.708 39.1585 402.708 39.5829 402.708C40.8 403.564 42.0251 404.403 43.2503 405.243C48.7914 409.16 54.5408 412.79 60.0659 416.731C61.6194 417.49 60.114 419.689 58.7527 418.61C51.7782 414.309 45.3162 409.136 38.1896 405.099C38.1095 404.499 37.9493 403.308 37.8693 402.708Z" fill="#2979FF"/>
</svg>
