<svg width="303" height="463" viewBox="0 0 303 463" fill="none" xmlns="http://www.w3.org/2000/svg">
<path d="M200.151 46.31C203.239 37.2239 206.497 28.2078 209.556 19.1118C234.751 27.858 259.936 36.6442 285.131 45.3904C280.823 57.5252 276.776 69.7499 272.348 81.8446C269.73 83.254 267.771 85.4931 265.752 87.6022C262.924 90.5309 259.006 91.9103 255.218 93.0898C255.698 88.9916 259.306 86.5026 260.905 82.9342C261.695 81.2849 261.475 79.0559 259.786 78.0563C256.528 77.1567 253.3 78.686 250.671 80.4852C243.715 85.3232 238.009 91.6804 232.452 98.0177C232.072 98.4575 231.313 99.3171 230.923 99.7469C216.232 94.6591 201.55 89.5413 186.869 84.4135C187.619 80.1454 191.826 78.1263 193.735 74.5078C196.643 69.7299 197.673 64.1123 198.162 58.6147C200.301 55.9958 203.199 53.3969 203.379 49.7985C203.559 47.8493 201.4 47.2596 200.151 46.31ZM233.431 40.0827C232.192 42.4717 235.49 42.2817 236.699 43.1014C244.355 45.6903 251.97 48.3891 259.606 51.058C260.985 51.4178 262.354 52.2974 263.833 51.8876C265.372 49.8985 262.234 49.7185 261.155 49.0388C253.489 46.39 245.814 43.7411 238.159 41.0323C236.609 40.6325 235.07 39.6929 233.431 40.0827ZM231.672 45.7303L231.103 46.8198L231.652 47.7294C241.257 51.3978 251.061 54.6364 260.795 57.975C263.124 57.7851 261.894 55.486 260.305 55.3361C250.731 52.2474 241.397 48.2792 231.672 45.7303ZM224.846 53.8667C222.468 55.2861 222.058 58.3448 221.199 60.7538C220.269 63.2327 221.488 66.3613 224.117 67.151C232.602 70.2297 241.177 73.0684 249.682 76.0971C251.93 76.8668 254.419 78.0563 256.777 76.8968C259.136 75.3275 259.746 72.3188 260.595 69.7999C261.735 67.151 259.996 64.0923 257.317 63.3426C248.892 60.264 240.367 57.4952 231.942 54.4365C229.674 53.7268 227.085 52.4074 224.846 53.8667Z" fill="white"/>
<path d="M197.253 50.0384C198.432 49.0788 200.011 49.1887 201.43 49.1088C200.501 52.4973 198.142 55.1362 195.784 57.6251C195.564 66.2114 192.476 75.1175 185.19 80.2053C181.492 78.706 177.994 76.7968 174.346 75.2075C178.784 66.5512 183.541 57.5451 191.576 51.6677C189.437 54.5464 187.199 57.3652 185.4 60.4739C184.75 61.5934 182.841 64.752 185.81 64.2822C189.188 59.2344 192.096 53.5568 197.253 50.0384Z" fill="white"/>
<path d="M141.186 62.2631C144.394 64.3722 147.113 67.2109 148.922 70.6295C147.772 69.7398 146.733 68.7303 145.613 67.8207C144.344 69.0801 142.805 69.9597 141.036 70.3096C141.006 71.619 141.256 72.8885 142.875 73.0284C143.974 72.0888 144.834 70.9093 145.733 69.7798C147.722 72.3987 149.991 74.8576 151.56 77.7664C153.529 83.334 153.369 90.4409 148.892 94.789C143.984 99.6369 136.569 101.256 129.923 99.9268C132.581 97.4779 135.26 94.7091 135.889 90.9807C131.602 94.6491 124.616 94.9489 120.398 91.0306C117.32 87.9819 116.781 82.0645 120.598 79.3857C124.586 76.6568 129.913 76.8368 134.39 78.1162C135.12 76.0071 134.47 73.7881 134.62 71.629C136.209 68.1305 139.037 65.4017 141.186 62.2631ZM122.877 86.7725C125.885 84.4235 129.483 83.264 133.251 84.5534C131.322 80.4252 123.087 82.2544 122.877 86.7725Z" fill="white"/>
<path d="M251.701 82.6843C253.879 81.045 256.488 80.0854 259.226 79.9854C258.506 83.5039 255.828 85.9729 253.959 88.8816C252.97 91.0607 253.08 93.5496 252.73 95.8786C258.267 94.959 263.973 93.0998 267.861 88.8316C269.68 87.1623 271.099 84.5335 273.797 84.2936C275.516 85.8929 274.747 88.2818 274.057 90.171C272.428 95.1889 268.141 98.4475 263.773 100.986C265.023 101.406 266.402 101.316 267.491 100.527C271.159 98.5574 273.318 94.909 275.766 91.7104C276.206 94.3392 276.016 97.0081 275.306 99.577C273.278 101.186 272.368 103.785 270.339 105.394C269.07 106.644 267.041 107.464 266.901 109.483C271.559 107.843 274.317 103.605 276.546 99.467C276.376 101.186 276.506 103.015 275.726 104.615C272.948 110.462 269.91 116.68 264.243 120.258C260.265 123.087 255.278 123.657 251.011 125.876C247.273 116.1 241.656 106.964 234.111 99.6669C239.568 93.6195 245.014 87.4222 251.701 82.6843Z" fill="white"/>
<path d="M149.841 116.929C160.814 116.27 170.739 121.667 180.913 124.836L181.572 125.626L181.202 126.945C175.436 126.295 170.289 123.227 164.772 121.607C159.905 119.848 154.698 119.638 149.651 118.789C149.701 118.319 149.791 117.389 149.841 116.929Z" fill="white"/>
<path d="M95.6232 258.678C94.6138 258.258 95.6432 255.919 96.6926 256.909C100.95 257.949 104.958 259.808 109.105 261.177C110.594 264.006 112.323 266.705 113.563 269.653L112.813 270.513C109.685 269.773 109.295 265.425 107.446 263.106C103.549 261.487 99.401 260.547 95.6232 258.678Z" fill="white"/>
<path d="M233.901 12.2347C241.926 8.27642 249.812 4.04825 257.797 0C262.044 8.28642 265.972 16.7328 270.299 24.9792C277.605 27.3882 284.831 30.027 292.117 32.496C286.4 49.0488 280.563 65.5517 274.897 82.1245C277.375 83.9137 277.215 86.9324 277.095 89.6613C279.244 93.7595 277.765 98.3875 278.814 102.746C275.926 111.102 271.159 119.758 262.874 123.807C259.336 125.736 255.098 126.046 251.79 128.454C251.591 127.805 251.211 126.525 251.011 125.876C255.278 123.657 260.265 123.087 264.243 120.258C269.91 116.68 272.948 110.462 275.726 104.615C276.506 103.015 276.376 101.186 276.546 99.467C274.317 103.605 271.559 107.843 266.901 109.483C267.041 107.464 269.07 106.644 270.339 105.394C272.368 103.785 273.278 101.186 275.306 99.577C276.016 97.0081 276.206 94.3392 275.766 91.7104C273.318 94.909 271.159 98.5574 267.491 100.527C266.402 101.316 265.023 101.406 263.773 100.986C268.141 98.4475 272.428 95.1889 274.057 90.171C274.747 88.2819 275.516 85.8929 273.797 84.2936C271.099 84.5335 269.68 87.1623 267.861 88.8316C263.973 93.0998 258.267 94.959 252.73 95.8786C253.08 93.5496 252.97 91.0607 253.959 88.8816C255.828 85.9729 258.506 83.5039 259.226 79.9855C256.488 80.0854 253.879 81.045 251.701 82.6843C245.014 87.4222 239.568 93.6195 234.111 99.6669C233.691 99.2571 232.872 98.4375 232.452 98.0177C238.009 91.6804 243.715 85.3231 250.671 80.4852C253.3 78.686 256.528 77.1567 259.786 78.0563C261.475 79.0558 261.695 81.2849 260.905 82.9342C259.306 86.5026 255.698 88.9915 255.218 93.0898C259.006 91.9103 262.924 90.5309 265.752 87.6021C267.771 85.4931 269.73 83.254 272.348 81.8446C276.776 69.7499 280.823 57.5251 285.131 45.3904C259.936 36.6442 234.751 27.858 209.556 19.1117C206.497 28.2078 203.239 37.2239 200.151 46.31C201.4 47.2596 203.559 47.8493 203.379 49.7985C203.199 53.3969 200.301 55.9958 198.162 58.6147C197.673 64.1123 196.643 69.7299 193.735 74.5078C191.826 78.1262 187.619 80.1454 186.869 84.4135C201.55 89.5413 216.232 94.6591 230.923 99.7469C230.363 100.387 229.804 101.036 229.254 101.686C218.24 97.8677 207.237 94.0194 196.223 90.211C192.156 88.8116 188.108 87.3723 184.051 85.9629C184.53 84.0637 184.98 82.1545 185.19 80.2053C192.476 75.1175 195.564 66.2114 195.784 57.6251C198.142 55.1362 200.501 52.4973 201.43 49.1088C200.011 49.1887 198.432 49.0788 197.253 50.0384C192.096 53.5569 189.188 59.2344 185.81 64.2822C182.841 64.752 184.75 61.5934 185.4 60.4739C187.199 57.3652 189.437 54.5464 191.576 51.6677C183.541 57.5451 178.784 66.5512 174.346 75.2075C173.797 74.9676 172.687 74.4878 172.138 74.2479C177.934 63.0628 184.68 50.1783 197.603 46.21C202.47 32.416 207.337 18.612 211.994 4.73795C219.36 7.03696 226.575 9.79577 233.901 12.2347ZM237.049 13.4742C247.083 16.6428 256.917 20.3912 266.901 23.6998C263.523 16.8727 260.145 10.0457 256.777 3.20861C250.181 6.58715 243.555 9.92571 237.049 13.4742Z" fill="#303030"/>
<path d="M233.431 40.0827C235.07 39.6929 236.609 40.6324 238.159 41.0323C245.814 43.7411 253.489 46.39 261.155 49.0388C262.234 49.7185 265.372 49.8984 263.833 51.8876C262.354 52.2974 260.985 51.4178 259.606 51.0579C251.97 48.3891 244.355 45.6903 236.699 43.1014C235.49 42.2817 232.192 42.4717 233.431 40.0827Z" fill="#303030"/>
<path d="M231.672 45.7302C241.397 48.2791 250.731 52.2474 260.305 55.3361C261.894 55.486 263.124 57.785 260.795 57.9749C251.061 54.6364 241.257 51.3978 231.652 47.7294L231.103 46.8198L231.672 45.7302Z" fill="#303030"/>
<path d="M277.625 80.8051C281.573 68.7303 285.84 56.7455 290.118 44.7706C291.797 45.3904 293.496 46.0001 295.195 46.5998C291.307 58.6346 286.8 70.4695 282.892 82.5043C281.123 81.9446 279.374 81.3748 277.625 80.8051Z" fill="#303030"/>
<path d="M127.754 57.0753C132.251 55.496 136.609 51.8876 141.626 52.9671C144.764 54.1066 143.874 58.1249 142.805 60.4539C149.981 65.0719 153.699 73.4283 154.928 81.6147C155.687 86.8825 154.538 92.69 150.601 96.4983C145.164 101.676 136.979 103.935 129.673 102.146C126.705 101.406 123.417 101.406 120.908 99.437C115.122 95.2289 110.664 88.8916 109.285 81.8147C107.856 70.4895 116.791 59.3244 127.754 57.0753ZM141.186 62.2631C139.037 65.4017 136.209 68.1306 134.62 71.6291C134.47 73.7881 135.12 76.0072 134.39 78.1163C129.913 76.8368 124.586 76.6569 120.598 79.3857C116.781 82.0646 117.32 87.982 120.398 91.0307C124.616 94.949 131.602 94.6491 135.889 90.9807C135.26 94.7091 132.581 97.4779 129.923 99.9268C136.569 101.256 143.984 99.637 148.892 94.7891C153.369 90.4409 153.529 83.334 151.56 77.7664C149.991 74.8577 147.722 72.3987 145.733 69.7799C144.834 70.9094 143.974 72.0889 142.875 73.0285C141.256 72.8885 141.006 71.6191 141.036 70.3096C142.805 69.9598 144.344 69.0802 145.613 67.8207C146.733 68.7303 147.772 69.7399 148.922 70.6295C147.113 67.211 144.394 64.3722 141.186 62.2631Z" fill="#303030"/>
<path d="M224.846 53.8667C227.085 52.4074 229.674 53.7268 231.942 54.4365C240.367 57.4952 248.892 60.264 257.317 63.3426C259.996 64.0923 261.735 67.151 260.595 69.7999C259.746 72.3188 259.136 75.3275 256.777 76.8968C254.419 78.0563 251.93 76.8668 249.682 76.0971C241.177 73.0684 232.602 70.2297 224.117 67.151C221.488 66.3613 220.269 63.2327 221.199 60.7538C222.058 58.3448 222.468 55.2861 224.846 53.8667Z" fill="#303030"/>
<path d="M122.877 86.7718C123.087 82.2545 131.322 80.4255 133.251 84.5531C129.483 83.2639 125.885 84.4232 122.877 86.7718Z" fill="#303030"/>
<path d="M288.419 139.6C292.236 139.64 292.336 144.598 294.605 146.847C297.293 145.737 300.102 142.348 303 143.628C301.941 146.637 298.003 147.136 295.614 148.886C296.764 151.634 299.302 154.093 299.272 157.122L297.703 157.412C296.144 155.023 294.945 152.424 293.316 150.075C290.797 151.465 288.449 153.424 285.56 153.973L284.861 152.544C287.099 150.625 289.878 149.485 292.386 147.966C290.977 145.227 288.838 142.738 288.419 139.6Z" fill="#303030"/>
<path d="M142.865 171.816C146.483 169.567 151.23 171.176 155.138 172.055C157.396 173.005 161.514 172.995 160.635 176.463C156.757 175.144 152.889 173.555 148.762 173.245C146.763 172.945 144.454 173.395 142.865 171.816Z" fill="#303030"/>
<path d="M233.701 204.911C241.706 204.762 249.732 204.742 257.747 204.921C257.887 205.401 258.177 206.361 258.327 206.84C254.179 207.62 249.902 206.97 245.704 207.17C241.507 206.98 237.239 207.59 233.092 206.85L232.932 205.581L233.701 204.911Z" fill="#303030"/>
<path d="M71.8773 212.748C97.0424 219.065 122.517 224.893 148.492 226.572C160.954 250.242 171.438 274.931 180.463 300.1C188.528 323.03 195.254 346.47 199.541 370.41C202.35 384.964 203.419 399.787 204.568 414.521L206.417 413.701C205.438 372.999 194.794 333.166 181.142 295.013C174.976 277.96 167.88 261.257 160.305 244.784C161.834 239.527 161.564 233.959 160.435 228.661C163.943 232.749 166.541 237.537 169.439 242.065C181.062 260.817 189.697 281.288 195.954 302.419C206.927 339.483 213.313 377.767 217.411 416.15C214.203 416.83 210.975 417.37 207.767 417.989C191.037 421.188 174.286 424.287 157.556 427.505C157.007 427.605 155.897 427.805 155.348 427.895C148.422 395.859 141.556 363.783 136.469 331.387C133.481 317.173 127.664 303.769 121.758 290.564C119.389 285.577 117.4 280.389 114.662 275.591C113.652 298.941 107.166 321.561 100.011 343.662C92.1852 367.311 83.1306 390.551 73.4064 413.481C72.1172 416.38 71.0678 419.389 69.4188 422.118C66.7004 420.758 63.882 419.599 61.0737 418.419C45.443 411.762 29.7823 405.165 14.1516 398.518C13.5419 398.268 12.3327 397.778 11.723 397.528C21.1274 369.211 31.7611 341.233 44.1638 314.074C51.7393 295.063 55.467 274.841 60.0843 254.98C63.2824 240.726 66.3406 226.322 71.8773 212.748ZM95.6232 258.678C99.4009 260.547 103.549 261.487 107.446 263.106C109.295 265.425 109.685 269.773 112.813 270.513L113.563 269.654C112.323 266.705 110.594 264.006 109.105 261.177C104.958 259.808 100.95 257.949 96.6926 256.909C95.6432 255.919 94.6138 258.258 95.6232 258.678Z" fill="#303030"/>
<path d="M255.059 217.986C256.238 216.407 260.195 217.436 257.757 219.215C253.799 221.424 249.732 223.443 245.594 225.283C242.876 224.943 245.174 222.684 246.374 222.364C249.252 220.885 252.18 219.475 255.059 217.986Z" fill="#303030"/>
<path d="M151.27 226.732C153.349 226.782 155.428 226.742 157.506 226.612C158.426 231.21 159.845 236.218 158.386 240.826C156.017 236.128 153.769 231.37 151.27 226.732Z" fill="#303030"/>
<path d="M61.4135 426.246C63.3124 425.276 61.7333 428.465 62.0331 429.404L61.4635 427.815C58.915 429.054 56.4465 431.942 53.3383 430.813C55.9168 429.094 58.5852 427.505 61.4135 426.246Z" fill="#303030"/>
<path d="M212.264 428.985C212.624 428.885 213.363 428.665 213.723 428.555C213.593 429.085 213.323 430.164 213.193 430.704C212.144 432.823 211.304 435.402 208.976 436.451C209.775 433.843 210.825 431.304 212.264 428.985Z" fill="#303030"/>
<path d="M62.1531 429.844C63.882 430.714 63.3124 432.803 63.2924 434.372C63.1225 434.102 62.7827 433.573 62.6128 433.313C60.544 434.522 58.6152 435.942 56.6163 437.261C57.0661 433.813 61.2936 433.073 62.1531 429.844Z" fill="#303030"/>
<path d="M216.371 434.672C216.661 434.382 217.231 433.793 217.511 433.503C217.511 434.162 217.521 435.492 217.521 436.152C216.531 438.141 215.362 440.04 214.133 441.909C213.753 439.26 214.972 436.821 216.371 434.672Z" fill="#303030"/>
<path d="M275.986 17.9723C278.804 16.0031 283.082 18.2321 283.142 21.6507C283.552 25.409 278.734 28.0079 275.776 25.7389C273.138 24.0496 273.228 19.4716 275.986 17.9723Z" fill="#FE3C6B"/>
<path d="M286.03 21.1504C288.808 19.2912 292.926 21.3803 293.106 24.6989C293.546 27.9475 289.818 30.9462 286.78 29.4568C283.252 28.4073 282.792 22.7997 286.03 21.1504Z" fill="#FE3C6B"/>
<path d="M172.138 74.248C172.687 74.4879 173.797 74.9676 174.346 75.2075C177.994 76.7968 181.492 78.706 185.19 80.2054C184.98 82.1545 184.53 84.0637 184.051 85.9629C188.108 87.3723 192.156 88.8117 196.223 90.2111C192.446 102.116 188.458 114.011 182.871 125.206C190.577 127.075 199.631 129.564 206.787 124.776C215.852 118.799 222.258 109.803 229.254 101.686C229.803 101.036 230.363 100.387 230.923 99.7469C231.313 99.3171 232.072 98.4575 232.452 98.0177C232.872 98.4375 233.691 99.2571 234.111 99.667C241.656 106.964 247.273 116.1 251.011 125.876C251.211 126.525 251.591 127.805 251.79 128.455C243.975 137.321 238.718 148.046 231.243 157.172C223.637 166.948 213.883 175.824 201.65 179.103C190.027 182.141 177.894 180.522 166.201 178.703C166.871 194.546 165.742 210.439 163.303 226.102C161.374 226.272 159.435 226.462 157.506 226.612C155.428 226.742 153.349 226.782 151.27 226.732C150.571 226.692 149.181 226.612 148.492 226.572C122.517 224.893 97.0424 219.065 71.8773 212.748C69.2689 212.028 66.6604 211.309 64.022 210.689C75.725 192.907 83.8502 172.885 88.6074 152.174C91.5356 141.659 94.4139 130.724 101.07 121.857C103.778 118.119 107.686 115.46 111.934 113.741C112.483 111.132 113.053 108.513 113.613 105.904C124.476 107.024 135.31 108.333 146.163 109.453C145.743 111.542 145.314 113.641 144.824 115.72C145.634 115.85 147.263 116.12 148.072 116.26C159.066 104.145 164.582 88.4818 172.138 74.248ZM149.841 116.93C149.791 117.389 149.701 118.319 149.651 118.789C154.698 119.638 159.905 119.848 164.772 121.607C170.289 123.227 175.436 126.295 181.202 126.945L181.572 125.626L180.913 124.836C170.739 121.667 160.814 116.27 149.841 116.93ZM142.865 171.816C144.454 173.395 146.763 172.945 148.762 173.245C152.889 173.555 156.757 175.144 160.635 176.464C161.514 172.995 157.396 173.005 155.138 172.056C151.23 171.176 146.483 169.567 142.865 171.816Z" fill="#FE3C6B"/>
<path d="M14.1516 398.518C29.7823 405.165 45.443 411.762 61.0737 418.419C61.1137 421.028 61.2236 423.637 61.4135 426.246C58.5852 427.505 55.9168 429.095 53.3383 430.814C56.4465 431.943 58.915 429.055 61.4635 427.815L62.0331 429.405L62.1531 429.844C61.2936 433.073 57.0661 433.813 56.6164 437.261C58.6152 435.942 60.544 434.522 62.6128 433.313C62.7827 433.573 63.1225 434.102 63.2924 434.372C65.9209 439.69 70.9579 443.238 73.6862 448.486C76.0748 452.834 77.444 458.282 75.2653 463C50.2002 453.344 25.0951 443.738 0 434.152C4.49733 422.188 9.30446 410.333 14.1516 398.518Z" fill="#FE3C6B"/>
<path d="M157.556 427.505C174.286 424.287 191.037 421.188 207.767 417.989C209.016 421.758 210.585 425.396 212.264 428.985C210.825 431.304 209.775 433.843 208.976 436.451C211.305 435.402 212.144 432.823 213.193 430.704C214.253 432.013 215.322 433.343 216.371 434.672C214.972 436.821 213.753 439.26 214.133 441.909C215.362 440.04 216.531 438.141 217.521 436.152C221.688 439.41 226.955 440.93 230.883 444.518C234.771 447.787 237.999 452.395 237.659 457.702C210.795 457.402 183.941 457.063 157.077 456.983C157.107 447.157 157.466 437.331 157.556 427.505Z" fill="#FE3C6B"/>
</svg>
